%TF.GenerationSoftware,KiCad,Pcbnew,9.0.0-rc3-b7b28e555e~182~ubuntu24.04.1*%
%TF.CreationDate,2025-02-14T00:47:14-05:00*%
%TF.ProjectId,SharpBreakout,53686172-7042-4726-9561-6b6f75742e6b,rev?*%
%TF.SameCoordinates,Original*%
%TF.FileFunction,Legend,Bot*%
%TF.FilePolarity,Positive*%
%FSLAX46Y46*%
G04 Gerber Fmt 4.6, Leading zero omitted, Abs format (unit mm)*
G04 Created by KiCad (PCBNEW 9.0.0-rc3-b7b28e555e~182~ubuntu24.04.1) date 2025-02-14 00:47:14*
%MOMM*%
%LPD*%
G01*
G04 APERTURE LIST*
%ADD10C,0.120000*%
G04 APERTURE END LIST*
D10*
%TO.C,J3*%
X135825000Y-93915000D02*
X135825000Y-95245000D01*
X135825000Y-96515000D02*
X135825000Y-99115000D01*
X135825000Y-99115000D02*
X161345000Y-99115000D01*
X137155000Y-93915000D02*
X135825000Y-93915000D01*
X138425000Y-93915000D02*
X138425000Y-96515000D01*
X138425000Y-93915000D02*
X161345000Y-93915000D01*
X138425000Y-96515000D02*
X135825000Y-96515000D01*
X161345000Y-93915000D02*
X161345000Y-99115000D01*
%TO.C,J5*%
X135825000Y-106615000D02*
X135825000Y-107945000D01*
X135825000Y-109215000D02*
X135825000Y-111815000D01*
X135825000Y-111815000D02*
X161345000Y-111815000D01*
X137155000Y-106615000D02*
X135825000Y-106615000D01*
X138425000Y-106615000D02*
X138425000Y-109215000D01*
X138425000Y-106615000D02*
X161345000Y-106615000D01*
X138425000Y-109215000D02*
X135825000Y-109215000D01*
X161345000Y-106615000D02*
X161345000Y-111815000D01*
%TO.C,J4*%
X126935000Y-106615000D02*
X126935000Y-107945000D01*
X126935000Y-109215000D02*
X126935000Y-111815000D01*
X126935000Y-111815000D02*
X132135000Y-111815000D01*
X128265000Y-106615000D02*
X126935000Y-106615000D01*
X129535000Y-106615000D02*
X129535000Y-109215000D01*
X129535000Y-106615000D02*
X132135000Y-106615000D01*
X129535000Y-109215000D02*
X126935000Y-109215000D01*
X132135000Y-106615000D02*
X132135000Y-111815000D01*
%TD*%
M02*
