%TF.GenerationSoftware,KiCad,Pcbnew,9.0.0-rc3-b7b28e555e~182~ubuntu24.04.1*%
%TF.CreationDate,2025-02-14T00:47:13-05:00*%
%TF.ProjectId,SharpBreakout,53686172-7042-4726-9561-6b6f75742e6b,rev?*%
%TF.SameCoordinates,Original*%
%TF.FileFunction,Copper,L2,Inr*%
%TF.FilePolarity,Positive*%
%FSLAX46Y46*%
G04 Gerber Fmt 4.6, Leading zero omitted, Abs format (unit mm)*
G04 Created by KiCad (PCBNEW 9.0.0-rc3-b7b28e555e~182~ubuntu24.04.1) date 2025-02-14 00:47:13*
%MOMM*%
%LPD*%
G01*
G04 APERTURE LIST*
%TA.AperFunction,ComponentPad*%
%ADD10R,1.700000X1.700000*%
%TD*%
%TA.AperFunction,ComponentPad*%
%ADD11O,1.700000X1.700000*%
%TD*%
%TA.AperFunction,ViaPad*%
%ADD12C,0.450000*%
%TD*%
%TA.AperFunction,ViaPad*%
%ADD13C,0.600000*%
%TD*%
G04 APERTURE END LIST*
D10*
%TO.N,/VDD1*%
%TO.C,J6*%
X133455000Y-88140000D03*
D11*
%TO.N,Net-(J6-Pin_2)*%
X130915000Y-88140000D03*
%TD*%
D10*
%TO.N,/VDD2*%
%TO.C,J2*%
X133455000Y-84540000D03*
D11*
%TO.N,Net-(J2-Pin_2)*%
X130915000Y-84540000D03*
%TD*%
D10*
%TO.N,GND*%
%TO.C,J3*%
X137155000Y-95245000D03*
D11*
%TO.N,unconnected-(J3-Pin_2-Pad2)*%
X137155000Y-97785000D03*
%TO.N,/BCK*%
X139695000Y-95245000D03*
%TO.N,/R1*%
X139695000Y-97785000D03*
%TO.N,/G1*%
X142235000Y-95245000D03*
%TO.N,/B1*%
X142235000Y-97785000D03*
%TO.N,unconnected-(J3-Pin_7-Pad7)*%
X144775000Y-95245000D03*
%TO.N,/VB*%
X144775000Y-97785000D03*
%TO.N,unconnected-(J3-Pin_9-Pad9)*%
X147315000Y-95245000D03*
%TO.N,unconnected-(J3-Pin_10-Pad10)*%
X147315000Y-97785000D03*
%TO.N,unconnected-(J3-Pin_11-Pad11)*%
X149855000Y-95245000D03*
%TO.N,unconnected-(J3-Pin_12-Pad12)*%
X149855000Y-97785000D03*
%TO.N,unconnected-(J3-Pin_13-Pad13)*%
X152395000Y-95245000D03*
%TO.N,unconnected-(J3-Pin_14-Pad14)*%
X152395000Y-97785000D03*
%TO.N,unconnected-(J3-Pin_15-Pad15)*%
X154935000Y-95245000D03*
%TO.N,unconnected-(J3-Pin_16-Pad16)*%
X154935000Y-97785000D03*
%TO.N,unconnected-(J3-Pin_17-Pad17)*%
X157475000Y-95245000D03*
%TO.N,unconnected-(J3-Pin_18-Pad18)*%
X157475000Y-97785000D03*
%TO.N,unconnected-(J3-Pin_19-Pad19)*%
X160015000Y-95245000D03*
%TO.N,GND*%
X160015000Y-97785000D03*
%TD*%
D10*
%TO.N,GND*%
%TO.C,J5*%
X137155000Y-107945000D03*
D11*
%TO.N,VDDIO*%
X137155000Y-110485000D03*
%TO.N,unconnected-(J5-Pin_3-Pad3)*%
X139695000Y-107945000D03*
%TO.N,unconnected-(J5-Pin_4-Pad4)*%
X139695000Y-110485000D03*
%TO.N,unconnected-(J5-Pin_5-Pad5)*%
X142235000Y-107945000D03*
%TO.N,unconnected-(J5-Pin_6-Pad6)*%
X142235000Y-110485000D03*
%TO.N,/VDDIO_EN*%
X144775000Y-107945000D03*
%TO.N,/VBUS_EN*%
X144775000Y-110485000D03*
%TO.N,/INTB*%
X147315000Y-107945000D03*
%TO.N,/GCK*%
X147315000Y-110485000D03*
%TO.N,/GSP*%
X149855000Y-107945000D03*
%TO.N,/VA*%
X149855000Y-110485000D03*
%TO.N,/BSP*%
X152395000Y-107945000D03*
%TO.N,/GEN*%
X152395000Y-110485000D03*
%TO.N,/G0*%
X154935000Y-107945000D03*
%TO.N,/R0*%
X154935000Y-110485000D03*
%TO.N,unconnected-(J5-Pin_17-Pad17)*%
X157475000Y-107945000D03*
%TO.N,/B0*%
X157475000Y-110485000D03*
%TO.N,unconnected-(J5-Pin_19-Pad19)*%
X160015000Y-107945000D03*
%TO.N,GND*%
X160015000Y-110485000D03*
%TD*%
D10*
%TO.N,GND*%
%TO.C,J4*%
X128265000Y-107945000D03*
D11*
%TO.N,VBUS*%
X128265000Y-110485000D03*
%TO.N,GND*%
X130805000Y-107945000D03*
%TO.N,VDDEXT*%
X130805000Y-110485000D03*
%TD*%
D12*
%TO.N,/GSP*%
X142380000Y-84550000D03*
%TO.N,/GEN*%
X142980000Y-84860000D03*
%TO.N,/BSP*%
X144780000Y-84550000D03*
%TO.N,/G0*%
X145980000Y-84550000D03*
%TO.N,/B0*%
X146580000Y-84860000D03*
%TO.N,GND*%
X130400000Y-100075000D03*
X159750000Y-85910000D03*
X143810000Y-104270000D03*
X136390000Y-89470000D03*
D13*
X127875000Y-84175000D03*
D12*
X131700000Y-96500000D03*
X127490000Y-96500000D03*
X149370000Y-102890000D03*
X156240000Y-85910000D03*
X151760000Y-104080000D03*
X159830000Y-105580000D03*
X144450000Y-88800000D03*
X142810000Y-103270000D03*
X134710000Y-105230000D03*
X146630000Y-103670000D03*
X144870000Y-105350000D03*
X150390000Y-105480000D03*
X144850000Y-103350000D03*
X146640000Y-105370000D03*
X144454000Y-86890000D03*
X156220000Y-92420000D03*
X147890000Y-103790000D03*
X128740000Y-88320000D03*
X139750000Y-88680000D03*
X156220000Y-89300000D03*
X157620000Y-103490000D03*
X126900000Y-100050000D03*
X157400000Y-100820000D03*
X128220000Y-96500000D03*
X159780000Y-89280000D03*
D13*
X126900000Y-85475000D03*
D12*
X153070000Y-105580000D03*
X131510000Y-94000000D03*
X152140000Y-92390000D03*
X131090000Y-101490000D03*
X151760000Y-105580000D03*
X128800000Y-94000000D03*
X144450000Y-87660000D03*
X159710000Y-100720000D03*
X153070000Y-104050000D03*
X152070000Y-85910000D03*
X136075000Y-86100000D03*
X131040000Y-96500000D03*
X152000000Y-89200000D03*
X150260000Y-103840000D03*
X159870000Y-92440000D03*
X147910000Y-105310000D03*
X157650000Y-105480000D03*
X139340000Y-105400000D03*
X159760000Y-103400000D03*
X136075000Y-84100000D03*
X128710000Y-91410000D03*
%TO.N,/R0*%
X145380000Y-84860000D03*
%TO.N,/VDD2*%
X139900000Y-84125000D03*
%TO.N,/VDD1*%
X144180000Y-84860000D03*
X139925000Y-86085000D03*
%TO.N,/VBUS_EN*%
X127850000Y-97150000D03*
%TO.N,/VDDIO_EN*%
X131350000Y-97150000D03*
%TD*%
%TA.AperFunction,Conductor*%
%TO.N,GND*%
G36*
X130339075Y-107752007D02*
G01*
X130305000Y-107879174D01*
X130305000Y-108010826D01*
X130339075Y-108137993D01*
X130371988Y-108195000D01*
X128698012Y-108195000D01*
X128730925Y-108137993D01*
X128765000Y-108010826D01*
X128765000Y-107879174D01*
X128730925Y-107752007D01*
X128698012Y-107695000D01*
X130371988Y-107695000D01*
X130339075Y-107752007D01*
G37*
%TD.AperFunction*%
%TA.AperFunction,Conductor*%
G36*
X130414682Y-83070185D02*
G01*
X130460437Y-83122989D01*
X130470381Y-83192147D01*
X130441356Y-83255703D01*
X130400415Y-83285222D01*
X130400929Y-83286231D01*
X130207179Y-83384951D01*
X130035213Y-83509890D01*
X129884890Y-83660213D01*
X129759951Y-83832179D01*
X129663444Y-84021585D01*
X129663443Y-84021587D01*
X129663443Y-84021588D01*
X129642022Y-84087514D01*
X129597753Y-84223760D01*
X129564500Y-84433713D01*
X129564500Y-84646286D01*
X129592428Y-84822620D01*
X129597754Y-84856243D01*
X129648519Y-85012482D01*
X129663444Y-85058414D01*
X129759951Y-85247820D01*
X129884890Y-85419786D01*
X130035213Y-85570109D01*
X130207179Y-85695048D01*
X130207181Y-85695049D01*
X130207184Y-85695051D01*
X130396588Y-85791557D01*
X130598757Y-85857246D01*
X130808713Y-85890500D01*
X130808714Y-85890500D01*
X131021286Y-85890500D01*
X131021287Y-85890500D01*
X131231243Y-85857246D01*
X131433412Y-85791557D01*
X131622816Y-85695051D01*
X131794792Y-85570104D01*
X131908329Y-85456566D01*
X131969648Y-85423084D01*
X132039340Y-85428068D01*
X132095274Y-85469939D01*
X132112189Y-85500917D01*
X132161202Y-85632328D01*
X132161206Y-85632335D01*
X132247452Y-85747544D01*
X132247455Y-85747547D01*
X132362664Y-85833793D01*
X132362671Y-85833797D01*
X132497517Y-85884091D01*
X132497516Y-85884091D01*
X132504444Y-85884835D01*
X132557127Y-85890500D01*
X134352872Y-85890499D01*
X134404201Y-85884981D01*
X134411814Y-85884163D01*
X134412483Y-85884091D01*
X134547328Y-85833797D01*
X134547327Y-85833797D01*
X134547331Y-85833796D01*
X134662546Y-85747546D01*
X134748796Y-85632331D01*
X134799091Y-85497483D01*
X134805500Y-85437873D01*
X134805499Y-84196457D01*
X139174499Y-84196457D01*
X139202379Y-84336614D01*
X139202381Y-84336620D01*
X139257069Y-84468650D01*
X139257074Y-84468659D01*
X139336467Y-84587478D01*
X139336470Y-84587482D01*
X139437517Y-84688529D01*
X139437521Y-84688532D01*
X139556340Y-84767925D01*
X139556346Y-84767928D01*
X139556347Y-84767929D01*
X139688380Y-84822619D01*
X139688384Y-84822619D01*
X139688385Y-84822620D01*
X139828542Y-84850500D01*
X139828545Y-84850500D01*
X139971457Y-84850500D01*
X140065751Y-84831742D01*
X140111620Y-84822619D01*
X140243653Y-84767929D01*
X140362479Y-84688532D01*
X140429554Y-84621457D01*
X141654499Y-84621457D01*
X141682379Y-84761614D01*
X141682381Y-84761620D01*
X141737069Y-84893650D01*
X141737074Y-84893659D01*
X141816467Y-85012478D01*
X141816470Y-85012482D01*
X141917517Y-85113529D01*
X141917521Y-85113532D01*
X142036340Y-85192925D01*
X142036346Y-85192928D01*
X142036347Y-85192929D01*
X142168380Y-85247619D01*
X142168384Y-85247619D01*
X142168385Y-85247620D01*
X142308542Y-85275500D01*
X142308545Y-85275500D01*
X142319266Y-85275500D01*
X142386305Y-85295185D01*
X142412143Y-85318188D01*
X142412160Y-85318172D01*
X142412437Y-85318449D01*
X142415125Y-85320842D01*
X142416473Y-85322485D01*
X142517517Y-85423529D01*
X142517521Y-85423532D01*
X142636340Y-85502925D01*
X142636346Y-85502928D01*
X142636347Y-85502929D01*
X142768380Y-85557619D01*
X142768384Y-85557619D01*
X142768385Y-85557620D01*
X142908542Y-85585500D01*
X142908545Y-85585500D01*
X143051457Y-85585500D01*
X143145751Y-85566742D01*
X143191620Y-85557619D01*
X143323653Y-85502929D01*
X143442479Y-85423532D01*
X143446225Y-85419786D01*
X143492319Y-85373693D01*
X143553642Y-85340208D01*
X143623334Y-85345192D01*
X143667681Y-85373693D01*
X143717517Y-85423529D01*
X143717521Y-85423532D01*
X143836340Y-85502925D01*
X143836346Y-85502928D01*
X143836347Y-85502929D01*
X143968380Y-85557619D01*
X143968384Y-85557619D01*
X143968385Y-85557620D01*
X144108542Y-85585500D01*
X144108545Y-85585500D01*
X144251457Y-85585500D01*
X144345751Y-85566742D01*
X144391620Y-85557619D01*
X144523653Y-85502929D01*
X144642479Y-85423532D01*
X144646225Y-85419786D01*
X144692319Y-85373693D01*
X144753642Y-85340208D01*
X144823334Y-85345192D01*
X144867681Y-85373693D01*
X144917517Y-85423529D01*
X144917521Y-85423532D01*
X145036340Y-85502925D01*
X145036346Y-85502928D01*
X145036347Y-85502929D01*
X145168380Y-85557619D01*
X145168384Y-85557619D01*
X145168385Y-85557620D01*
X145308542Y-85585500D01*
X145308545Y-85585500D01*
X145451457Y-85585500D01*
X145545751Y-85566742D01*
X145591620Y-85557619D01*
X145723653Y-85502929D01*
X145842479Y-85423532D01*
X145846225Y-85419786D01*
X145892319Y-85373693D01*
X145953642Y-85340208D01*
X146023334Y-85345192D01*
X146067681Y-85373693D01*
X146117517Y-85423529D01*
X146117521Y-85423532D01*
X146236340Y-85502925D01*
X146236346Y-85502928D01*
X146236347Y-85502929D01*
X146368380Y-85557619D01*
X146368384Y-85557619D01*
X146368385Y-85557620D01*
X146508542Y-85585500D01*
X146508545Y-85585500D01*
X146651457Y-85585500D01*
X146745751Y-85566742D01*
X146791620Y-85557619D01*
X146923653Y-85502929D01*
X147042479Y-85423532D01*
X147143532Y-85322479D01*
X147222929Y-85203653D01*
X147277619Y-85071620D01*
X147286742Y-85025751D01*
X147305500Y-84931457D01*
X147305500Y-84788542D01*
X147277620Y-84648385D01*
X147277619Y-84648384D01*
X147277619Y-84648380D01*
X147222929Y-84516347D01*
X147222928Y-84516346D01*
X147222925Y-84516340D01*
X147143532Y-84397521D01*
X147143529Y-84397517D01*
X147042482Y-84296470D01*
X147042478Y-84296467D01*
X146923659Y-84217074D01*
X146923650Y-84217069D01*
X146791620Y-84162381D01*
X146791614Y-84162379D01*
X146651457Y-84134500D01*
X146651455Y-84134500D01*
X146640734Y-84134500D01*
X146573695Y-84114815D01*
X146547856Y-84091811D01*
X146547840Y-84091828D01*
X146547562Y-84091550D01*
X146544875Y-84089158D01*
X146543526Y-84087514D01*
X146442482Y-83986470D01*
X146442478Y-83986467D01*
X146323659Y-83907074D01*
X146323650Y-83907069D01*
X146191620Y-83852381D01*
X146191614Y-83852379D01*
X146051457Y-83824500D01*
X146051455Y-83824500D01*
X145908545Y-83824500D01*
X145908543Y-83824500D01*
X145768385Y-83852379D01*
X145768379Y-83852381D01*
X145636349Y-83907069D01*
X145636340Y-83907074D01*
X145517521Y-83986467D01*
X145517517Y-83986470D01*
X145467681Y-84036307D01*
X145406358Y-84069792D01*
X145336666Y-84064808D01*
X145292319Y-84036307D01*
X145242482Y-83986470D01*
X145242478Y-83986467D01*
X145123659Y-83907074D01*
X145123650Y-83907069D01*
X144991620Y-83852381D01*
X144991614Y-83852379D01*
X144851457Y-83824500D01*
X144851455Y-83824500D01*
X144708545Y-83824500D01*
X144708543Y-83824500D01*
X144568385Y-83852379D01*
X144568379Y-83852381D01*
X144436349Y-83907069D01*
X144436340Y-83907074D01*
X144317521Y-83986467D01*
X144317517Y-83986470D01*
X144216473Y-84087514D01*
X144215125Y-84089158D01*
X144214199Y-84089788D01*
X144212160Y-84091828D01*
X144211773Y-84091441D01*
X144157382Y-84128496D01*
X144119266Y-84134500D01*
X144108543Y-84134500D01*
X143968385Y-84162379D01*
X143968379Y-84162381D01*
X143836349Y-84217069D01*
X143836340Y-84217074D01*
X143717521Y-84296467D01*
X143717517Y-84296470D01*
X143667681Y-84346307D01*
X143606358Y-84379792D01*
X143536666Y-84374808D01*
X143492319Y-84346307D01*
X143442482Y-84296470D01*
X143442478Y-84296467D01*
X143323659Y-84217074D01*
X143323650Y-84217069D01*
X143191620Y-84162381D01*
X143191614Y-84162379D01*
X143051457Y-84134500D01*
X143051455Y-84134500D01*
X143040734Y-84134500D01*
X142973695Y-84114815D01*
X142947856Y-84091811D01*
X142947840Y-84091828D01*
X142947562Y-84091550D01*
X142944875Y-84089158D01*
X142943526Y-84087514D01*
X142842482Y-83986470D01*
X142842478Y-83986467D01*
X142723659Y-83907074D01*
X142723650Y-83907069D01*
X142591620Y-83852381D01*
X142591614Y-83852379D01*
X142451457Y-83824500D01*
X142451455Y-83824500D01*
X142308545Y-83824500D01*
X142308543Y-83824500D01*
X142168385Y-83852379D01*
X142168379Y-83852381D01*
X142036349Y-83907069D01*
X142036340Y-83907074D01*
X141917521Y-83986467D01*
X141917517Y-83986470D01*
X141816470Y-84087517D01*
X141816467Y-84087521D01*
X141737074Y-84206340D01*
X141737069Y-84206349D01*
X141682381Y-84338379D01*
X141682379Y-84338385D01*
X141654500Y-84478542D01*
X141654500Y-84478545D01*
X141654500Y-84621455D01*
X141654500Y-84621457D01*
X141654499Y-84621457D01*
X140429554Y-84621457D01*
X140463532Y-84587479D01*
X140542929Y-84468653D01*
X140597619Y-84336620D01*
X140623532Y-84206349D01*
X140625500Y-84196457D01*
X140625500Y-84053542D01*
X140597620Y-83913385D01*
X140597619Y-83913384D01*
X140597619Y-83913380D01*
X140542929Y-83781347D01*
X140542928Y-83781346D01*
X140542925Y-83781340D01*
X140463532Y-83662521D01*
X140463529Y-83662517D01*
X140362482Y-83561470D01*
X140362478Y-83561467D01*
X140243659Y-83482074D01*
X140243650Y-83482069D01*
X140111620Y-83427381D01*
X140111614Y-83427379D01*
X139971457Y-83399500D01*
X139971455Y-83399500D01*
X139828545Y-83399500D01*
X139828543Y-83399500D01*
X139688385Y-83427379D01*
X139688379Y-83427381D01*
X139556349Y-83482069D01*
X139556340Y-83482074D01*
X139437521Y-83561467D01*
X139437517Y-83561470D01*
X139336470Y-83662517D01*
X139336467Y-83662521D01*
X139257074Y-83781340D01*
X139257069Y-83781349D01*
X139202381Y-83913379D01*
X139202379Y-83913385D01*
X139174500Y-84053542D01*
X139174500Y-84053545D01*
X139174500Y-84196455D01*
X139174500Y-84196457D01*
X139174499Y-84196457D01*
X134805499Y-84196457D01*
X134805499Y-83642128D01*
X134799091Y-83582517D01*
X134797810Y-83579083D01*
X134748797Y-83447671D01*
X134748793Y-83447664D01*
X134662547Y-83332455D01*
X134662544Y-83332452D01*
X134584150Y-83273766D01*
X134542279Y-83217832D01*
X134537295Y-83148141D01*
X134570781Y-83086818D01*
X134632104Y-83053334D01*
X134658461Y-83050500D01*
X159994108Y-83050500D01*
X160055933Y-83050500D01*
X160064043Y-83050765D01*
X160312895Y-83067075D01*
X160328953Y-83069190D01*
X160536105Y-83110395D01*
X160569535Y-83117045D01*
X160585202Y-83121243D01*
X160754947Y-83178863D01*
X160817481Y-83200091D01*
X160832458Y-83206294D01*
X160969278Y-83273766D01*
X161052460Y-83314787D01*
X161066508Y-83322897D01*
X161270464Y-83459177D01*
X161283325Y-83469045D01*
X161298178Y-83482071D01*
X161467749Y-83630781D01*
X161479218Y-83642250D01*
X161640951Y-83826671D01*
X161650825Y-83839539D01*
X161787102Y-84043492D01*
X161795212Y-84057539D01*
X161903702Y-84277534D01*
X161909909Y-84292520D01*
X161988756Y-84524797D01*
X161992954Y-84540464D01*
X162040807Y-84781035D01*
X162042925Y-84797116D01*
X162059235Y-85045956D01*
X162059500Y-85054066D01*
X162059500Y-110525933D01*
X162059235Y-110534043D01*
X162042925Y-110782883D01*
X162040807Y-110798964D01*
X161992954Y-111039535D01*
X161988756Y-111055202D01*
X161909909Y-111287479D01*
X161903702Y-111302465D01*
X161795212Y-111522460D01*
X161787102Y-111536507D01*
X161650825Y-111740460D01*
X161640951Y-111753328D01*
X161479218Y-111937749D01*
X161467749Y-111949218D01*
X161283328Y-112110951D01*
X161270460Y-112120825D01*
X161066507Y-112257102D01*
X161052460Y-112265212D01*
X160832465Y-112373702D01*
X160817479Y-112379909D01*
X160585202Y-112458756D01*
X160569535Y-112462954D01*
X160328964Y-112510807D01*
X160312883Y-112512925D01*
X160064043Y-112529235D01*
X160055933Y-112529500D01*
X128234067Y-112529500D01*
X128225957Y-112529235D01*
X127977116Y-112512925D01*
X127961035Y-112510807D01*
X127720464Y-112462954D01*
X127704797Y-112458756D01*
X127472520Y-112379909D01*
X127457534Y-112373702D01*
X127237539Y-112265212D01*
X127223492Y-112257102D01*
X127019539Y-112120825D01*
X127006671Y-112110951D01*
X126822250Y-111949218D01*
X126810781Y-111937749D01*
X126649048Y-111753328D01*
X126639174Y-111740460D01*
X126636566Y-111736557D01*
X126502897Y-111536507D01*
X126494787Y-111522460D01*
X126489529Y-111511799D01*
X126386294Y-111302458D01*
X126380090Y-111287479D01*
X126301243Y-111055202D01*
X126297045Y-111039535D01*
X126278569Y-110946650D01*
X126249190Y-110798953D01*
X126247075Y-110782895D01*
X126230765Y-110534043D01*
X126230500Y-110525933D01*
X126230500Y-110378713D01*
X126914500Y-110378713D01*
X126914500Y-110591287D01*
X126924534Y-110654644D01*
X126947753Y-110801239D01*
X127013444Y-111003414D01*
X127109951Y-111192820D01*
X127234890Y-111364786D01*
X127385213Y-111515109D01*
X127557179Y-111640048D01*
X127557181Y-111640049D01*
X127557184Y-111640051D01*
X127746588Y-111736557D01*
X127948757Y-111802246D01*
X128158713Y-111835500D01*
X128158714Y-111835500D01*
X128371286Y-111835500D01*
X128371287Y-111835500D01*
X128581243Y-111802246D01*
X128783412Y-111736557D01*
X128972816Y-111640051D01*
X129018639Y-111606759D01*
X129144786Y-111515109D01*
X129144788Y-111515106D01*
X129144792Y-111515104D01*
X129295104Y-111364792D01*
X129295106Y-111364788D01*
X129295109Y-111364786D01*
X129420048Y-111192820D01*
X129420047Y-111192820D01*
X129420051Y-111192816D01*
X129424514Y-111184054D01*
X129472488Y-111133259D01*
X129540308Y-111116463D01*
X129606444Y-111138999D01*
X129645486Y-111184056D01*
X129649951Y-111192820D01*
X129774890Y-111364786D01*
X129925213Y-111515109D01*
X130097179Y-111640048D01*
X130097181Y-111640049D01*
X130097184Y-111640051D01*
X130286588Y-111736557D01*
X130488757Y-111802246D01*
X130698713Y-111835500D01*
X130698714Y-111835500D01*
X130911286Y-111835500D01*
X130911287Y-111835500D01*
X131121243Y-111802246D01*
X131323412Y-111736557D01*
X131512816Y-111640051D01*
X131558639Y-111606759D01*
X131684786Y-111515109D01*
X131684788Y-111515106D01*
X131684792Y-111515104D01*
X131835104Y-111364792D01*
X131835106Y-111364788D01*
X131835109Y-111364786D01*
X131960048Y-111192820D01*
X131960047Y-111192820D01*
X131960051Y-111192816D01*
X132056557Y-111003412D01*
X132122246Y-110801243D01*
X132155500Y-110591287D01*
X132155500Y-110378713D01*
X135804500Y-110378713D01*
X135804500Y-110591287D01*
X135814534Y-110654644D01*
X135837753Y-110801239D01*
X135903444Y-111003414D01*
X135999951Y-111192820D01*
X136124890Y-111364786D01*
X136275213Y-111515109D01*
X136447179Y-111640048D01*
X136447181Y-111640049D01*
X136447184Y-111640051D01*
X136636588Y-111736557D01*
X136838757Y-111802246D01*
X137048713Y-111835500D01*
X137048714Y-111835500D01*
X137261286Y-111835500D01*
X137261287Y-111835500D01*
X137471243Y-111802246D01*
X137673412Y-111736557D01*
X137862816Y-111640051D01*
X137908639Y-111606759D01*
X138034786Y-111515109D01*
X138034788Y-111515106D01*
X138034792Y-111515104D01*
X138185104Y-111364792D01*
X138185106Y-111364788D01*
X138185109Y-111364786D01*
X138310048Y-111192820D01*
X138310047Y-111192820D01*
X138310051Y-111192816D01*
X138314514Y-111184054D01*
X138362488Y-111133259D01*
X138430308Y-111116463D01*
X138496444Y-111138999D01*
X138535486Y-111184056D01*
X138539951Y-111192820D01*
X138664890Y-111364786D01*
X138815213Y-111515109D01*
X138987179Y-111640048D01*
X138987181Y-111640049D01*
X138987184Y-111640051D01*
X139176588Y-111736557D01*
X139378757Y-111802246D01*
X139588713Y-111835500D01*
X139588714Y-111835500D01*
X139801286Y-111835500D01*
X139801287Y-111835500D01*
X140011243Y-111802246D01*
X140213412Y-111736557D01*
X140402816Y-111640051D01*
X140448639Y-111606759D01*
X140574786Y-111515109D01*
X140574788Y-111515106D01*
X140574792Y-111515104D01*
X140725104Y-111364792D01*
X140725106Y-111364788D01*
X140725109Y-111364786D01*
X140850048Y-111192820D01*
X140850047Y-111192820D01*
X140850051Y-111192816D01*
X140854514Y-111184054D01*
X140902488Y-111133259D01*
X140970308Y-111116463D01*
X141036444Y-111138999D01*
X141075486Y-111184056D01*
X141079951Y-111192820D01*
X141204890Y-111364786D01*
X141355213Y-111515109D01*
X141527179Y-111640048D01*
X141527181Y-111640049D01*
X141527184Y-111640051D01*
X141716588Y-111736557D01*
X141918757Y-111802246D01*
X142128713Y-111835500D01*
X142128714Y-111835500D01*
X142341286Y-111835500D01*
X142341287Y-111835500D01*
X142551243Y-111802246D01*
X142753412Y-111736557D01*
X142942816Y-111640051D01*
X142988639Y-111606759D01*
X143114786Y-111515109D01*
X143114788Y-111515106D01*
X143114792Y-111515104D01*
X143265104Y-111364792D01*
X143265106Y-111364788D01*
X143265109Y-111364786D01*
X143390048Y-111192820D01*
X143390047Y-111192820D01*
X143390051Y-111192816D01*
X143394514Y-111184054D01*
X143442488Y-111133259D01*
X143510308Y-111116463D01*
X143576444Y-111138999D01*
X143615486Y-111184056D01*
X143619951Y-111192820D01*
X143744890Y-111364786D01*
X143895213Y-111515109D01*
X144067179Y-111640048D01*
X144067181Y-111640049D01*
X144067184Y-111640051D01*
X144256588Y-111736557D01*
X144458757Y-111802246D01*
X144668713Y-111835500D01*
X144668714Y-111835500D01*
X144881286Y-111835500D01*
X144881287Y-111835500D01*
X145091243Y-111802246D01*
X145293412Y-111736557D01*
X145482816Y-111640051D01*
X145528639Y-111606759D01*
X145654786Y-111515109D01*
X145654788Y-111515106D01*
X145654792Y-111515104D01*
X145805104Y-111364792D01*
X145805106Y-111364788D01*
X145805109Y-111364786D01*
X145930048Y-111192820D01*
X145930047Y-111192820D01*
X145930051Y-111192816D01*
X145934514Y-111184054D01*
X145982488Y-111133259D01*
X146050308Y-111116463D01*
X146116444Y-111138999D01*
X146155486Y-111184056D01*
X146159951Y-111192820D01*
X146284890Y-111364786D01*
X146435213Y-111515109D01*
X146607179Y-111640048D01*
X146607181Y-111640049D01*
X146607184Y-111640051D01*
X146796588Y-111736557D01*
X146998757Y-111802246D01*
X147208713Y-111835500D01*
X147208714Y-111835500D01*
X147421286Y-111835500D01*
X147421287Y-111835500D01*
X147631243Y-111802246D01*
X147833412Y-111736557D01*
X148022816Y-111640051D01*
X148068639Y-111606759D01*
X148194786Y-111515109D01*
X148194788Y-111515106D01*
X148194792Y-111515104D01*
X148345104Y-111364792D01*
X148345106Y-111364788D01*
X148345109Y-111364786D01*
X148470048Y-111192820D01*
X148470047Y-111192820D01*
X148470051Y-111192816D01*
X148474514Y-111184054D01*
X148522488Y-111133259D01*
X148590308Y-111116463D01*
X148656444Y-111138999D01*
X148695486Y-111184056D01*
X148699951Y-111192820D01*
X148824890Y-111364786D01*
X148975213Y-111515109D01*
X149147179Y-111640048D01*
X149147181Y-111640049D01*
X149147184Y-111640051D01*
X149336588Y-111736557D01*
X149538757Y-111802246D01*
X149748713Y-111835500D01*
X149748714Y-111835500D01*
X149961286Y-111835500D01*
X149961287Y-111835500D01*
X150171243Y-111802246D01*
X150373412Y-111736557D01*
X150562816Y-111640051D01*
X150608639Y-111606759D01*
X150734786Y-111515109D01*
X150734788Y-111515106D01*
X150734792Y-111515104D01*
X150885104Y-111364792D01*
X150885106Y-111364788D01*
X150885109Y-111364786D01*
X151010048Y-111192820D01*
X151010047Y-111192820D01*
X151010051Y-111192816D01*
X151014514Y-111184054D01*
X151062488Y-111133259D01*
X151130308Y-111116463D01*
X151196444Y-111138999D01*
X151235486Y-111184056D01*
X151239951Y-111192820D01*
X151364890Y-111364786D01*
X151515213Y-111515109D01*
X151687179Y-111640048D01*
X151687181Y-111640049D01*
X151687184Y-111640051D01*
X151876588Y-111736557D01*
X152078757Y-111802246D01*
X152288713Y-111835500D01*
X152288714Y-111835500D01*
X152501286Y-111835500D01*
X152501287Y-111835500D01*
X152711243Y-111802246D01*
X152913412Y-111736557D01*
X153102816Y-111640051D01*
X153148639Y-111606759D01*
X153274786Y-111515109D01*
X153274788Y-111515106D01*
X153274792Y-111515104D01*
X153425104Y-111364792D01*
X153425106Y-111364788D01*
X153425109Y-111364786D01*
X153550048Y-111192820D01*
X153550047Y-111192820D01*
X153550051Y-111192816D01*
X153554514Y-111184054D01*
X153602488Y-111133259D01*
X153670308Y-111116463D01*
X153736444Y-111138999D01*
X153775486Y-111184056D01*
X153779951Y-111192820D01*
X153904890Y-111364786D01*
X154055213Y-111515109D01*
X154227179Y-111640048D01*
X154227181Y-111640049D01*
X154227184Y-111640051D01*
X154416588Y-111736557D01*
X154618757Y-111802246D01*
X154828713Y-111835500D01*
X154828714Y-111835500D01*
X155041286Y-111835500D01*
X155041287Y-111835500D01*
X155251243Y-111802246D01*
X155453412Y-111736557D01*
X155642816Y-111640051D01*
X155688639Y-111606759D01*
X155814786Y-111515109D01*
X155814788Y-111515106D01*
X155814792Y-111515104D01*
X155965104Y-111364792D01*
X155965106Y-111364788D01*
X155965109Y-111364786D01*
X156090048Y-111192820D01*
X156090047Y-111192820D01*
X156090051Y-111192816D01*
X156094514Y-111184054D01*
X156142488Y-111133259D01*
X156210308Y-111116463D01*
X156276444Y-111138999D01*
X156315486Y-111184056D01*
X156319951Y-111192820D01*
X156444890Y-111364786D01*
X156595213Y-111515109D01*
X156767179Y-111640048D01*
X156767181Y-111640049D01*
X156767184Y-111640051D01*
X156956588Y-111736557D01*
X157158757Y-111802246D01*
X157368713Y-111835500D01*
X157368714Y-111835500D01*
X157581286Y-111835500D01*
X157581287Y-111835500D01*
X157791243Y-111802246D01*
X157993412Y-111736557D01*
X158182816Y-111640051D01*
X158228639Y-111606759D01*
X158354786Y-111515109D01*
X158354788Y-111515106D01*
X158354792Y-111515104D01*
X158505104Y-111364792D01*
X158505106Y-111364788D01*
X158505109Y-111364786D01*
X158630048Y-111192820D01*
X158630051Y-111192816D01*
X158634793Y-111183508D01*
X158682763Y-111132711D01*
X158750583Y-111115911D01*
X158816719Y-111138445D01*
X158855763Y-111183500D01*
X158860377Y-111192555D01*
X158985272Y-111364459D01*
X158985276Y-111364464D01*
X159135535Y-111514723D01*
X159135540Y-111514727D01*
X159307442Y-111639620D01*
X159496782Y-111736095D01*
X159698871Y-111801757D01*
X159765000Y-111812231D01*
X159765000Y-110918012D01*
X159822007Y-110950925D01*
X159949174Y-110985000D01*
X160080826Y-110985000D01*
X160207993Y-110950925D01*
X160265000Y-110918012D01*
X160265000Y-111812230D01*
X160331126Y-111801757D01*
X160331129Y-111801757D01*
X160533217Y-111736095D01*
X160722557Y-111639620D01*
X160894459Y-111514727D01*
X160894464Y-111514723D01*
X161044723Y-111364464D01*
X161044727Y-111364459D01*
X161169620Y-111192557D01*
X161266095Y-111003217D01*
X161331757Y-110801129D01*
X161331757Y-110801126D01*
X161342231Y-110735000D01*
X160448012Y-110735000D01*
X160480925Y-110677993D01*
X160515000Y-110550826D01*
X160515000Y-110419174D01*
X160480925Y-110292007D01*
X160448012Y-110235000D01*
X161342231Y-110235000D01*
X161331757Y-110168873D01*
X161331757Y-110168870D01*
X161266095Y-109966782D01*
X161169620Y-109777442D01*
X161044727Y-109605540D01*
X161044723Y-109605535D01*
X160894464Y-109455276D01*
X160894459Y-109455272D01*
X160722555Y-109330377D01*
X160713500Y-109325763D01*
X160662706Y-109277788D01*
X160645912Y-109209966D01*
X160668451Y-109143832D01*
X160713508Y-109104793D01*
X160722816Y-109100051D01*
X160809471Y-109037093D01*
X160894786Y-108975109D01*
X160894788Y-108975106D01*
X160894792Y-108975104D01*
X161045104Y-108824792D01*
X161045106Y-108824788D01*
X161045109Y-108824786D01*
X161170048Y-108652820D01*
X161170047Y-108652820D01*
X161170051Y-108652816D01*
X161266557Y-108463412D01*
X161332246Y-108261243D01*
X161365500Y-108051287D01*
X161365500Y-107838713D01*
X161332246Y-107628757D01*
X161266557Y-107426588D01*
X161170051Y-107237184D01*
X161170049Y-107237181D01*
X161170048Y-107237179D01*
X161045109Y-107065213D01*
X160894786Y-106914890D01*
X160722820Y-106789951D01*
X160533414Y-106693444D01*
X160533413Y-106693443D01*
X160533412Y-106693443D01*
X160331243Y-106627754D01*
X160331241Y-106627753D01*
X160331240Y-106627753D01*
X160169957Y-106602208D01*
X160121287Y-106594500D01*
X159908713Y-106594500D01*
X159860042Y-106602208D01*
X159698760Y-106627753D01*
X159496585Y-106693444D01*
X159307179Y-106789951D01*
X159135213Y-106914890D01*
X158984890Y-107065213D01*
X158859949Y-107237182D01*
X158855484Y-107245946D01*
X158807509Y-107296742D01*
X158739688Y-107313536D01*
X158673553Y-107290998D01*
X158634516Y-107245946D01*
X158630050Y-107237182D01*
X158505109Y-107065213D01*
X158354786Y-106914890D01*
X158182820Y-106789951D01*
X157993414Y-106693444D01*
X157993413Y-106693443D01*
X157993412Y-106693443D01*
X157791243Y-106627754D01*
X157791241Y-106627753D01*
X157791240Y-106627753D01*
X157629957Y-106602208D01*
X157581287Y-106594500D01*
X157368713Y-106594500D01*
X157320042Y-106602208D01*
X157158760Y-106627753D01*
X156956585Y-106693444D01*
X156767179Y-106789951D01*
X156595213Y-106914890D01*
X156444890Y-107065213D01*
X156319949Y-107237182D01*
X156315484Y-107245946D01*
X156267509Y-107296742D01*
X156199688Y-107313536D01*
X156133553Y-107290998D01*
X156094516Y-107245946D01*
X156090050Y-107237182D01*
X155965109Y-107065213D01*
X155814786Y-106914890D01*
X155642820Y-106789951D01*
X155453414Y-106693444D01*
X155453413Y-106693443D01*
X155453412Y-106693443D01*
X155251243Y-106627754D01*
X155251241Y-106627753D01*
X155251240Y-106627753D01*
X155089957Y-106602208D01*
X155041287Y-106594500D01*
X154828713Y-106594500D01*
X154780042Y-106602208D01*
X154618760Y-106627753D01*
X154416585Y-106693444D01*
X154227179Y-106789951D01*
X154055213Y-106914890D01*
X153904890Y-107065213D01*
X153779949Y-107237182D01*
X153775484Y-107245946D01*
X153727509Y-107296742D01*
X153659688Y-107313536D01*
X153593553Y-107290998D01*
X153554516Y-107245946D01*
X153550050Y-107237182D01*
X153425109Y-107065213D01*
X153274786Y-106914890D01*
X153102820Y-106789951D01*
X152913414Y-106693444D01*
X152913413Y-106693443D01*
X152913412Y-106693443D01*
X152711243Y-106627754D01*
X152711241Y-106627753D01*
X152711240Y-106627753D01*
X152549957Y-106602208D01*
X152501287Y-106594500D01*
X152288713Y-106594500D01*
X152240042Y-106602208D01*
X152078760Y-106627753D01*
X151876585Y-106693444D01*
X151687179Y-106789951D01*
X151515213Y-106914890D01*
X151364890Y-107065213D01*
X151239949Y-107237182D01*
X151235484Y-107245946D01*
X151187509Y-107296742D01*
X151119688Y-107313536D01*
X151053553Y-107290998D01*
X151014516Y-107245946D01*
X151010050Y-107237182D01*
X150885109Y-107065213D01*
X150734786Y-106914890D01*
X150562820Y-106789951D01*
X150373414Y-106693444D01*
X150373413Y-106693443D01*
X150373412Y-106693443D01*
X150171243Y-106627754D01*
X150171241Y-106627753D01*
X150171240Y-106627753D01*
X150009957Y-106602208D01*
X149961287Y-106594500D01*
X149748713Y-106594500D01*
X149700042Y-106602208D01*
X149538760Y-106627753D01*
X149336585Y-106693444D01*
X149147179Y-106789951D01*
X148975213Y-106914890D01*
X148824890Y-107065213D01*
X148699949Y-107237182D01*
X148695484Y-107245946D01*
X148647509Y-107296742D01*
X148579688Y-107313536D01*
X148513553Y-107290998D01*
X148474516Y-107245946D01*
X148470050Y-107237182D01*
X148345109Y-107065213D01*
X148194786Y-106914890D01*
X148022820Y-106789951D01*
X147833414Y-106693444D01*
X147833413Y-106693443D01*
X147833412Y-106693443D01*
X147631243Y-106627754D01*
X147631241Y-106627753D01*
X147631240Y-106627753D01*
X147469957Y-106602208D01*
X147421287Y-106594500D01*
X147208713Y-106594500D01*
X147160042Y-106602208D01*
X146998760Y-106627753D01*
X146796585Y-106693444D01*
X146607179Y-106789951D01*
X146435213Y-106914890D01*
X146284890Y-107065213D01*
X146159949Y-107237182D01*
X146155484Y-107245946D01*
X146107509Y-107296742D01*
X146039688Y-107313536D01*
X145973553Y-107290998D01*
X145934516Y-107245946D01*
X145930050Y-107237182D01*
X145805109Y-107065213D01*
X145654786Y-106914890D01*
X145482820Y-106789951D01*
X145293414Y-106693444D01*
X145293413Y-106693443D01*
X145293412Y-106693443D01*
X145091243Y-106627754D01*
X145091241Y-106627753D01*
X145091240Y-106627753D01*
X144929957Y-106602208D01*
X144881287Y-106594500D01*
X144668713Y-106594500D01*
X144620042Y-106602208D01*
X144458760Y-106627753D01*
X144256585Y-106693444D01*
X144067179Y-106789951D01*
X143895213Y-106914890D01*
X143744890Y-107065213D01*
X143619949Y-107237182D01*
X143615484Y-107245946D01*
X143567509Y-107296742D01*
X143499688Y-107313536D01*
X143433553Y-107290998D01*
X143394516Y-107245946D01*
X143390050Y-107237182D01*
X143265109Y-107065213D01*
X143114786Y-106914890D01*
X142942820Y-106789951D01*
X142753414Y-106693444D01*
X142753413Y-106693443D01*
X142753412Y-106693443D01*
X142551243Y-106627754D01*
X142551241Y-106627753D01*
X142551240Y-106627753D01*
X142389957Y-106602208D01*
X142341287Y-106594500D01*
X142128713Y-106594500D01*
X142080042Y-106602208D01*
X141918760Y-106627753D01*
X141716585Y-106693444D01*
X141527179Y-106789951D01*
X141355213Y-106914890D01*
X141204890Y-107065213D01*
X141079949Y-107237182D01*
X141075484Y-107245946D01*
X141027509Y-107296742D01*
X140959688Y-107313536D01*
X140893553Y-107290998D01*
X140854516Y-107245946D01*
X140850050Y-107237182D01*
X140725109Y-107065213D01*
X140574786Y-106914890D01*
X140402820Y-106789951D01*
X140213414Y-106693444D01*
X140213413Y-106693443D01*
X140213412Y-106693443D01*
X140011243Y-106627754D01*
X140011241Y-106627753D01*
X140011240Y-106627753D01*
X139849957Y-106602208D01*
X139801287Y-106594500D01*
X139588713Y-106594500D01*
X139540042Y-106602208D01*
X139378760Y-106627753D01*
X139176585Y-106693444D01*
X138987179Y-106789951D01*
X138815215Y-106914889D01*
X138701285Y-107028819D01*
X138639962Y-107062303D01*
X138570270Y-107057319D01*
X138514337Y-107015447D01*
X138497422Y-106984470D01*
X138448354Y-106852913D01*
X138448350Y-106852906D01*
X138362190Y-106737812D01*
X138362187Y-106737809D01*
X138247093Y-106651649D01*
X138247086Y-106651645D01*
X138112379Y-106601403D01*
X138112372Y-106601401D01*
X138052844Y-106595000D01*
X137405000Y-106595000D01*
X137405000Y-107511988D01*
X137347993Y-107479075D01*
X137220826Y-107445000D01*
X137089174Y-107445000D01*
X136962007Y-107479075D01*
X136905000Y-107511988D01*
X136905000Y-106595000D01*
X136257155Y-106595000D01*
X136197627Y-106601401D01*
X136197620Y-106601403D01*
X136062913Y-106651645D01*
X136062906Y-106651649D01*
X135947812Y-106737809D01*
X135947809Y-106737812D01*
X135861649Y-106852906D01*
X135861645Y-106852913D01*
X135811403Y-106987620D01*
X135811401Y-106987627D01*
X135805000Y-107047155D01*
X135805000Y-107695000D01*
X136721988Y-107695000D01*
X136689075Y-107752007D01*
X136655000Y-107879174D01*
X136655000Y-108010826D01*
X136689075Y-108137993D01*
X136721988Y-108195000D01*
X135805000Y-108195000D01*
X135805000Y-108842844D01*
X135811401Y-108902372D01*
X135811403Y-108902379D01*
X135861645Y-109037086D01*
X135861649Y-109037093D01*
X135947809Y-109152187D01*
X135947812Y-109152190D01*
X136062906Y-109238350D01*
X136062913Y-109238354D01*
X136194470Y-109287422D01*
X136250404Y-109329293D01*
X136274821Y-109394758D01*
X136259969Y-109463031D01*
X136238819Y-109491285D01*
X136124889Y-109605215D01*
X135999951Y-109777179D01*
X135903444Y-109966585D01*
X135837753Y-110168760D01*
X135836291Y-110177993D01*
X135804500Y-110378713D01*
X132155500Y-110378713D01*
X132122246Y-110168757D01*
X132056557Y-109966588D01*
X131960051Y-109777184D01*
X131960049Y-109777181D01*
X131960048Y-109777179D01*
X131835109Y-109605213D01*
X131684786Y-109454890D01*
X131512817Y-109329949D01*
X131503504Y-109325204D01*
X131452707Y-109277230D01*
X131435912Y-109209409D01*
X131458449Y-109143274D01*
X131503507Y-109104232D01*
X131512558Y-109099620D01*
X131684459Y-108974727D01*
X131684464Y-108974723D01*
X131834723Y-108824464D01*
X131834727Y-108824459D01*
X131959620Y-108652557D01*
X132056095Y-108463217D01*
X132121757Y-108261129D01*
X132121757Y-108261126D01*
X132132231Y-108195000D01*
X131238012Y-108195000D01*
X131270925Y-108137993D01*
X131305000Y-108010826D01*
X131305000Y-107879174D01*
X131270925Y-107752007D01*
X131238012Y-107695000D01*
X132132231Y-107695000D01*
X132121757Y-107628873D01*
X132121757Y-107628870D01*
X132056095Y-107426782D01*
X131959620Y-107237442D01*
X131871925Y-107116739D01*
X131871922Y-107116736D01*
X131834721Y-107065533D01*
X131684464Y-106915276D01*
X131684459Y-106915272D01*
X131512557Y-106790379D01*
X131323215Y-106693903D01*
X131121124Y-106628241D01*
X131055000Y-106617768D01*
X131055000Y-107511988D01*
X130997993Y-107479075D01*
X130870826Y-107445000D01*
X130739174Y-107445000D01*
X130612007Y-107479075D01*
X130555000Y-107511988D01*
X130555000Y-106617768D01*
X130554999Y-106617768D01*
X130488875Y-106628241D01*
X130286784Y-106693903D01*
X130097442Y-106790379D01*
X129925541Y-106915271D01*
X129811477Y-107029335D01*
X129750154Y-107062819D01*
X129680462Y-107057835D01*
X129624529Y-107015963D01*
X129607614Y-106984986D01*
X129558354Y-106852913D01*
X129558350Y-106852906D01*
X129472190Y-106737812D01*
X129472187Y-106737809D01*
X129357093Y-106651649D01*
X129357086Y-106651645D01*
X129222379Y-106601403D01*
X129222372Y-106601401D01*
X129162844Y-106595000D01*
X128515000Y-106595000D01*
X128515000Y-107511988D01*
X128457993Y-107479075D01*
X128330826Y-107445000D01*
X128199174Y-107445000D01*
X128072007Y-107479075D01*
X128015000Y-107511988D01*
X128015000Y-106595000D01*
X127367155Y-106595000D01*
X127307627Y-106601401D01*
X127307620Y-106601403D01*
X127172913Y-106651645D01*
X127172906Y-106651649D01*
X127057812Y-106737809D01*
X127057809Y-106737812D01*
X126971649Y-106852906D01*
X126971645Y-106852913D01*
X126921403Y-106987620D01*
X126921401Y-106987627D01*
X126915000Y-107047155D01*
X126915000Y-107695000D01*
X127831988Y-107695000D01*
X127799075Y-107752007D01*
X127765000Y-107879174D01*
X127765000Y-108010826D01*
X127799075Y-108137993D01*
X127831988Y-108195000D01*
X126915000Y-108195000D01*
X126915000Y-108842844D01*
X126921401Y-108902372D01*
X126921403Y-108902379D01*
X126971645Y-109037086D01*
X126971649Y-109037093D01*
X127057809Y-109152187D01*
X127057812Y-109152190D01*
X127172906Y-109238350D01*
X127172913Y-109238354D01*
X127304470Y-109287422D01*
X127360404Y-109329293D01*
X127384821Y-109394758D01*
X127369969Y-109463031D01*
X127348819Y-109491285D01*
X127234889Y-109605215D01*
X127109951Y-109777179D01*
X127013444Y-109966585D01*
X126947753Y-110168760D01*
X126946291Y-110177993D01*
X126914500Y-110378713D01*
X126230500Y-110378713D01*
X126230500Y-97221457D01*
X127124499Y-97221457D01*
X127152379Y-97361614D01*
X127152381Y-97361620D01*
X127207069Y-97493650D01*
X127207074Y-97493659D01*
X127286467Y-97612478D01*
X127286470Y-97612482D01*
X127387517Y-97713529D01*
X127387521Y-97713532D01*
X127506340Y-97792925D01*
X127506346Y-97792928D01*
X127506347Y-97792929D01*
X127638380Y-97847619D01*
X127638384Y-97847619D01*
X127638385Y-97847620D01*
X127778542Y-97875500D01*
X127778545Y-97875500D01*
X127921457Y-97875500D01*
X128015751Y-97856742D01*
X128061620Y-97847619D01*
X128193653Y-97792929D01*
X128312479Y-97713532D01*
X128413532Y-97612479D01*
X128492929Y-97493653D01*
X128547619Y-97361620D01*
X128566484Y-97266782D01*
X128575500Y-97221457D01*
X130624499Y-97221457D01*
X130652379Y-97361614D01*
X130652381Y-97361620D01*
X130707069Y-97493650D01*
X130707074Y-97493659D01*
X130786467Y-97612478D01*
X130786470Y-97612482D01*
X130887517Y-97713529D01*
X130887521Y-97713532D01*
X131006340Y-97792925D01*
X131006346Y-97792928D01*
X131006347Y-97792929D01*
X131138380Y-97847619D01*
X131138384Y-97847619D01*
X131138385Y-97847620D01*
X131278542Y-97875500D01*
X131278545Y-97875500D01*
X131421457Y-97875500D01*
X131515751Y-97856742D01*
X131561620Y-97847619D01*
X131693653Y-97792929D01*
X131812479Y-97713532D01*
X131847298Y-97678713D01*
X135804500Y-97678713D01*
X135804500Y-97891287D01*
X135814534Y-97954644D01*
X135837753Y-98101239D01*
X135903444Y-98303414D01*
X135999951Y-98492820D01*
X136124890Y-98664786D01*
X136275213Y-98815109D01*
X136447179Y-98940048D01*
X136447181Y-98940049D01*
X136447184Y-98940051D01*
X136636588Y-99036557D01*
X136838757Y-99102246D01*
X137048713Y-99135500D01*
X137048714Y-99135500D01*
X137261286Y-99135500D01*
X137261287Y-99135500D01*
X137471243Y-99102246D01*
X137673412Y-99036557D01*
X137862816Y-98940051D01*
X137884789Y-98924086D01*
X138034786Y-98815109D01*
X138034788Y-98815106D01*
X138034792Y-98815104D01*
X138185104Y-98664792D01*
X138185106Y-98664788D01*
X138185109Y-98664786D01*
X138310048Y-98492820D01*
X138310047Y-98492820D01*
X138310051Y-98492816D01*
X138314514Y-98484054D01*
X138362488Y-98433259D01*
X138430308Y-98416463D01*
X138496444Y-98438999D01*
X138535486Y-98484056D01*
X138539951Y-98492820D01*
X138664890Y-98664786D01*
X138815213Y-98815109D01*
X138987179Y-98940048D01*
X138987181Y-98940049D01*
X138987184Y-98940051D01*
X139176588Y-99036557D01*
X139378757Y-99102246D01*
X139588713Y-99135500D01*
X139588714Y-99135500D01*
X139801286Y-99135500D01*
X139801287Y-99135500D01*
X140011243Y-99102246D01*
X140213412Y-99036557D01*
X140402816Y-98940051D01*
X140424789Y-98924086D01*
X140574786Y-98815109D01*
X140574788Y-98815106D01*
X140574792Y-98815104D01*
X140725104Y-98664792D01*
X140725106Y-98664788D01*
X140725109Y-98664786D01*
X140850048Y-98492820D01*
X140850047Y-98492820D01*
X140850051Y-98492816D01*
X140854514Y-98484054D01*
X140902488Y-98433259D01*
X140970308Y-98416463D01*
X141036444Y-98438999D01*
X141075486Y-98484056D01*
X141079951Y-98492820D01*
X141204890Y-98664786D01*
X141355213Y-98815109D01*
X141527179Y-98940048D01*
X141527181Y-98940049D01*
X141527184Y-98940051D01*
X141716588Y-99036557D01*
X141918757Y-99102246D01*
X142128713Y-99135500D01*
X142128714Y-99135500D01*
X142341286Y-99135500D01*
X142341287Y-99135500D01*
X142551243Y-99102246D01*
X142753412Y-99036557D01*
X142942816Y-98940051D01*
X142964789Y-98924086D01*
X143114786Y-98815109D01*
X143114788Y-98815106D01*
X143114792Y-98815104D01*
X143265104Y-98664792D01*
X143265106Y-98664788D01*
X143265109Y-98664786D01*
X143390048Y-98492820D01*
X143390047Y-98492820D01*
X143390051Y-98492816D01*
X143394514Y-98484054D01*
X143442488Y-98433259D01*
X143510308Y-98416463D01*
X143576444Y-98438999D01*
X143615486Y-98484056D01*
X143619951Y-98492820D01*
X143744890Y-98664786D01*
X143895213Y-98815109D01*
X144067179Y-98940048D01*
X144067181Y-98940049D01*
X144067184Y-98940051D01*
X144256588Y-99036557D01*
X144458757Y-99102246D01*
X144668713Y-99135500D01*
X144668714Y-99135500D01*
X144881286Y-99135500D01*
X144881287Y-99135500D01*
X145091243Y-99102246D01*
X145293412Y-99036557D01*
X145482816Y-98940051D01*
X145504789Y-98924086D01*
X145654786Y-98815109D01*
X145654788Y-98815106D01*
X145654792Y-98815104D01*
X145805104Y-98664792D01*
X145805106Y-98664788D01*
X145805109Y-98664786D01*
X145930048Y-98492820D01*
X145930047Y-98492820D01*
X145930051Y-98492816D01*
X145934514Y-98484054D01*
X145982488Y-98433259D01*
X146050308Y-98416463D01*
X146116444Y-98438999D01*
X146155486Y-98484056D01*
X146159951Y-98492820D01*
X146284890Y-98664786D01*
X146435213Y-98815109D01*
X146607179Y-98940048D01*
X146607181Y-98940049D01*
X146607184Y-98940051D01*
X146796588Y-99036557D01*
X146998757Y-99102246D01*
X147208713Y-99135500D01*
X147208714Y-99135500D01*
X147421286Y-99135500D01*
X147421287Y-99135500D01*
X147631243Y-99102246D01*
X147833412Y-99036557D01*
X148022816Y-98940051D01*
X148044789Y-98924086D01*
X148194786Y-98815109D01*
X148194788Y-98815106D01*
X148194792Y-98815104D01*
X148345104Y-98664792D01*
X148345106Y-98664788D01*
X148345109Y-98664786D01*
X148470048Y-98492820D01*
X148470047Y-98492820D01*
X148470051Y-98492816D01*
X148474514Y-98484054D01*
X148522488Y-98433259D01*
X148590308Y-98416463D01*
X148656444Y-98438999D01*
X148695486Y-98484056D01*
X148699951Y-98492820D01*
X148824890Y-98664786D01*
X148975213Y-98815109D01*
X149147179Y-98940048D01*
X149147181Y-98940049D01*
X149147184Y-98940051D01*
X149336588Y-99036557D01*
X149538757Y-99102246D01*
X149748713Y-99135500D01*
X149748714Y-99135500D01*
X149961286Y-99135500D01*
X149961287Y-99135500D01*
X150171243Y-99102246D01*
X150373412Y-99036557D01*
X150562816Y-98940051D01*
X150584789Y-98924086D01*
X150734786Y-98815109D01*
X150734788Y-98815106D01*
X150734792Y-98815104D01*
X150885104Y-98664792D01*
X150885106Y-98664788D01*
X150885109Y-98664786D01*
X151010048Y-98492820D01*
X151010047Y-98492820D01*
X151010051Y-98492816D01*
X151014514Y-98484054D01*
X151062488Y-98433259D01*
X151130308Y-98416463D01*
X151196444Y-98438999D01*
X151235486Y-98484056D01*
X151239951Y-98492820D01*
X151364890Y-98664786D01*
X151515213Y-98815109D01*
X151687179Y-98940048D01*
X151687181Y-98940049D01*
X151687184Y-98940051D01*
X151876588Y-99036557D01*
X152078757Y-99102246D01*
X152288713Y-99135500D01*
X152288714Y-99135500D01*
X152501286Y-99135500D01*
X152501287Y-99135500D01*
X152711243Y-99102246D01*
X152913412Y-99036557D01*
X153102816Y-98940051D01*
X153124789Y-98924086D01*
X153274786Y-98815109D01*
X153274788Y-98815106D01*
X153274792Y-98815104D01*
X153425104Y-98664792D01*
X153425106Y-98664788D01*
X153425109Y-98664786D01*
X153550048Y-98492820D01*
X153550047Y-98492820D01*
X153550051Y-98492816D01*
X153554514Y-98484054D01*
X153602488Y-98433259D01*
X153670308Y-98416463D01*
X153736444Y-98438999D01*
X153775486Y-98484056D01*
X153779951Y-98492820D01*
X153904890Y-98664786D01*
X154055213Y-98815109D01*
X154227179Y-98940048D01*
X154227181Y-98940049D01*
X154227184Y-98940051D01*
X154416588Y-99036557D01*
X154618757Y-99102246D01*
X154828713Y-99135500D01*
X154828714Y-99135500D01*
X155041286Y-99135500D01*
X155041287Y-99135500D01*
X155251243Y-99102246D01*
X155453412Y-99036557D01*
X155642816Y-98940051D01*
X155664789Y-98924086D01*
X155814786Y-98815109D01*
X155814788Y-98815106D01*
X155814792Y-98815104D01*
X155965104Y-98664792D01*
X155965106Y-98664788D01*
X155965109Y-98664786D01*
X156090048Y-98492820D01*
X156090047Y-98492820D01*
X156090051Y-98492816D01*
X156094514Y-98484054D01*
X156142488Y-98433259D01*
X156210308Y-98416463D01*
X156276444Y-98438999D01*
X156315486Y-98484056D01*
X156319951Y-98492820D01*
X156444890Y-98664786D01*
X156595213Y-98815109D01*
X156767179Y-98940048D01*
X156767181Y-98940049D01*
X156767184Y-98940051D01*
X156956588Y-99036557D01*
X157158757Y-99102246D01*
X157368713Y-99135500D01*
X157368714Y-99135500D01*
X157581286Y-99135500D01*
X157581287Y-99135500D01*
X157791243Y-99102246D01*
X157993412Y-99036557D01*
X158182816Y-98940051D01*
X158204789Y-98924086D01*
X158354786Y-98815109D01*
X158354788Y-98815106D01*
X158354792Y-98815104D01*
X158505104Y-98664792D01*
X158505106Y-98664788D01*
X158505109Y-98664786D01*
X158630048Y-98492820D01*
X158630051Y-98492816D01*
X158634793Y-98483508D01*
X158682763Y-98432711D01*
X158750583Y-98415911D01*
X158816719Y-98438445D01*
X158855763Y-98483500D01*
X158860377Y-98492555D01*
X158985272Y-98664459D01*
X158985276Y-98664464D01*
X159135535Y-98814723D01*
X159135540Y-98814727D01*
X159307442Y-98939620D01*
X159496782Y-99036095D01*
X159698871Y-99101757D01*
X159765000Y-99112231D01*
X159765000Y-98218012D01*
X159822007Y-98250925D01*
X159949174Y-98285000D01*
X160080826Y-98285000D01*
X160207993Y-98250925D01*
X160265000Y-98218012D01*
X160265000Y-99112230D01*
X160331126Y-99101757D01*
X160331129Y-99101757D01*
X160533217Y-99036095D01*
X160722557Y-98939620D01*
X160894459Y-98814727D01*
X160894464Y-98814723D01*
X161044723Y-98664464D01*
X161044727Y-98664459D01*
X161169620Y-98492557D01*
X161266095Y-98303217D01*
X161331757Y-98101129D01*
X161331757Y-98101126D01*
X161342231Y-98035000D01*
X160448012Y-98035000D01*
X160480925Y-97977993D01*
X160515000Y-97850826D01*
X160515000Y-97719174D01*
X160480925Y-97592007D01*
X160448012Y-97535000D01*
X161342231Y-97535000D01*
X161331757Y-97468873D01*
X161331757Y-97468870D01*
X161266095Y-97266782D01*
X161169620Y-97077442D01*
X161044727Y-96905540D01*
X161044723Y-96905535D01*
X160894464Y-96755276D01*
X160894459Y-96755272D01*
X160722555Y-96630377D01*
X160713500Y-96625763D01*
X160662706Y-96577788D01*
X160645912Y-96509966D01*
X160668451Y-96443832D01*
X160713508Y-96404793D01*
X160722816Y-96400051D01*
X160809471Y-96337093D01*
X160894786Y-96275109D01*
X160894788Y-96275106D01*
X160894792Y-96275104D01*
X161045104Y-96124792D01*
X161045106Y-96124788D01*
X161045109Y-96124786D01*
X161170048Y-95952820D01*
X161170047Y-95952820D01*
X161170051Y-95952816D01*
X161266557Y-95763412D01*
X161332246Y-95561243D01*
X161365500Y-95351287D01*
X161365500Y-95138713D01*
X161332246Y-94928757D01*
X161266557Y-94726588D01*
X161170051Y-94537184D01*
X161170049Y-94537181D01*
X161170048Y-94537179D01*
X161045109Y-94365213D01*
X160894786Y-94214890D01*
X160722820Y-94089951D01*
X160533414Y-93993444D01*
X160533413Y-93993443D01*
X160533412Y-93993443D01*
X160331243Y-93927754D01*
X160331241Y-93927753D01*
X160331240Y-93927753D01*
X160169957Y-93902208D01*
X160121287Y-93894500D01*
X159908713Y-93894500D01*
X159860042Y-93902208D01*
X159698760Y-93927753D01*
X159496585Y-93993444D01*
X159307179Y-94089951D01*
X159135213Y-94214890D01*
X158984890Y-94365213D01*
X158859949Y-94537182D01*
X158855484Y-94545946D01*
X158807509Y-94596742D01*
X158739688Y-94613536D01*
X158673553Y-94590998D01*
X158634516Y-94545946D01*
X158630050Y-94537182D01*
X158505109Y-94365213D01*
X158354786Y-94214890D01*
X158182820Y-94089951D01*
X157993414Y-93993444D01*
X157993413Y-93993443D01*
X157993412Y-93993443D01*
X157791243Y-93927754D01*
X157791241Y-93927753D01*
X157791240Y-93927753D01*
X157629957Y-93902208D01*
X157581287Y-93894500D01*
X157368713Y-93894500D01*
X157320042Y-93902208D01*
X157158760Y-93927753D01*
X156956585Y-93993444D01*
X156767179Y-94089951D01*
X156595213Y-94214890D01*
X156444890Y-94365213D01*
X156319949Y-94537182D01*
X156315484Y-94545946D01*
X156267509Y-94596742D01*
X156199688Y-94613536D01*
X156133553Y-94590998D01*
X156094516Y-94545946D01*
X156090050Y-94537182D01*
X155965109Y-94365213D01*
X155814786Y-94214890D01*
X155642820Y-94089951D01*
X155453414Y-93993444D01*
X155453413Y-93993443D01*
X155453412Y-93993443D01*
X155251243Y-93927754D01*
X155251241Y-93927753D01*
X155251240Y-93927753D01*
X155089957Y-93902208D01*
X155041287Y-93894500D01*
X154828713Y-93894500D01*
X154780042Y-93902208D01*
X154618760Y-93927753D01*
X154416585Y-93993444D01*
X154227179Y-94089951D01*
X154055213Y-94214890D01*
X153904890Y-94365213D01*
X153779949Y-94537182D01*
X153775484Y-94545946D01*
X153727509Y-94596742D01*
X153659688Y-94613536D01*
X153593553Y-94590998D01*
X153554516Y-94545946D01*
X153550050Y-94537182D01*
X153425109Y-94365213D01*
X153274786Y-94214890D01*
X153102820Y-94089951D01*
X152913414Y-93993444D01*
X152913413Y-93993443D01*
X152913412Y-93993443D01*
X152711243Y-93927754D01*
X152711241Y-93927753D01*
X152711240Y-93927753D01*
X152549957Y-93902208D01*
X152501287Y-93894500D01*
X152288713Y-93894500D01*
X152240042Y-93902208D01*
X152078760Y-93927753D01*
X151876585Y-93993444D01*
X151687179Y-94089951D01*
X151515213Y-94214890D01*
X151364890Y-94365213D01*
X151239949Y-94537182D01*
X151235484Y-94545946D01*
X151187509Y-94596742D01*
X151119688Y-94613536D01*
X151053553Y-94590998D01*
X151014516Y-94545946D01*
X151010050Y-94537182D01*
X150885109Y-94365213D01*
X150734786Y-94214890D01*
X150562820Y-94089951D01*
X150373414Y-93993444D01*
X150373413Y-93993443D01*
X150373412Y-93993443D01*
X150171243Y-93927754D01*
X150171241Y-93927753D01*
X150171240Y-93927753D01*
X150009957Y-93902208D01*
X149961287Y-93894500D01*
X149748713Y-93894500D01*
X149700042Y-93902208D01*
X149538760Y-93927753D01*
X149336585Y-93993444D01*
X149147179Y-94089951D01*
X148975213Y-94214890D01*
X148824890Y-94365213D01*
X148699949Y-94537182D01*
X148695484Y-94545946D01*
X148647509Y-94596742D01*
X148579688Y-94613536D01*
X148513553Y-94590998D01*
X148474516Y-94545946D01*
X148470050Y-94537182D01*
X148345109Y-94365213D01*
X148194786Y-94214890D01*
X148022820Y-94089951D01*
X147833414Y-93993444D01*
X147833413Y-93993443D01*
X147833412Y-93993443D01*
X147631243Y-93927754D01*
X147631241Y-93927753D01*
X147631240Y-93927753D01*
X147469957Y-93902208D01*
X147421287Y-93894500D01*
X147208713Y-93894500D01*
X147160042Y-93902208D01*
X146998760Y-93927753D01*
X146796585Y-93993444D01*
X146607179Y-94089951D01*
X146435213Y-94214890D01*
X146284890Y-94365213D01*
X146159949Y-94537182D01*
X146155484Y-94545946D01*
X146107509Y-94596742D01*
X146039688Y-94613536D01*
X145973553Y-94590998D01*
X145934516Y-94545946D01*
X145930050Y-94537182D01*
X145805109Y-94365213D01*
X145654786Y-94214890D01*
X145482820Y-94089951D01*
X145293414Y-93993444D01*
X145293413Y-93993443D01*
X145293412Y-93993443D01*
X145091243Y-93927754D01*
X145091241Y-93927753D01*
X145091240Y-93927753D01*
X144929957Y-93902208D01*
X144881287Y-93894500D01*
X144668713Y-93894500D01*
X144620042Y-93902208D01*
X144458760Y-93927753D01*
X144256585Y-93993444D01*
X144067179Y-94089951D01*
X143895213Y-94214890D01*
X143744890Y-94365213D01*
X143619949Y-94537182D01*
X143615484Y-94545946D01*
X143567509Y-94596742D01*
X143499688Y-94613536D01*
X143433553Y-94590998D01*
X143394516Y-94545946D01*
X143390050Y-94537182D01*
X143265109Y-94365213D01*
X143114786Y-94214890D01*
X142942820Y-94089951D01*
X142753414Y-93993444D01*
X142753413Y-93993443D01*
X142753412Y-93993443D01*
X142551243Y-93927754D01*
X142551241Y-93927753D01*
X142551240Y-93927753D01*
X142389957Y-93902208D01*
X142341287Y-93894500D01*
X142128713Y-93894500D01*
X142080042Y-93902208D01*
X141918760Y-93927753D01*
X141716585Y-93993444D01*
X141527179Y-94089951D01*
X141355213Y-94214890D01*
X141204890Y-94365213D01*
X141079949Y-94537182D01*
X141075484Y-94545946D01*
X141027509Y-94596742D01*
X140959688Y-94613536D01*
X140893553Y-94590998D01*
X140854516Y-94545946D01*
X140850050Y-94537182D01*
X140725109Y-94365213D01*
X140574786Y-94214890D01*
X140402820Y-94089951D01*
X140213414Y-93993444D01*
X140213413Y-93993443D01*
X140213412Y-93993443D01*
X140011243Y-93927754D01*
X140011241Y-93927753D01*
X140011240Y-93927753D01*
X139849957Y-93902208D01*
X139801287Y-93894500D01*
X139588713Y-93894500D01*
X139540042Y-93902208D01*
X139378760Y-93927753D01*
X139176585Y-93993444D01*
X138987179Y-94089951D01*
X138815215Y-94214889D01*
X138701285Y-94328819D01*
X138639962Y-94362303D01*
X138570270Y-94357319D01*
X138514337Y-94315447D01*
X138497422Y-94284470D01*
X138448354Y-94152913D01*
X138448350Y-94152906D01*
X138362190Y-94037812D01*
X138362187Y-94037809D01*
X138247093Y-93951649D01*
X138247086Y-93951645D01*
X138112379Y-93901403D01*
X138112372Y-93901401D01*
X138052844Y-93895000D01*
X137405000Y-93895000D01*
X137405000Y-94811988D01*
X137347993Y-94779075D01*
X137220826Y-94745000D01*
X137089174Y-94745000D01*
X136962007Y-94779075D01*
X136905000Y-94811988D01*
X136905000Y-93895000D01*
X136257155Y-93895000D01*
X136197627Y-93901401D01*
X136197620Y-93901403D01*
X136062913Y-93951645D01*
X136062906Y-93951649D01*
X135947812Y-94037809D01*
X135947809Y-94037812D01*
X135861649Y-94152906D01*
X135861645Y-94152913D01*
X135811403Y-94287620D01*
X135811401Y-94287627D01*
X135805000Y-94347155D01*
X135805000Y-94995000D01*
X136721988Y-94995000D01*
X136689075Y-95052007D01*
X136655000Y-95179174D01*
X136655000Y-95310826D01*
X136689075Y-95437993D01*
X136721988Y-95495000D01*
X135805000Y-95495000D01*
X135805000Y-96142844D01*
X135811401Y-96202372D01*
X135811403Y-96202379D01*
X135861645Y-96337086D01*
X135861649Y-96337093D01*
X135947809Y-96452187D01*
X135947812Y-96452190D01*
X136062906Y-96538350D01*
X136062913Y-96538354D01*
X136194470Y-96587422D01*
X136250404Y-96629293D01*
X136274821Y-96694758D01*
X136259969Y-96763031D01*
X136238819Y-96791285D01*
X136124889Y-96905215D01*
X135999951Y-97077179D01*
X135903444Y-97266585D01*
X135837753Y-97468760D01*
X135814990Y-97612482D01*
X135804500Y-97678713D01*
X131847298Y-97678713D01*
X131913532Y-97612479D01*
X131914861Y-97610488D01*
X131918563Y-97604951D01*
X131918563Y-97604950D01*
X131992925Y-97493659D01*
X131992925Y-97493658D01*
X131992929Y-97493653D01*
X132047619Y-97361620D01*
X132066484Y-97266782D01*
X132075500Y-97221457D01*
X132075500Y-97078542D01*
X132047620Y-96938385D01*
X132047619Y-96938384D01*
X132047619Y-96938380D01*
X131992929Y-96806347D01*
X131992928Y-96806346D01*
X131992925Y-96806340D01*
X131913532Y-96687521D01*
X131913529Y-96687517D01*
X131812482Y-96586470D01*
X131812478Y-96586467D01*
X131693659Y-96507074D01*
X131693650Y-96507069D01*
X131561620Y-96452381D01*
X131561614Y-96452379D01*
X131421457Y-96424500D01*
X131421455Y-96424500D01*
X131278545Y-96424500D01*
X131278543Y-96424500D01*
X131138385Y-96452379D01*
X131138379Y-96452381D01*
X131006349Y-96507069D01*
X131006340Y-96507074D01*
X130887521Y-96586467D01*
X130887517Y-96586470D01*
X130786470Y-96687517D01*
X130786467Y-96687521D01*
X130707074Y-96806340D01*
X130707069Y-96806349D01*
X130652381Y-96938379D01*
X130652379Y-96938385D01*
X130624500Y-97078542D01*
X130624500Y-97078545D01*
X130624500Y-97221455D01*
X130624500Y-97221457D01*
X130624499Y-97221457D01*
X128575500Y-97221457D01*
X128575500Y-97078542D01*
X128547620Y-96938385D01*
X128547619Y-96938384D01*
X128547619Y-96938380D01*
X128492929Y-96806347D01*
X128492928Y-96806346D01*
X128492925Y-96806340D01*
X128413532Y-96687521D01*
X128413529Y-96687517D01*
X128312482Y-96586470D01*
X128312478Y-96586467D01*
X128193659Y-96507074D01*
X128193650Y-96507069D01*
X128061620Y-96452381D01*
X128061614Y-96452379D01*
X127921457Y-96424500D01*
X127921455Y-96424500D01*
X127778545Y-96424500D01*
X127778543Y-96424500D01*
X127638385Y-96452379D01*
X127638379Y-96452381D01*
X127506349Y-96507069D01*
X127506340Y-96507074D01*
X127387521Y-96586467D01*
X127387517Y-96586470D01*
X127286470Y-96687517D01*
X127286467Y-96687521D01*
X127207074Y-96806340D01*
X127207069Y-96806349D01*
X127152381Y-96938379D01*
X127152379Y-96938385D01*
X127124500Y-97078542D01*
X127124500Y-97078545D01*
X127124500Y-97221455D01*
X127124500Y-97221457D01*
X127124499Y-97221457D01*
X126230500Y-97221457D01*
X126230500Y-88033713D01*
X129564500Y-88033713D01*
X129564500Y-88246286D01*
X129597753Y-88456239D01*
X129663444Y-88658414D01*
X129759951Y-88847820D01*
X129884890Y-89019786D01*
X130035213Y-89170109D01*
X130207179Y-89295048D01*
X130207181Y-89295049D01*
X130207184Y-89295051D01*
X130396588Y-89391557D01*
X130598757Y-89457246D01*
X130808713Y-89490500D01*
X130808714Y-89490500D01*
X131021286Y-89490500D01*
X131021287Y-89490500D01*
X131231243Y-89457246D01*
X131433412Y-89391557D01*
X131622816Y-89295051D01*
X131794792Y-89170104D01*
X131908329Y-89056566D01*
X131969648Y-89023084D01*
X132039340Y-89028068D01*
X132095274Y-89069939D01*
X132112189Y-89100917D01*
X132161202Y-89232328D01*
X132161206Y-89232335D01*
X132247452Y-89347544D01*
X132247455Y-89347547D01*
X132362664Y-89433793D01*
X132362671Y-89433797D01*
X132497517Y-89484091D01*
X132497516Y-89484091D01*
X132504444Y-89484835D01*
X132557127Y-89490500D01*
X134352872Y-89490499D01*
X134412483Y-89484091D01*
X134547331Y-89433796D01*
X134662546Y-89347546D01*
X134748796Y-89232331D01*
X134799091Y-89097483D01*
X134805500Y-89037873D01*
X134805499Y-87242128D01*
X134799091Y-87182517D01*
X134797810Y-87179083D01*
X134748797Y-87047671D01*
X134748793Y-87047664D01*
X134662547Y-86932455D01*
X134662544Y-86932452D01*
X134547335Y-86846206D01*
X134547328Y-86846202D01*
X134412482Y-86795908D01*
X134412483Y-86795908D01*
X134352883Y-86789501D01*
X134352881Y-86789500D01*
X134352873Y-86789500D01*
X134352864Y-86789500D01*
X132557129Y-86789500D01*
X132557123Y-86789501D01*
X132497516Y-86795908D01*
X132362671Y-86846202D01*
X132362664Y-86846206D01*
X132247455Y-86932452D01*
X132247452Y-86932455D01*
X132161206Y-87047664D01*
X132161203Y-87047669D01*
X132112189Y-87179083D01*
X132070317Y-87235016D01*
X132004853Y-87259433D01*
X131936580Y-87244581D01*
X131908326Y-87223430D01*
X131794786Y-87109890D01*
X131622820Y-86984951D01*
X131433414Y-86888444D01*
X131433413Y-86888443D01*
X131433412Y-86888443D01*
X131231243Y-86822754D01*
X131231241Y-86822753D01*
X131231240Y-86822753D01*
X131069957Y-86797208D01*
X131021287Y-86789500D01*
X130808713Y-86789500D01*
X130760042Y-86797208D01*
X130598760Y-86822753D01*
X130396585Y-86888444D01*
X130207179Y-86984951D01*
X130035213Y-87109890D01*
X129884890Y-87260213D01*
X129759951Y-87432179D01*
X129663444Y-87621585D01*
X129597753Y-87823760D01*
X129564500Y-88033713D01*
X126230500Y-88033713D01*
X126230500Y-86156457D01*
X139199499Y-86156457D01*
X139227379Y-86296614D01*
X139227381Y-86296620D01*
X139282069Y-86428650D01*
X139282074Y-86428659D01*
X139361467Y-86547478D01*
X139361470Y-86547482D01*
X139462517Y-86648529D01*
X139462521Y-86648532D01*
X139581340Y-86727925D01*
X139581346Y-86727928D01*
X139581347Y-86727929D01*
X139713380Y-86782619D01*
X139713384Y-86782619D01*
X139713385Y-86782620D01*
X139853542Y-86810500D01*
X139853545Y-86810500D01*
X139996457Y-86810500D01*
X140102027Y-86789500D01*
X140136620Y-86782619D01*
X140268653Y-86727929D01*
X140387479Y-86648532D01*
X140488532Y-86547479D01*
X140567929Y-86428653D01*
X140622619Y-86296620D01*
X140650500Y-86156455D01*
X140650500Y-86013545D01*
X140650500Y-86013542D01*
X140622620Y-85873385D01*
X140622619Y-85873384D01*
X140622619Y-85873380D01*
X140567929Y-85741347D01*
X140567928Y-85741346D01*
X140567925Y-85741340D01*
X140488532Y-85622521D01*
X140488529Y-85622517D01*
X140387482Y-85521470D01*
X140387478Y-85521467D01*
X140268659Y-85442074D01*
X140268650Y-85442069D01*
X140136620Y-85387381D01*
X140136614Y-85387379D01*
X139996457Y-85359500D01*
X139996455Y-85359500D01*
X139853545Y-85359500D01*
X139853543Y-85359500D01*
X139713385Y-85387379D01*
X139713379Y-85387381D01*
X139581349Y-85442069D01*
X139581340Y-85442074D01*
X139462521Y-85521467D01*
X139462517Y-85521470D01*
X139361470Y-85622517D01*
X139361467Y-85622521D01*
X139282074Y-85741340D01*
X139282069Y-85741349D01*
X139227381Y-85873379D01*
X139227379Y-85873385D01*
X139199500Y-86013542D01*
X139199500Y-86013545D01*
X139199500Y-86156455D01*
X139199500Y-86156457D01*
X139199499Y-86156457D01*
X126230500Y-86156457D01*
X126230500Y-85054066D01*
X126230765Y-85045956D01*
X126234819Y-84984108D01*
X126247075Y-84797102D01*
X126249190Y-84781048D01*
X126297045Y-84540462D01*
X126301243Y-84524797D01*
X126344449Y-84397517D01*
X126380093Y-84292512D01*
X126386291Y-84277547D01*
X126494790Y-84057533D01*
X126502893Y-84043498D01*
X126639182Y-83839527D01*
X126649039Y-83826681D01*
X126810786Y-83642244D01*
X126822244Y-83630786D01*
X127006681Y-83469039D01*
X127019527Y-83459182D01*
X127223498Y-83322893D01*
X127237533Y-83314790D01*
X127457547Y-83206291D01*
X127472512Y-83200093D01*
X127699653Y-83122989D01*
X127704797Y-83121243D01*
X127720464Y-83117045D01*
X127730383Y-83115072D01*
X127961048Y-83069190D01*
X127977102Y-83067075D01*
X128225957Y-83050765D01*
X128234067Y-83050500D01*
X128295892Y-83050500D01*
X130347643Y-83050500D01*
X130414682Y-83070185D01*
G37*
%TD.AperFunction*%
%TD*%
M02*
