M48
; DRILL file {KiCad 9.0.0-rc3-b7b28e555e~182~ubuntu24.04.1} date 2025-02-14T00:47:15-0500
; FORMAT={-:-/ absolute / metric / decimal}
; #@! TF.CreationDate,2025-02-14T00:47:15-05:00
; #@! TF.GenerationSoftware,Kicad,Pcbnew,9.0.0-rc3-b7b28e555e~182~ubuntu24.04.1
; #@! TF.FileFunction,Plated,1,4,PTH
FMAT,2
METRIC
; #@! TA.AperFunction,Plated,PTH,ViaDrill
T1C0.300
; #@! TA.AperFunction,Plated,PTH,ComponentDrill
T2C1.000
%
G90
G05
T1
X126.9Y-85.475
X126.9Y-100.05
X127.49Y-96.5
X127.85Y-97.15
X127.875Y-84.175
X128.22Y-96.5
X128.71Y-91.41
X128.74Y-88.32
X128.8Y-94.0
X130.4Y-100.075
X131.04Y-96.5
X131.09Y-101.49
X131.35Y-97.15
X131.51Y-94.0
X131.7Y-96.5
X134.71Y-105.23
X136.075Y-84.1
X136.075Y-86.1
X136.39Y-89.47
X139.34Y-105.4
X139.75Y-88.68
X139.9Y-84.125
X139.925Y-86.085
X142.38Y-84.55
X142.81Y-103.27
X142.98Y-84.86
X143.81Y-104.27
X144.18Y-84.86
X144.45Y-87.66
X144.45Y-88.8
X144.454Y-86.89
X144.78Y-84.55
X144.85Y-103.35
X144.87Y-105.35
X145.38Y-84.86
X145.98Y-84.55
X146.58Y-84.86
X146.63Y-103.67
X146.64Y-105.37
X147.89Y-103.79
X147.91Y-105.31
X149.37Y-102.89
X150.26Y-103.84
X150.39Y-105.48
X151.76Y-104.08
X151.76Y-105.58
X152.0Y-89.2
X152.07Y-85.91
X152.14Y-92.39
X153.07Y-104.05
X153.07Y-105.58
X156.22Y-89.3
X156.22Y-92.42
X156.24Y-85.91
X157.4Y-100.82
X157.62Y-103.49
X157.65Y-105.48
X159.71Y-100.72
X159.75Y-85.91
X159.76Y-103.4
X159.78Y-89.28
X159.83Y-105.58
X159.87Y-92.44
T2
X128.265Y-107.945
X128.265Y-110.485
X130.805Y-107.945
X130.805Y-110.485
X130.915Y-84.54
X130.915Y-88.14
X133.455Y-84.54
X133.455Y-88.14
X137.155Y-95.245
X137.155Y-97.785
X137.155Y-107.945
X137.155Y-110.485
X139.695Y-95.245
X139.695Y-97.785
X139.695Y-107.945
X139.695Y-110.485
X142.235Y-95.245
X142.235Y-97.785
X142.235Y-107.945
X142.235Y-110.485
X144.775Y-95.245
X144.775Y-97.785
X144.775Y-107.945
X144.775Y-110.485
X147.315Y-95.245
X147.315Y-97.785
X147.315Y-107.945
X147.315Y-110.485
X149.855Y-95.245
X149.855Y-97.785
X149.855Y-107.945
X149.855Y-110.485
X152.395Y-95.245
X152.395Y-97.785
X152.395Y-107.945
X152.395Y-110.485
X154.935Y-95.245
X154.935Y-97.785
X154.935Y-107.945
X154.935Y-110.485
X157.475Y-95.245
X157.475Y-97.785
X157.475Y-107.945
X157.475Y-110.485
X160.015Y-95.245
X160.015Y-97.785
X160.015Y-107.945
X160.015Y-110.485
M30
