%TF.GenerationSoftware,KiCad,Pcbnew,9.0.0-rc3-b7b28e555e~182~ubuntu24.04.1*%
%TF.CreationDate,2025-02-14T00:47:14-05:00*%
%TF.ProjectId,SharpBreakout,53686172-7042-4726-9561-6b6f75742e6b,rev?*%
%TF.SameCoordinates,Original*%
%TF.FileFunction,Legend,Top*%
%TF.FilePolarity,Positive*%
%FSLAX46Y46*%
G04 Gerber Fmt 4.6, Leading zero omitted, Abs format (unit mm)*
G04 Created by KiCad (PCBNEW 9.0.0-rc3-b7b28e555e~182~ubuntu24.04.1) date 2025-02-14 00:47:14*
%MOMM*%
%LPD*%
G01*
G04 APERTURE LIST*
%ADD10C,0.120000*%
%ADD11C,0.100000*%
G04 APERTURE END LIST*
D10*
%TO.C,C1*%
X138161252Y-83365000D02*
X137638748Y-83365000D01*
X138161252Y-84835000D02*
X137638748Y-84835000D01*
%TO.C,C5*%
X131611252Y-98265000D02*
X131088748Y-98265000D01*
X131611252Y-99735000D02*
X131088748Y-99735000D01*
%TO.C,C3*%
X128111252Y-98265000D02*
X127588748Y-98265000D01*
X128111252Y-99735000D02*
X127588748Y-99735000D01*
%TO.C,C4*%
X127588748Y-93265000D02*
X128111252Y-93265000D01*
X127588748Y-94735000D02*
X128111252Y-94735000D01*
%TO.C,J6*%
X129585000Y-86810000D02*
X129585000Y-89470000D01*
X132185000Y-86810000D02*
X129585000Y-86810000D01*
X132185000Y-86810000D02*
X132185000Y-89470000D01*
X132185000Y-89470000D02*
X129585000Y-89470000D01*
X133455000Y-86810000D02*
X134785000Y-86810000D01*
X134785000Y-86810000D02*
X134785000Y-88140000D01*
%TO.C,J2*%
X129585000Y-83210000D02*
X129585000Y-85870000D01*
X132185000Y-83210000D02*
X129585000Y-83210000D01*
X132185000Y-83210000D02*
X132185000Y-85870000D01*
X132185000Y-85870000D02*
X129585000Y-85870000D01*
X133455000Y-83210000D02*
X134785000Y-83210000D01*
X134785000Y-83210000D02*
X134785000Y-84540000D01*
D11*
%TO.C,J1*%
X140805000Y-86415000D02*
X140805000Y-84840000D01*
X141580000Y-86415000D02*
X140805000Y-86415000D01*
X147980000Y-86415000D02*
X148755000Y-86415000D01*
X148755000Y-86415000D02*
X148755000Y-84840000D01*
D10*
%TO.C,C6*%
X131088748Y-93265000D02*
X131611252Y-93265000D01*
X131088748Y-94735000D02*
X131611252Y-94735000D01*
%TO.C,U2*%
X130640000Y-95340000D02*
X132050000Y-95340000D01*
X130650000Y-97660000D02*
X132050000Y-97660000D01*
X130270000Y-95390000D02*
X130030000Y-95060000D01*
X130510000Y-95060000D01*
X130270000Y-95390000D01*
G36*
X130270000Y-95390000D02*
G01*
X130030000Y-95060000D01*
X130510000Y-95060000D01*
X130270000Y-95390000D01*
G37*
%TO.C,U1*%
X127140000Y-95340000D02*
X128550000Y-95340000D01*
X127150000Y-97660000D02*
X128550000Y-97660000D01*
X126770000Y-95390000D02*
X126530000Y-95060000D01*
X127010000Y-95060000D01*
X126770000Y-95390000D01*
G36*
X126770000Y-95390000D02*
G01*
X126530000Y-95060000D01*
X127010000Y-95060000D01*
X126770000Y-95390000D01*
G37*
%TO.C,C2*%
X138161252Y-85365000D02*
X137638748Y-85365000D01*
X138161252Y-86835000D02*
X137638748Y-86835000D01*
%TD*%
M02*
