%TF.GenerationSoftware,KiCad,Pcbnew,9.0.0-rc3-b7b28e555e~182~ubuntu24.04.1*%
%TF.CreationDate,2025-02-14T00:47:14-05:00*%
%TF.ProjectId,SharpBreakout,53686172-7042-4726-9561-6b6f75742e6b,rev?*%
%TF.SameCoordinates,Original*%
%TF.FileFunction,Soldermask,Bot*%
%TF.FilePolarity,Negative*%
%FSLAX46Y46*%
G04 Gerber Fmt 4.6, Leading zero omitted, Abs format (unit mm)*
G04 Created by KiCad (PCBNEW 9.0.0-rc3-b7b28e555e~182~ubuntu24.04.1) date 2025-02-14 00:47:14*
%MOMM*%
%LPD*%
G01*
G04 APERTURE LIST*
%ADD10R,1.700000X1.700000*%
%ADD11O,1.700000X1.700000*%
G04 APERTURE END LIST*
D10*
%TO.C,J6*%
X133455000Y-88140000D03*
D11*
X130915000Y-88140000D03*
%TD*%
D10*
%TO.C,J2*%
X133455000Y-84540000D03*
D11*
X130915000Y-84540000D03*
%TD*%
D10*
%TO.C,J3*%
X137155000Y-95245000D03*
D11*
X137155000Y-97785000D03*
X139695000Y-95245000D03*
X139695000Y-97785000D03*
X142235000Y-95245000D03*
X142235000Y-97785000D03*
X144775000Y-95245000D03*
X144775000Y-97785000D03*
X147315000Y-95245000D03*
X147315000Y-97785000D03*
X149855000Y-95245000D03*
X149855000Y-97785000D03*
X152395000Y-95245000D03*
X152395000Y-97785000D03*
X154935000Y-95245000D03*
X154935000Y-97785000D03*
X157475000Y-95245000D03*
X157475000Y-97785000D03*
X160015000Y-95245000D03*
X160015000Y-97785000D03*
%TD*%
D10*
%TO.C,J5*%
X137155000Y-107945000D03*
D11*
X137155000Y-110485000D03*
X139695000Y-107945000D03*
X139695000Y-110485000D03*
X142235000Y-107945000D03*
X142235000Y-110485000D03*
X144775000Y-107945000D03*
X144775000Y-110485000D03*
X147315000Y-107945000D03*
X147315000Y-110485000D03*
X149855000Y-107945000D03*
X149855000Y-110485000D03*
X152395000Y-107945000D03*
X152395000Y-110485000D03*
X154935000Y-107945000D03*
X154935000Y-110485000D03*
X157475000Y-107945000D03*
X157475000Y-110485000D03*
X160015000Y-107945000D03*
X160015000Y-110485000D03*
%TD*%
D10*
%TO.C,J4*%
X128265000Y-107945000D03*
D11*
X128265000Y-110485000D03*
X130805000Y-107945000D03*
X130805000Y-110485000D03*
%TD*%
M02*
