%TF.GenerationSoftware,KiCad,Pcbnew,9.0.0-rc3-b7b28e555e~182~ubuntu24.04.1*%
%TF.CreationDate,2025-02-14T00:47:13-05:00*%
%TF.ProjectId,SharpBreakout,53686172-7042-4726-9561-6b6f75742e6b,rev?*%
%TF.SameCoordinates,Original*%
%TF.FileFunction,Copper,L1,Top*%
%TF.FilePolarity,Positive*%
%FSLAX46Y46*%
G04 Gerber Fmt 4.6, Leading zero omitted, Abs format (unit mm)*
G04 Created by KiCad (PCBNEW 9.0.0-rc3-b7b28e555e~182~ubuntu24.04.1) date 2025-02-14 00:47:13*
%MOMM*%
%LPD*%
G01*
G04 APERTURE LIST*
G04 Aperture macros list*
%AMRoundRect*
0 Rectangle with rounded corners*
0 $1 Rounding radius*
0 $2 $3 $4 $5 $6 $7 $8 $9 X,Y pos of 4 corners*
0 Add a 4 corners polygon primitive as box body*
4,1,4,$2,$3,$4,$5,$6,$7,$8,$9,$2,$3,0*
0 Add four circle primitives for the rounded corners*
1,1,$1+$1,$2,$3*
1,1,$1+$1,$4,$5*
1,1,$1+$1,$6,$7*
1,1,$1+$1,$8,$9*
0 Add four rect primitives between the rounded corners*
20,1,$1+$1,$2,$3,$4,$5,0*
20,1,$1+$1,$4,$5,$6,$7,0*
20,1,$1+$1,$6,$7,$8,$9,0*
20,1,$1+$1,$8,$9,$2,$3,0*%
G04 Aperture macros list end*
%TA.AperFunction,SMDPad,CuDef*%
%ADD10RoundRect,0.250000X0.250000X0.475000X-0.250000X0.475000X-0.250000X-0.475000X0.250000X-0.475000X0*%
%TD*%
%TA.AperFunction,SMDPad,CuDef*%
%ADD11RoundRect,0.250000X-0.250000X-0.475000X0.250000X-0.475000X0.250000X0.475000X-0.250000X0.475000X0*%
%TD*%
%TA.AperFunction,ComponentPad*%
%ADD12R,1.700000X1.700000*%
%TD*%
%TA.AperFunction,ComponentPad*%
%ADD13O,1.700000X1.700000*%
%TD*%
%TA.AperFunction,SMDPad,CuDef*%
%ADD14RoundRect,0.062500X0.062500X0.297500X-0.062500X0.297500X-0.062500X-0.297500X0.062500X-0.297500X0*%
%TD*%
%TA.AperFunction,SMDPad,CuDef*%
%ADD15RoundRect,0.062500X0.062500X0.197500X-0.062500X0.197500X-0.062500X-0.197500X0.062500X-0.197500X0*%
%TD*%
%TA.AperFunction,SMDPad,CuDef*%
%ADD16RoundRect,0.075000X0.075000X0.350000X-0.075000X0.350000X-0.075000X-0.350000X0.075000X-0.350000X0*%
%TD*%
%TA.AperFunction,SMDPad,CuDef*%
%ADD17RoundRect,0.100000X-0.225000X-0.100000X0.225000X-0.100000X0.225000X0.100000X-0.225000X0.100000X0*%
%TD*%
%TA.AperFunction,ViaPad*%
%ADD18C,0.450000*%
%TD*%
%TA.AperFunction,ViaPad*%
%ADD19C,0.600000*%
%TD*%
%TA.AperFunction,Conductor*%
%ADD20C,0.200000*%
%TD*%
G04 APERTURE END LIST*
D10*
%TO.P,C1,1*%
%TO.N,/VDD2*%
X138850000Y-84100000D03*
%TO.P,C1,2*%
%TO.N,GND*%
X136950000Y-84100000D03*
%TD*%
%TO.P,C5,1*%
%TO.N,VDDIO*%
X132300000Y-99000000D03*
%TO.P,C5,2*%
%TO.N,GND*%
X130400000Y-99000000D03*
%TD*%
%TO.P,C3,1*%
%TO.N,VBUS*%
X128800000Y-99000000D03*
%TO.P,C3,2*%
%TO.N,GND*%
X126900000Y-99000000D03*
%TD*%
D11*
%TO.P,C4,1*%
%TO.N,Net-(J2-Pin_2)*%
X126900000Y-94000000D03*
%TO.P,C4,2*%
%TO.N,GND*%
X128800000Y-94000000D03*
%TD*%
D12*
%TO.P,J6,1,Pin_1*%
%TO.N,/VDD1*%
X133455000Y-88140000D03*
D13*
%TO.P,J6,2,Pin_2*%
%TO.N,Net-(J6-Pin_2)*%
X130915000Y-88140000D03*
%TD*%
D12*
%TO.P,J2,1,Pin_1*%
%TO.N,/VDD2*%
X133455000Y-84540000D03*
D13*
%TO.P,J2,2,Pin_2*%
%TO.N,Net-(J2-Pin_2)*%
X130915000Y-84540000D03*
%TD*%
D14*
%TO.P,J1,1,Pin_1*%
%TO.N,unconnected-(J1-Pin_1-Pad1)*%
X147780000Y-83925000D03*
D15*
%TO.P,J1,2,Pin_2*%
%TO.N,/VB*%
X147480000Y-86355000D03*
D14*
%TO.P,J1,3,Pin_3*%
%TO.N,unconnected-(J1-Pin_3-Pad3)*%
X147180000Y-83925000D03*
D15*
%TO.P,J1,4,Pin_4*%
%TO.N,/B1*%
X146880000Y-86355000D03*
D14*
%TO.P,J1,5,Pin_5*%
%TO.N,/B0*%
X146580000Y-83925000D03*
D15*
%TO.P,J1,6,Pin_6*%
%TO.N,/G1*%
X146280000Y-86355000D03*
D14*
%TO.P,J1,7,Pin_7*%
%TO.N,/G0*%
X145980000Y-83925000D03*
D15*
%TO.P,J1,8,Pin_8*%
%TO.N,/R1*%
X145680000Y-86355000D03*
D14*
%TO.P,J1,9,Pin_9*%
%TO.N,/R0*%
X145380000Y-83925000D03*
D15*
%TO.P,J1,10,Pin_10*%
%TO.N,/BCK*%
X145080000Y-86355000D03*
D14*
%TO.P,J1,11,Pin_11*%
%TO.N,/BSP*%
X144780000Y-83925000D03*
D15*
%TO.P,J1,12,Pin_12*%
%TO.N,GND*%
X144480000Y-86355000D03*
D14*
%TO.P,J1,13,Pin_13*%
%TO.N,/VDD1*%
X144180000Y-83925000D03*
D15*
%TO.P,J1,14,Pin_14*%
%TO.N,/VA*%
X143880000Y-86355000D03*
D14*
%TO.P,J1,15,Pin_15*%
%TO.N,/VB*%
X143580000Y-83925000D03*
D15*
%TO.P,J1,16,Pin_16*%
%TO.N,/INTB*%
X143280000Y-86355000D03*
D14*
%TO.P,J1,17,Pin_17*%
%TO.N,/GEN*%
X142980000Y-83925000D03*
D15*
%TO.P,J1,18,Pin_18*%
%TO.N,/GCK*%
X142680000Y-86355000D03*
D14*
%TO.P,J1,19,Pin_19*%
%TO.N,/GSP*%
X142380000Y-83925000D03*
D15*
%TO.P,J1,20,Pin_20*%
%TO.N,unconnected-(J1-Pin_20-Pad20)*%
X142080000Y-86355000D03*
D14*
%TO.P,J1,21,Pin_21*%
%TO.N,/VDD2*%
X141780000Y-83925000D03*
D16*
%TO.P,J1,MP,MountPin*%
%TO.N,GND*%
X148490000Y-83990000D03*
X141070000Y-83990000D03*
%TD*%
D11*
%TO.P,C6,1*%
%TO.N,Net-(J6-Pin_2)*%
X130400000Y-94000000D03*
%TO.P,C6,2*%
%TO.N,GND*%
X132300000Y-94000000D03*
%TD*%
D17*
%TO.P,U2,1,OUT*%
%TO.N,Net-(J6-Pin_2)*%
X130400000Y-95850000D03*
%TO.P,U2,2,GND*%
%TO.N,GND*%
X130400000Y-96500000D03*
%TO.P,U2,3,ON*%
%TO.N,/VDDIO_EN*%
X130400000Y-97150000D03*
%TO.P,U2,4,IN*%
%TO.N,VDDIO*%
X132300000Y-97150000D03*
%TO.P,U2,5,GND*%
%TO.N,GND*%
X132300000Y-96500000D03*
%TO.P,U2,6,NC*%
%TO.N,unconnected-(U2-NC-Pad6)*%
X132300000Y-95850000D03*
%TD*%
%TO.P,U1,1,OUT*%
%TO.N,Net-(J2-Pin_2)*%
X126900000Y-95850000D03*
%TO.P,U1,2,GND*%
%TO.N,GND*%
X126900000Y-96500000D03*
%TO.P,U1,3,ON*%
%TO.N,/VBUS_EN*%
X126900000Y-97150000D03*
%TO.P,U1,4,IN*%
%TO.N,VBUS*%
X128800000Y-97150000D03*
%TO.P,U1,5,GND*%
%TO.N,GND*%
X128800000Y-96500000D03*
%TO.P,U1,6,NC*%
%TO.N,unconnected-(U1-NC-Pad6)*%
X128800000Y-95850000D03*
%TD*%
D10*
%TO.P,C2,1*%
%TO.N,/VDD1*%
X138850000Y-86100000D03*
%TO.P,C2,2*%
%TO.N,GND*%
X136950000Y-86100000D03*
%TD*%
D12*
%TO.P,J3,1,Pin_1*%
%TO.N,GND*%
X137155000Y-95245000D03*
D13*
%TO.P,J3,2,Pin_2*%
%TO.N,unconnected-(J3-Pin_2-Pad2)*%
X137155000Y-97785000D03*
%TO.P,J3,3,Pin_3*%
%TO.N,/BCK*%
X139695000Y-95245000D03*
%TO.P,J3,4,Pin_4*%
%TO.N,/R1*%
X139695000Y-97785000D03*
%TO.P,J3,5,Pin_5*%
%TO.N,/G1*%
X142235000Y-95245000D03*
%TO.P,J3,6,Pin_6*%
%TO.N,/B1*%
X142235000Y-97785000D03*
%TO.P,J3,7,Pin_7*%
%TO.N,unconnected-(J3-Pin_7-Pad7)*%
X144775000Y-95245000D03*
%TO.P,J3,8,Pin_8*%
%TO.N,/VB*%
X144775000Y-97785000D03*
%TO.P,J3,9,Pin_9*%
%TO.N,unconnected-(J3-Pin_9-Pad9)*%
X147315000Y-95245000D03*
%TO.P,J3,10,Pin_10*%
%TO.N,unconnected-(J3-Pin_10-Pad10)*%
X147315000Y-97785000D03*
%TO.P,J3,11,Pin_11*%
%TO.N,unconnected-(J3-Pin_11-Pad11)*%
X149855000Y-95245000D03*
%TO.P,J3,12,Pin_12*%
%TO.N,unconnected-(J3-Pin_12-Pad12)*%
X149855000Y-97785000D03*
%TO.P,J3,13,Pin_13*%
%TO.N,unconnected-(J3-Pin_13-Pad13)*%
X152395000Y-95245000D03*
%TO.P,J3,14,Pin_14*%
%TO.N,unconnected-(J3-Pin_14-Pad14)*%
X152395000Y-97785000D03*
%TO.P,J3,15,Pin_15*%
%TO.N,unconnected-(J3-Pin_15-Pad15)*%
X154935000Y-95245000D03*
%TO.P,J3,16,Pin_16*%
%TO.N,unconnected-(J3-Pin_16-Pad16)*%
X154935000Y-97785000D03*
%TO.P,J3,17,Pin_17*%
%TO.N,unconnected-(J3-Pin_17-Pad17)*%
X157475000Y-95245000D03*
%TO.P,J3,18,Pin_18*%
%TO.N,unconnected-(J3-Pin_18-Pad18)*%
X157475000Y-97785000D03*
%TO.P,J3,19,Pin_19*%
%TO.N,unconnected-(J3-Pin_19-Pad19)*%
X160015000Y-95245000D03*
%TO.P,J3,20,Pin_20*%
%TO.N,GND*%
X160015000Y-97785000D03*
%TD*%
D12*
%TO.P,J5,1,Pin_1*%
%TO.N,GND*%
X137155000Y-107945000D03*
D13*
%TO.P,J5,2,Pin_2*%
%TO.N,VDDIO*%
X137155000Y-110485000D03*
%TO.P,J5,3,Pin_3*%
%TO.N,unconnected-(J5-Pin_3-Pad3)*%
X139695000Y-107945000D03*
%TO.P,J5,4,Pin_4*%
%TO.N,unconnected-(J5-Pin_4-Pad4)*%
X139695000Y-110485000D03*
%TO.P,J5,5,Pin_5*%
%TO.N,unconnected-(J5-Pin_5-Pad5)*%
X142235000Y-107945000D03*
%TO.P,J5,6,Pin_6*%
%TO.N,unconnected-(J5-Pin_6-Pad6)*%
X142235000Y-110485000D03*
%TO.P,J5,7,Pin_7*%
%TO.N,/VDDIO_EN*%
X144775000Y-107945000D03*
%TO.P,J5,8,Pin_8*%
%TO.N,/VBUS_EN*%
X144775000Y-110485000D03*
%TO.P,J5,9,Pin_9*%
%TO.N,/INTB*%
X147315000Y-107945000D03*
%TO.P,J5,10,Pin_10*%
%TO.N,/GCK*%
X147315000Y-110485000D03*
%TO.P,J5,11,Pin_11*%
%TO.N,/GSP*%
X149855000Y-107945000D03*
%TO.P,J5,12,Pin_12*%
%TO.N,/VA*%
X149855000Y-110485000D03*
%TO.P,J5,13,Pin_13*%
%TO.N,/BSP*%
X152395000Y-107945000D03*
%TO.P,J5,14,Pin_14*%
%TO.N,/GEN*%
X152395000Y-110485000D03*
%TO.P,J5,15,Pin_15*%
%TO.N,/G0*%
X154935000Y-107945000D03*
%TO.P,J5,16,Pin_16*%
%TO.N,/R0*%
X154935000Y-110485000D03*
%TO.P,J5,17,Pin_17*%
%TO.N,unconnected-(J5-Pin_17-Pad17)*%
X157475000Y-107945000D03*
%TO.P,J5,18,Pin_18*%
%TO.N,/B0*%
X157475000Y-110485000D03*
%TO.P,J5,19,Pin_19*%
%TO.N,unconnected-(J5-Pin_19-Pad19)*%
X160015000Y-107945000D03*
%TO.P,J5,20,Pin_20*%
%TO.N,GND*%
X160015000Y-110485000D03*
%TD*%
D12*
%TO.P,J4,1,Pin_1*%
%TO.N,GND*%
X128265000Y-107945000D03*
D13*
%TO.P,J4,2,Pin_2*%
%TO.N,VBUS*%
X128265000Y-110485000D03*
%TO.P,J4,3,Pin_3*%
%TO.N,GND*%
X130805000Y-107945000D03*
%TO.P,J4,4,Pin_4*%
%TO.N,VDDEXT*%
X130805000Y-110485000D03*
%TD*%
D18*
%TO.N,/GSP*%
X142380000Y-84550000D03*
%TO.N,/GEN*%
X142980000Y-84860000D03*
%TO.N,/BSP*%
X144780000Y-84550000D03*
%TO.N,/G0*%
X145980000Y-84550000D03*
%TO.N,/B0*%
X146580000Y-84860000D03*
%TO.N,GND*%
X130400000Y-100075000D03*
X159750000Y-85910000D03*
X143810000Y-104270000D03*
X136390000Y-89470000D03*
D19*
X127875000Y-84175000D03*
D18*
X131700000Y-96500000D03*
X127490000Y-96500000D03*
X149370000Y-102890000D03*
X156240000Y-85910000D03*
X151760000Y-104080000D03*
X159830000Y-105580000D03*
X144450000Y-88800000D03*
X142810000Y-103270000D03*
X134710000Y-105230000D03*
X146630000Y-103670000D03*
X144870000Y-105350000D03*
X150390000Y-105480000D03*
X144850000Y-103350000D03*
X146640000Y-105370000D03*
X144454000Y-86890000D03*
X156220000Y-92420000D03*
X147890000Y-103790000D03*
X128740000Y-88320000D03*
X139750000Y-88680000D03*
X156220000Y-89300000D03*
X157620000Y-103490000D03*
X126900000Y-100050000D03*
X157400000Y-100820000D03*
X128220000Y-96500000D03*
X159780000Y-89280000D03*
D19*
X126900000Y-85475000D03*
D18*
X153070000Y-105580000D03*
X131510000Y-94000000D03*
X152140000Y-92390000D03*
X131090000Y-101490000D03*
X151760000Y-105580000D03*
X128800000Y-94000000D03*
X144450000Y-87660000D03*
X159710000Y-100720000D03*
X153070000Y-104050000D03*
X152070000Y-85910000D03*
X136075000Y-86100000D03*
X131040000Y-96500000D03*
X152000000Y-89200000D03*
X150260000Y-103840000D03*
X159870000Y-92440000D03*
X147910000Y-105310000D03*
X157650000Y-105480000D03*
X139340000Y-105400000D03*
X159760000Y-103400000D03*
X136075000Y-84100000D03*
X128710000Y-91410000D03*
%TO.N,/R0*%
X145380000Y-84860000D03*
%TO.N,/VDD2*%
X139900000Y-84125000D03*
%TO.N,/VDD1*%
X144180000Y-84860000D03*
X139925000Y-86085000D03*
%TO.N,/VBUS_EN*%
X127850000Y-97150000D03*
%TO.N,/VDDIO_EN*%
X131350000Y-97150000D03*
%TD*%
D20*
%TO.N,/VB*%
X143900000Y-85480000D02*
X147100000Y-85480000D01*
X143580000Y-85160000D02*
X143900000Y-85480000D01*
X147480000Y-91560000D02*
X146030000Y-93010000D01*
X147480000Y-85860000D02*
X147480000Y-86355000D01*
X147480000Y-86355000D02*
X147480000Y-91560000D01*
X143580000Y-83925000D02*
X143580000Y-85160000D01*
X146030000Y-93010000D02*
X146030000Y-96530000D01*
X147100000Y-85480000D02*
X147480000Y-85860000D01*
X146030000Y-96530000D02*
X144775000Y-97785000D01*
%TO.N,/GSP*%
X142380000Y-83925000D02*
X142380000Y-84550000D01*
%TO.N,/VA*%
X149855000Y-110485000D02*
X148580000Y-109210000D01*
X148580000Y-109210000D02*
X148580000Y-101480000D01*
X143880000Y-89760000D02*
X143880000Y-86355000D01*
X141160000Y-92480000D02*
X143880000Y-89760000D01*
X134700000Y-93540000D02*
X135760000Y-92480000D01*
X148580000Y-101480000D02*
X147390000Y-100290000D01*
X135760000Y-92480000D02*
X141160000Y-92480000D01*
X147390000Y-100290000D02*
X135310000Y-100290000D01*
X134700000Y-99680000D02*
X134700000Y-93540000D01*
X135310000Y-100290000D02*
X134700000Y-99680000D01*
%TO.N,/GEN*%
X142980000Y-83925000D02*
X142980000Y-84860000D01*
%TO.N,/BCK*%
X140540000Y-93340000D02*
X139695000Y-94185000D01*
X145080000Y-89460000D02*
X141200000Y-93340000D01*
X139695000Y-94185000D02*
X139695000Y-95245000D01*
X145080000Y-86355000D02*
X145080000Y-89460000D01*
X141200000Y-93340000D02*
X140540000Y-93340000D01*
%TO.N,/BSP*%
X144780000Y-83925000D02*
X144780000Y-84550000D01*
%TO.N,/B1*%
X146880000Y-90940000D02*
X146880000Y-86355000D01*
X143480000Y-94340000D02*
X146880000Y-90940000D01*
X142235000Y-97785000D02*
X143480000Y-96540000D01*
X143480000Y-96540000D02*
X143480000Y-94340000D01*
%TO.N,/G0*%
X145980000Y-83925000D02*
X145980000Y-84550000D01*
%TO.N,/B0*%
X146580000Y-83925000D02*
X146580000Y-84860000D01*
%TO.N,/R1*%
X140960000Y-96520000D02*
X139695000Y-97785000D01*
X145680000Y-89690000D02*
X140960000Y-94410000D01*
X145680000Y-86355000D02*
X145680000Y-89690000D01*
X140960000Y-94410000D02*
X140960000Y-96520000D01*
%TO.N,GND*%
X136075000Y-86100000D02*
X136950000Y-86100000D01*
X132300000Y-94000000D02*
X131510000Y-94000000D01*
X136950000Y-84100000D02*
X136075000Y-84100000D01*
X128800000Y-96500000D02*
X128220000Y-96500000D01*
X130400000Y-96500000D02*
X131040000Y-96500000D01*
X132300000Y-96500000D02*
X131700000Y-96500000D01*
X144454000Y-86890000D02*
X144480000Y-86864000D01*
X144480000Y-86864000D02*
X144480000Y-86355000D01*
X126900000Y-100050000D02*
X126890000Y-100040000D01*
X126900000Y-96500000D02*
X127490000Y-96500000D01*
X126890000Y-100040000D02*
X126890000Y-99000000D01*
X130400000Y-100075000D02*
X130400000Y-99000000D01*
X126900000Y-100050000D02*
X126900000Y-99000000D01*
%TO.N,/G1*%
X146280000Y-90030000D02*
X142235000Y-94075000D01*
X142235000Y-94075000D02*
X142235000Y-95245000D01*
X146280000Y-86355000D02*
X146280000Y-90030000D01*
%TO.N,/GCK*%
X142680000Y-89390000D02*
X140660000Y-91410000D01*
X146060000Y-103060000D02*
X146060000Y-109230000D01*
X144280000Y-101280000D02*
X146060000Y-103060000D01*
X133740000Y-100200000D02*
X134820000Y-101280000D01*
X146060000Y-109230000D02*
X147315000Y-110485000D01*
X142680000Y-86355000D02*
X142680000Y-89390000D01*
X133740000Y-93020000D02*
X133740000Y-100200000D01*
X135350000Y-91410000D02*
X133740000Y-93020000D01*
X134820000Y-101280000D02*
X144280000Y-101280000D01*
X140660000Y-91410000D02*
X135350000Y-91410000D01*
%TO.N,/INTB*%
X147315000Y-107945000D02*
X147315000Y-101425000D01*
X135020000Y-100780000D02*
X134210000Y-99970000D01*
X143280000Y-89590000D02*
X143280000Y-86355000D01*
X146670000Y-100780000D02*
X135020000Y-100780000D01*
X135560000Y-91940000D02*
X140930000Y-91940000D01*
X134210000Y-93290000D02*
X135560000Y-91940000D01*
X134210000Y-99970000D02*
X134210000Y-93290000D01*
X140930000Y-91940000D02*
X143280000Y-89590000D01*
X147315000Y-101425000D02*
X146670000Y-100780000D01*
%TO.N,/R0*%
X145380000Y-83925000D02*
X145380000Y-84860000D01*
%TO.N,VBUS*%
X129540000Y-104940000D02*
X129540000Y-109210000D01*
X128800000Y-104200000D02*
X129540000Y-104940000D01*
X128800000Y-99000000D02*
X128800000Y-97150000D01*
X128800000Y-99000000D02*
X128800000Y-104200000D01*
X129540000Y-109210000D02*
X128265000Y-110485000D01*
%TO.N,VDDIO*%
X132300000Y-99000000D02*
X132300000Y-97150000D01*
X134805000Y-110485000D02*
X132300000Y-107980000D01*
X132300000Y-107980000D02*
X132300000Y-99000000D01*
X137155000Y-110485000D02*
X134805000Y-110485000D01*
%TO.N,/VDD2*%
X139900000Y-84125000D02*
X139875000Y-84100000D01*
X139900000Y-84125000D02*
X140874000Y-83151000D01*
X140874000Y-83151000D02*
X141541000Y-83151000D01*
X141780000Y-83390000D02*
X141780000Y-83925000D01*
X139875000Y-84100000D02*
X138850000Y-84100000D01*
X141541000Y-83151000D02*
X141780000Y-83390000D01*
%TO.N,/VDD1*%
X139925000Y-86085000D02*
X139910000Y-86100000D01*
X144180000Y-83925000D02*
X144180000Y-84860000D01*
X139910000Y-86100000D02*
X138850000Y-86100000D01*
%TO.N,Net-(J2-Pin_2)*%
X129200000Y-84540000D02*
X130915000Y-84540000D01*
X126900000Y-94000000D02*
X126900000Y-95850000D01*
X126900000Y-94000000D02*
X126900000Y-86840000D01*
X126900000Y-86840000D02*
X129200000Y-84540000D01*
%TO.N,Net-(J6-Pin_2)*%
X130915000Y-91455000D02*
X130915000Y-88140000D01*
X130400000Y-94000000D02*
X130400000Y-91970000D01*
X130400000Y-94000000D02*
X130400000Y-95850000D01*
X130400000Y-91970000D02*
X130915000Y-91455000D01*
%TO.N,/VBUS_EN*%
X126900000Y-97150000D02*
X127850000Y-97150000D01*
%TO.N,/VDDIO_EN*%
X130400000Y-97150000D02*
X131350000Y-97150000D01*
%TD*%
%TA.AperFunction,Conductor*%
%TO.N,GND*%
G36*
X160064043Y-83050765D02*
G01*
X160312895Y-83067075D01*
X160328953Y-83069190D01*
X160536105Y-83110395D01*
X160569535Y-83117045D01*
X160585202Y-83121243D01*
X160754947Y-83178863D01*
X160817481Y-83200091D01*
X160832458Y-83206294D01*
X161034388Y-83305875D01*
X161052460Y-83314787D01*
X161066508Y-83322897D01*
X161270464Y-83459177D01*
X161283325Y-83469045D01*
X161287038Y-83472302D01*
X161467749Y-83630781D01*
X161479218Y-83642250D01*
X161640951Y-83826671D01*
X161650825Y-83839539D01*
X161787102Y-84043492D01*
X161795212Y-84057539D01*
X161903702Y-84277534D01*
X161909909Y-84292520D01*
X161988756Y-84524797D01*
X161992954Y-84540464D01*
X162040807Y-84781035D01*
X162042925Y-84797116D01*
X162045884Y-84842261D01*
X162058510Y-85034903D01*
X162059235Y-85045956D01*
X162059500Y-85054066D01*
X162059500Y-110525933D01*
X162059235Y-110534043D01*
X162042925Y-110782883D01*
X162040807Y-110798964D01*
X161992954Y-111039535D01*
X161988756Y-111055202D01*
X161909909Y-111287479D01*
X161903702Y-111302465D01*
X161795212Y-111522460D01*
X161787102Y-111536507D01*
X161650825Y-111740460D01*
X161640951Y-111753328D01*
X161479218Y-111937749D01*
X161467749Y-111949218D01*
X161283328Y-112110951D01*
X161270460Y-112120825D01*
X161066507Y-112257102D01*
X161052460Y-112265212D01*
X160832465Y-112373702D01*
X160817479Y-112379909D01*
X160585202Y-112458756D01*
X160569535Y-112462954D01*
X160328964Y-112510807D01*
X160312883Y-112512925D01*
X160064043Y-112529235D01*
X160055933Y-112529500D01*
X128234067Y-112529500D01*
X128225957Y-112529235D01*
X127977116Y-112512925D01*
X127961035Y-112510807D01*
X127720464Y-112462954D01*
X127704797Y-112458756D01*
X127472520Y-112379909D01*
X127457534Y-112373702D01*
X127237539Y-112265212D01*
X127223492Y-112257102D01*
X127019539Y-112120825D01*
X127006671Y-112110951D01*
X126822250Y-111949218D01*
X126810781Y-111937749D01*
X126649048Y-111753328D01*
X126639174Y-111740460D01*
X126636566Y-111736557D01*
X126502897Y-111536507D01*
X126494787Y-111522460D01*
X126489529Y-111511799D01*
X126386294Y-111302458D01*
X126380090Y-111287479D01*
X126301243Y-111055202D01*
X126297045Y-111039535D01*
X126286197Y-110985000D01*
X126249190Y-110798953D01*
X126247075Y-110782895D01*
X126230765Y-110534043D01*
X126230500Y-110525933D01*
X126230500Y-100297815D01*
X126250185Y-100230776D01*
X126302989Y-100185021D01*
X126372147Y-100175077D01*
X126393505Y-100180109D01*
X126497305Y-100214505D01*
X126497309Y-100214506D01*
X126600019Y-100224999D01*
X126649999Y-100224998D01*
X126650000Y-100224998D01*
X126650000Y-99124000D01*
X126669685Y-99056961D01*
X126722489Y-99011206D01*
X126774000Y-99000000D01*
X127026000Y-99000000D01*
X127093039Y-99019685D01*
X127138794Y-99072489D01*
X127150000Y-99124000D01*
X127150000Y-100224999D01*
X127199972Y-100224999D01*
X127199986Y-100224998D01*
X127302697Y-100214505D01*
X127469119Y-100159358D01*
X127469124Y-100159356D01*
X127618345Y-100067315D01*
X127742318Y-99943342D01*
X127744165Y-99940348D01*
X127745969Y-99938724D01*
X127746798Y-99937677D01*
X127746976Y-99937818D01*
X127796110Y-99893621D01*
X127865073Y-99882396D01*
X127929156Y-99910236D01*
X127955243Y-99940341D01*
X127957288Y-99943656D01*
X128081344Y-100067712D01*
X128140596Y-100104258D01*
X128187321Y-100156204D01*
X128199500Y-100209797D01*
X128199500Y-104113330D01*
X128199499Y-104113348D01*
X128199499Y-104279054D01*
X128199498Y-104279054D01*
X128199499Y-104279057D01*
X128240423Y-104431785D01*
X128240424Y-104431786D01*
X128256412Y-104459480D01*
X128256413Y-104459481D01*
X128319475Y-104568709D01*
X128319481Y-104568717D01*
X128438349Y-104687585D01*
X128438355Y-104687590D01*
X128903181Y-105152416D01*
X128936666Y-105213739D01*
X128939500Y-105240097D01*
X128939500Y-106471000D01*
X128919815Y-106538039D01*
X128867011Y-106583794D01*
X128815500Y-106595000D01*
X128515000Y-106595000D01*
X128515000Y-107511988D01*
X128457993Y-107479075D01*
X128330826Y-107445000D01*
X128199174Y-107445000D01*
X128072007Y-107479075D01*
X128015000Y-107511988D01*
X128015000Y-106595000D01*
X127367155Y-106595000D01*
X127307627Y-106601401D01*
X127307620Y-106601403D01*
X127172913Y-106651645D01*
X127172906Y-106651649D01*
X127057812Y-106737809D01*
X127057809Y-106737812D01*
X126971649Y-106852906D01*
X126971645Y-106852913D01*
X126921403Y-106987620D01*
X126921401Y-106987627D01*
X126915000Y-107047155D01*
X126915000Y-107695000D01*
X127831988Y-107695000D01*
X127799075Y-107752007D01*
X127765000Y-107879174D01*
X127765000Y-108010826D01*
X127799075Y-108137993D01*
X127831988Y-108195000D01*
X126915000Y-108195000D01*
X126915000Y-108842844D01*
X126921401Y-108902372D01*
X126921403Y-108902379D01*
X126971645Y-109037086D01*
X126971649Y-109037093D01*
X127057809Y-109152187D01*
X127057812Y-109152190D01*
X127172906Y-109238350D01*
X127172913Y-109238354D01*
X127304470Y-109287422D01*
X127360404Y-109329293D01*
X127384821Y-109394758D01*
X127369969Y-109463031D01*
X127348819Y-109491285D01*
X127234889Y-109605215D01*
X127109951Y-109777179D01*
X127013444Y-109966585D01*
X126947753Y-110168760D01*
X126946291Y-110177993D01*
X126914500Y-110378713D01*
X126914500Y-110591287D01*
X126924534Y-110654644D01*
X126946129Y-110790987D01*
X126947754Y-110801243D01*
X126963396Y-110849385D01*
X127013444Y-111003414D01*
X127109951Y-111192820D01*
X127234890Y-111364786D01*
X127385213Y-111515109D01*
X127557179Y-111640048D01*
X127557181Y-111640049D01*
X127557184Y-111640051D01*
X127746588Y-111736557D01*
X127948757Y-111802246D01*
X128158713Y-111835500D01*
X128158714Y-111835500D01*
X128371286Y-111835500D01*
X128371287Y-111835500D01*
X128581243Y-111802246D01*
X128783412Y-111736557D01*
X128972816Y-111640051D01*
X129018639Y-111606759D01*
X129144786Y-111515109D01*
X129144788Y-111515106D01*
X129144792Y-111515104D01*
X129295104Y-111364792D01*
X129295106Y-111364788D01*
X129295109Y-111364786D01*
X129420048Y-111192820D01*
X129420047Y-111192820D01*
X129420051Y-111192816D01*
X129424514Y-111184054D01*
X129472488Y-111133259D01*
X129540308Y-111116463D01*
X129606444Y-111138999D01*
X129645486Y-111184056D01*
X129649951Y-111192820D01*
X129774890Y-111364786D01*
X129925213Y-111515109D01*
X130097179Y-111640048D01*
X130097181Y-111640049D01*
X130097184Y-111640051D01*
X130286588Y-111736557D01*
X130488757Y-111802246D01*
X130698713Y-111835500D01*
X130698714Y-111835500D01*
X130911286Y-111835500D01*
X130911287Y-111835500D01*
X131121243Y-111802246D01*
X131323412Y-111736557D01*
X131512816Y-111640051D01*
X131558639Y-111606759D01*
X131684786Y-111515109D01*
X131684788Y-111515106D01*
X131684792Y-111515104D01*
X131835104Y-111364792D01*
X131835106Y-111364788D01*
X131835109Y-111364786D01*
X131960048Y-111192820D01*
X131960047Y-111192820D01*
X131960051Y-111192816D01*
X132056557Y-111003412D01*
X132122246Y-110801243D01*
X132155500Y-110591287D01*
X132155500Y-110378713D01*
X132122246Y-110168757D01*
X132056557Y-109966588D01*
X131960051Y-109777184D01*
X131960049Y-109777181D01*
X131960048Y-109777179D01*
X131835109Y-109605213D01*
X131684786Y-109454890D01*
X131512817Y-109329949D01*
X131503504Y-109325204D01*
X131452707Y-109277230D01*
X131435912Y-109209409D01*
X131458449Y-109143274D01*
X131503507Y-109104232D01*
X131512558Y-109099620D01*
X131684459Y-108974727D01*
X131684464Y-108974723D01*
X131834727Y-108824460D01*
X131943170Y-108675200D01*
X131998499Y-108632534D01*
X132068113Y-108626555D01*
X132129908Y-108659160D01*
X132131169Y-108660404D01*
X134320139Y-110849374D01*
X134320149Y-110849385D01*
X134324479Y-110853715D01*
X134324480Y-110853716D01*
X134436284Y-110965520D01*
X134496052Y-111000026D01*
X134523095Y-111015639D01*
X134523097Y-111015641D01*
X134561151Y-111037611D01*
X134573215Y-111044577D01*
X134725943Y-111085501D01*
X134725946Y-111085501D01*
X134891653Y-111085501D01*
X134891669Y-111085500D01*
X135869281Y-111085500D01*
X135936320Y-111105185D01*
X135979765Y-111153205D01*
X135999947Y-111192814D01*
X135999948Y-111192815D01*
X136124890Y-111364786D01*
X136275213Y-111515109D01*
X136447179Y-111640048D01*
X136447181Y-111640049D01*
X136447184Y-111640051D01*
X136636588Y-111736557D01*
X136838757Y-111802246D01*
X137048713Y-111835500D01*
X137048714Y-111835500D01*
X137261286Y-111835500D01*
X137261287Y-111835500D01*
X137471243Y-111802246D01*
X137673412Y-111736557D01*
X137862816Y-111640051D01*
X137908639Y-111606759D01*
X138034786Y-111515109D01*
X138034788Y-111515106D01*
X138034792Y-111515104D01*
X138185104Y-111364792D01*
X138185106Y-111364788D01*
X138185109Y-111364786D01*
X138310048Y-111192820D01*
X138310047Y-111192820D01*
X138310051Y-111192816D01*
X138314514Y-111184054D01*
X138362488Y-111133259D01*
X138430308Y-111116463D01*
X138496444Y-111138999D01*
X138535486Y-111184056D01*
X138539951Y-111192820D01*
X138664890Y-111364786D01*
X138815213Y-111515109D01*
X138987179Y-111640048D01*
X138987181Y-111640049D01*
X138987184Y-111640051D01*
X139176588Y-111736557D01*
X139378757Y-111802246D01*
X139588713Y-111835500D01*
X139588714Y-111835500D01*
X139801286Y-111835500D01*
X139801287Y-111835500D01*
X140011243Y-111802246D01*
X140213412Y-111736557D01*
X140402816Y-111640051D01*
X140448639Y-111606759D01*
X140574786Y-111515109D01*
X140574788Y-111515106D01*
X140574792Y-111515104D01*
X140725104Y-111364792D01*
X140725106Y-111364788D01*
X140725109Y-111364786D01*
X140850048Y-111192820D01*
X140850047Y-111192820D01*
X140850051Y-111192816D01*
X140854514Y-111184054D01*
X140902488Y-111133259D01*
X140970308Y-111116463D01*
X141036444Y-111138999D01*
X141075486Y-111184056D01*
X141079951Y-111192820D01*
X141204890Y-111364786D01*
X141355213Y-111515109D01*
X141527179Y-111640048D01*
X141527181Y-111640049D01*
X141527184Y-111640051D01*
X141716588Y-111736557D01*
X141918757Y-111802246D01*
X142128713Y-111835500D01*
X142128714Y-111835500D01*
X142341286Y-111835500D01*
X142341287Y-111835500D01*
X142551243Y-111802246D01*
X142753412Y-111736557D01*
X142942816Y-111640051D01*
X142988639Y-111606759D01*
X143114786Y-111515109D01*
X143114788Y-111515106D01*
X143114792Y-111515104D01*
X143265104Y-111364792D01*
X143265106Y-111364788D01*
X143265109Y-111364786D01*
X143390048Y-111192820D01*
X143390047Y-111192820D01*
X143390051Y-111192816D01*
X143394514Y-111184054D01*
X143442488Y-111133259D01*
X143510308Y-111116463D01*
X143576444Y-111138999D01*
X143615486Y-111184056D01*
X143619951Y-111192820D01*
X143744890Y-111364786D01*
X143895213Y-111515109D01*
X144067179Y-111640048D01*
X144067181Y-111640049D01*
X144067184Y-111640051D01*
X144256588Y-111736557D01*
X144458757Y-111802246D01*
X144668713Y-111835500D01*
X144668714Y-111835500D01*
X144881286Y-111835500D01*
X144881287Y-111835500D01*
X145091243Y-111802246D01*
X145293412Y-111736557D01*
X145482816Y-111640051D01*
X145528639Y-111606759D01*
X145654786Y-111515109D01*
X145654788Y-111515106D01*
X145654792Y-111515104D01*
X145805104Y-111364792D01*
X145805106Y-111364788D01*
X145805109Y-111364786D01*
X145930048Y-111192820D01*
X145930047Y-111192820D01*
X145930051Y-111192816D01*
X145934514Y-111184054D01*
X145982488Y-111133259D01*
X146050308Y-111116463D01*
X146116444Y-111138999D01*
X146155486Y-111184056D01*
X146159951Y-111192820D01*
X146284890Y-111364786D01*
X146435213Y-111515109D01*
X146607179Y-111640048D01*
X146607181Y-111640049D01*
X146607184Y-111640051D01*
X146796588Y-111736557D01*
X146998757Y-111802246D01*
X147208713Y-111835500D01*
X147208714Y-111835500D01*
X147421286Y-111835500D01*
X147421287Y-111835500D01*
X147631243Y-111802246D01*
X147833412Y-111736557D01*
X148022816Y-111640051D01*
X148068639Y-111606759D01*
X148194786Y-111515109D01*
X148194788Y-111515106D01*
X148194792Y-111515104D01*
X148345104Y-111364792D01*
X148345106Y-111364788D01*
X148345109Y-111364786D01*
X148470048Y-111192820D01*
X148470047Y-111192820D01*
X148470051Y-111192816D01*
X148474514Y-111184054D01*
X148522488Y-111133259D01*
X148590308Y-111116463D01*
X148656444Y-111138999D01*
X148695486Y-111184056D01*
X148699951Y-111192820D01*
X148824890Y-111364786D01*
X148975213Y-111515109D01*
X149147179Y-111640048D01*
X149147181Y-111640049D01*
X149147184Y-111640051D01*
X149336588Y-111736557D01*
X149538757Y-111802246D01*
X149748713Y-111835500D01*
X149748714Y-111835500D01*
X149961286Y-111835500D01*
X149961287Y-111835500D01*
X150171243Y-111802246D01*
X150373412Y-111736557D01*
X150562816Y-111640051D01*
X150608639Y-111606759D01*
X150734786Y-111515109D01*
X150734788Y-111515106D01*
X150734792Y-111515104D01*
X150885104Y-111364792D01*
X150885106Y-111364788D01*
X150885109Y-111364786D01*
X151010048Y-111192820D01*
X151010047Y-111192820D01*
X151010051Y-111192816D01*
X151014514Y-111184054D01*
X151062488Y-111133259D01*
X151130308Y-111116463D01*
X151196444Y-111138999D01*
X151235486Y-111184056D01*
X151239951Y-111192820D01*
X151364890Y-111364786D01*
X151515213Y-111515109D01*
X151687179Y-111640048D01*
X151687181Y-111640049D01*
X151687184Y-111640051D01*
X151876588Y-111736557D01*
X152078757Y-111802246D01*
X152288713Y-111835500D01*
X152288714Y-111835500D01*
X152501286Y-111835500D01*
X152501287Y-111835500D01*
X152711243Y-111802246D01*
X152913412Y-111736557D01*
X153102816Y-111640051D01*
X153148639Y-111606759D01*
X153274786Y-111515109D01*
X153274788Y-111515106D01*
X153274792Y-111515104D01*
X153425104Y-111364792D01*
X153425106Y-111364788D01*
X153425109Y-111364786D01*
X153550048Y-111192820D01*
X153550047Y-111192820D01*
X153550051Y-111192816D01*
X153554514Y-111184054D01*
X153602488Y-111133259D01*
X153670308Y-111116463D01*
X153736444Y-111138999D01*
X153775486Y-111184056D01*
X153779951Y-111192820D01*
X153904890Y-111364786D01*
X154055213Y-111515109D01*
X154227179Y-111640048D01*
X154227181Y-111640049D01*
X154227184Y-111640051D01*
X154416588Y-111736557D01*
X154618757Y-111802246D01*
X154828713Y-111835500D01*
X154828714Y-111835500D01*
X155041286Y-111835500D01*
X155041287Y-111835500D01*
X155251243Y-111802246D01*
X155453412Y-111736557D01*
X155642816Y-111640051D01*
X155688639Y-111606759D01*
X155814786Y-111515109D01*
X155814788Y-111515106D01*
X155814792Y-111515104D01*
X155965104Y-111364792D01*
X155965106Y-111364788D01*
X155965109Y-111364786D01*
X156090048Y-111192820D01*
X156090047Y-111192820D01*
X156090051Y-111192816D01*
X156094514Y-111184054D01*
X156142488Y-111133259D01*
X156210308Y-111116463D01*
X156276444Y-111138999D01*
X156315486Y-111184056D01*
X156319951Y-111192820D01*
X156444890Y-111364786D01*
X156595213Y-111515109D01*
X156767179Y-111640048D01*
X156767181Y-111640049D01*
X156767184Y-111640051D01*
X156956588Y-111736557D01*
X157158757Y-111802246D01*
X157368713Y-111835500D01*
X157368714Y-111835500D01*
X157581286Y-111835500D01*
X157581287Y-111835500D01*
X157791243Y-111802246D01*
X157993412Y-111736557D01*
X158182816Y-111640051D01*
X158228639Y-111606759D01*
X158354786Y-111515109D01*
X158354788Y-111515106D01*
X158354792Y-111515104D01*
X158505104Y-111364792D01*
X158505106Y-111364788D01*
X158505109Y-111364786D01*
X158630048Y-111192820D01*
X158630051Y-111192816D01*
X158634793Y-111183508D01*
X158682763Y-111132711D01*
X158750583Y-111115911D01*
X158816719Y-111138445D01*
X158855763Y-111183500D01*
X158860377Y-111192555D01*
X158985272Y-111364459D01*
X158985276Y-111364464D01*
X159135535Y-111514723D01*
X159135540Y-111514727D01*
X159307442Y-111639620D01*
X159496782Y-111736095D01*
X159698871Y-111801757D01*
X159765000Y-111812231D01*
X159765000Y-110918012D01*
X159822007Y-110950925D01*
X159949174Y-110985000D01*
X160080826Y-110985000D01*
X160207993Y-110950925D01*
X160265000Y-110918012D01*
X160265000Y-111812230D01*
X160331126Y-111801757D01*
X160331129Y-111801757D01*
X160533217Y-111736095D01*
X160722557Y-111639620D01*
X160894459Y-111514727D01*
X160894464Y-111514723D01*
X161044723Y-111364464D01*
X161044727Y-111364459D01*
X161169620Y-111192557D01*
X161266095Y-111003217D01*
X161331757Y-110801129D01*
X161331757Y-110801126D01*
X161342231Y-110735000D01*
X160448012Y-110735000D01*
X160480925Y-110677993D01*
X160515000Y-110550826D01*
X160515000Y-110419174D01*
X160480925Y-110292007D01*
X160448012Y-110235000D01*
X161342231Y-110235000D01*
X161331757Y-110168873D01*
X161331757Y-110168870D01*
X161266095Y-109966782D01*
X161169620Y-109777442D01*
X161044727Y-109605540D01*
X161044723Y-109605535D01*
X160894464Y-109455276D01*
X160894459Y-109455272D01*
X160722555Y-109330377D01*
X160713500Y-109325763D01*
X160662706Y-109277788D01*
X160645912Y-109209966D01*
X160668451Y-109143832D01*
X160713508Y-109104793D01*
X160722816Y-109100051D01*
X160809471Y-109037093D01*
X160894786Y-108975109D01*
X160894788Y-108975106D01*
X160894792Y-108975104D01*
X161045104Y-108824792D01*
X161045106Y-108824788D01*
X161045109Y-108824786D01*
X161170048Y-108652820D01*
X161170047Y-108652820D01*
X161170051Y-108652816D01*
X161266557Y-108463412D01*
X161332246Y-108261243D01*
X161365500Y-108051287D01*
X161365500Y-107838713D01*
X161332246Y-107628757D01*
X161266557Y-107426588D01*
X161170051Y-107237184D01*
X161170049Y-107237181D01*
X161170048Y-107237179D01*
X161045109Y-107065213D01*
X160894786Y-106914890D01*
X160722820Y-106789951D01*
X160533414Y-106693444D01*
X160533413Y-106693443D01*
X160533412Y-106693443D01*
X160331243Y-106627754D01*
X160331241Y-106627753D01*
X160331240Y-106627753D01*
X160169957Y-106602208D01*
X160121287Y-106594500D01*
X159908713Y-106594500D01*
X159860042Y-106602208D01*
X159698760Y-106627753D01*
X159496585Y-106693444D01*
X159307179Y-106789951D01*
X159135213Y-106914890D01*
X158984890Y-107065213D01*
X158859949Y-107237182D01*
X158855484Y-107245946D01*
X158807509Y-107296742D01*
X158739688Y-107313536D01*
X158673553Y-107290998D01*
X158634516Y-107245946D01*
X158630050Y-107237182D01*
X158505109Y-107065213D01*
X158354786Y-106914890D01*
X158182820Y-106789951D01*
X157993414Y-106693444D01*
X157993413Y-106693443D01*
X157993412Y-106693443D01*
X157791243Y-106627754D01*
X157791241Y-106627753D01*
X157791240Y-106627753D01*
X157629957Y-106602208D01*
X157581287Y-106594500D01*
X157368713Y-106594500D01*
X157320042Y-106602208D01*
X157158760Y-106627753D01*
X156956585Y-106693444D01*
X156767179Y-106789951D01*
X156595213Y-106914890D01*
X156444890Y-107065213D01*
X156319949Y-107237182D01*
X156315484Y-107245946D01*
X156267509Y-107296742D01*
X156199688Y-107313536D01*
X156133553Y-107290998D01*
X156094516Y-107245946D01*
X156090050Y-107237182D01*
X155965109Y-107065213D01*
X155814786Y-106914890D01*
X155642820Y-106789951D01*
X155453414Y-106693444D01*
X155453413Y-106693443D01*
X155453412Y-106693443D01*
X155251243Y-106627754D01*
X155251241Y-106627753D01*
X155251240Y-106627753D01*
X155089957Y-106602208D01*
X155041287Y-106594500D01*
X154828713Y-106594500D01*
X154780042Y-106602208D01*
X154618760Y-106627753D01*
X154416585Y-106693444D01*
X154227179Y-106789951D01*
X154055213Y-106914890D01*
X153904890Y-107065213D01*
X153779949Y-107237182D01*
X153775484Y-107245946D01*
X153727509Y-107296742D01*
X153659688Y-107313536D01*
X153593553Y-107290998D01*
X153554516Y-107245946D01*
X153550050Y-107237182D01*
X153425109Y-107065213D01*
X153274786Y-106914890D01*
X153102820Y-106789951D01*
X152913414Y-106693444D01*
X152913413Y-106693443D01*
X152913412Y-106693443D01*
X152711243Y-106627754D01*
X152711241Y-106627753D01*
X152711240Y-106627753D01*
X152549957Y-106602208D01*
X152501287Y-106594500D01*
X152288713Y-106594500D01*
X152240042Y-106602208D01*
X152078760Y-106627753D01*
X151876585Y-106693444D01*
X151687179Y-106789951D01*
X151515213Y-106914890D01*
X151364890Y-107065213D01*
X151239949Y-107237182D01*
X151235484Y-107245946D01*
X151187509Y-107296742D01*
X151119688Y-107313536D01*
X151053553Y-107290998D01*
X151014516Y-107245946D01*
X151010050Y-107237182D01*
X150885109Y-107065213D01*
X150734786Y-106914890D01*
X150562820Y-106789951D01*
X150373414Y-106693444D01*
X150373413Y-106693443D01*
X150373412Y-106693443D01*
X150171243Y-106627754D01*
X150171241Y-106627753D01*
X150171240Y-106627753D01*
X150009957Y-106602208D01*
X149961287Y-106594500D01*
X149748713Y-106594500D01*
X149700042Y-106602208D01*
X149538760Y-106627753D01*
X149538757Y-106627754D01*
X149342817Y-106691419D01*
X149272977Y-106693414D01*
X149213144Y-106657334D01*
X149182316Y-106594633D01*
X149180500Y-106573488D01*
X149180500Y-101400945D01*
X149180500Y-101400943D01*
X149139577Y-101248216D01*
X149139577Y-101248215D01*
X149082131Y-101148716D01*
X149060520Y-101111284D01*
X148948716Y-100999480D01*
X148948715Y-100999479D01*
X148944385Y-100995149D01*
X148944374Y-100995139D01*
X147877590Y-99928355D01*
X147877588Y-99928352D01*
X147758717Y-99809481D01*
X147758716Y-99809480D01*
X147671380Y-99759057D01*
X147671378Y-99759055D01*
X147621788Y-99730424D01*
X147621787Y-99730423D01*
X147560693Y-99714053D01*
X147469057Y-99689499D01*
X147310943Y-99689499D01*
X147303347Y-99689499D01*
X147303331Y-99689500D01*
X135610097Y-99689500D01*
X135543058Y-99669815D01*
X135522416Y-99653181D01*
X135336819Y-99467584D01*
X135303334Y-99406261D01*
X135300500Y-99379903D01*
X135300500Y-93840097D01*
X135320185Y-93773058D01*
X135336819Y-93752416D01*
X135972416Y-93116819D01*
X136033739Y-93083334D01*
X136060097Y-93080500D01*
X139650903Y-93080500D01*
X139717942Y-93100185D01*
X139763697Y-93152989D01*
X139773641Y-93222147D01*
X139744616Y-93285703D01*
X139738588Y-93292176D01*
X139500513Y-93530251D01*
X139326286Y-93704478D01*
X139214481Y-93816282D01*
X139214475Y-93816290D01*
X139173902Y-93886564D01*
X139173891Y-93886585D01*
X139171631Y-93890501D01*
X139135423Y-93953215D01*
X139127680Y-93982107D01*
X139122569Y-93992674D01*
X139106673Y-94010215D01*
X139094353Y-94030428D01*
X139078326Y-94041498D01*
X139075653Y-94044449D01*
X139073031Y-94045155D01*
X139067241Y-94049156D01*
X138987182Y-94089949D01*
X138815215Y-94214889D01*
X138701285Y-94328819D01*
X138639962Y-94362303D01*
X138570270Y-94357319D01*
X138514337Y-94315447D01*
X138497422Y-94284470D01*
X138448354Y-94152913D01*
X138448350Y-94152906D01*
X138362190Y-94037812D01*
X138362187Y-94037809D01*
X138247093Y-93951649D01*
X138247086Y-93951645D01*
X138112379Y-93901403D01*
X138112372Y-93901401D01*
X138052844Y-93895000D01*
X137405000Y-93895000D01*
X137405000Y-94811988D01*
X137347993Y-94779075D01*
X137220826Y-94745000D01*
X137089174Y-94745000D01*
X136962007Y-94779075D01*
X136905000Y-94811988D01*
X136905000Y-93895000D01*
X136257155Y-93895000D01*
X136197627Y-93901401D01*
X136197620Y-93901403D01*
X136062913Y-93951645D01*
X136062906Y-93951649D01*
X135947812Y-94037809D01*
X135947809Y-94037812D01*
X135861649Y-94152906D01*
X135861645Y-94152913D01*
X135811403Y-94287620D01*
X135811401Y-94287627D01*
X135805000Y-94347155D01*
X135805000Y-94995000D01*
X136721988Y-94995000D01*
X136689075Y-95052007D01*
X136655000Y-95179174D01*
X136655000Y-95310826D01*
X136689075Y-95437993D01*
X136721988Y-95495000D01*
X135805000Y-95495000D01*
X135805000Y-96142844D01*
X135811401Y-96202372D01*
X135811403Y-96202379D01*
X135861645Y-96337086D01*
X135861649Y-96337093D01*
X135947809Y-96452187D01*
X135947812Y-96452190D01*
X136062906Y-96538350D01*
X136062913Y-96538354D01*
X136194470Y-96587422D01*
X136250404Y-96629293D01*
X136274821Y-96694758D01*
X136259969Y-96763031D01*
X136238819Y-96791285D01*
X136124889Y-96905215D01*
X135999951Y-97077179D01*
X135903444Y-97266585D01*
X135837753Y-97468760D01*
X135836291Y-97477993D01*
X135804500Y-97678713D01*
X135804500Y-97891287D01*
X135810994Y-97932288D01*
X135830642Y-98056344D01*
X135837754Y-98101243D01*
X135871683Y-98205666D01*
X135903444Y-98303414D01*
X135999951Y-98492820D01*
X136124890Y-98664786D01*
X136275213Y-98815109D01*
X136447179Y-98940048D01*
X136447181Y-98940049D01*
X136447184Y-98940051D01*
X136636588Y-99036557D01*
X136838757Y-99102246D01*
X137048713Y-99135500D01*
X137048714Y-99135500D01*
X137261286Y-99135500D01*
X137261287Y-99135500D01*
X137471243Y-99102246D01*
X137673412Y-99036557D01*
X137862816Y-98940051D01*
X137884789Y-98924086D01*
X138034786Y-98815109D01*
X138034788Y-98815106D01*
X138034792Y-98815104D01*
X138185104Y-98664792D01*
X138185106Y-98664788D01*
X138185109Y-98664786D01*
X138310048Y-98492820D01*
X138310047Y-98492820D01*
X138310051Y-98492816D01*
X138314514Y-98484054D01*
X138362488Y-98433259D01*
X138430308Y-98416463D01*
X138496444Y-98438999D01*
X138535486Y-98484056D01*
X138539951Y-98492820D01*
X138664890Y-98664786D01*
X138815213Y-98815109D01*
X138987179Y-98940048D01*
X138987181Y-98940049D01*
X138987184Y-98940051D01*
X139176588Y-99036557D01*
X139378757Y-99102246D01*
X139588713Y-99135500D01*
X139588714Y-99135500D01*
X139801286Y-99135500D01*
X139801287Y-99135500D01*
X140011243Y-99102246D01*
X140213412Y-99036557D01*
X140402816Y-98940051D01*
X140424789Y-98924086D01*
X140574786Y-98815109D01*
X140574788Y-98815106D01*
X140574792Y-98815104D01*
X140725104Y-98664792D01*
X140725106Y-98664788D01*
X140725109Y-98664786D01*
X140850048Y-98492820D01*
X140850047Y-98492820D01*
X140850051Y-98492816D01*
X140854514Y-98484054D01*
X140902488Y-98433259D01*
X140970308Y-98416463D01*
X141036444Y-98438999D01*
X141075486Y-98484056D01*
X141079951Y-98492820D01*
X141204890Y-98664786D01*
X141355213Y-98815109D01*
X141527179Y-98940048D01*
X141527181Y-98940049D01*
X141527184Y-98940051D01*
X141716588Y-99036557D01*
X141918757Y-99102246D01*
X142128713Y-99135500D01*
X142128714Y-99135500D01*
X142341286Y-99135500D01*
X142341287Y-99135500D01*
X142551243Y-99102246D01*
X142753412Y-99036557D01*
X142942816Y-98940051D01*
X142964789Y-98924086D01*
X143114786Y-98815109D01*
X143114788Y-98815106D01*
X143114792Y-98815104D01*
X143265104Y-98664792D01*
X143265106Y-98664788D01*
X143265109Y-98664786D01*
X143390048Y-98492820D01*
X143390047Y-98492820D01*
X143390051Y-98492816D01*
X143394514Y-98484054D01*
X143442488Y-98433259D01*
X143510308Y-98416463D01*
X143576444Y-98438999D01*
X143615486Y-98484056D01*
X143619951Y-98492820D01*
X143744890Y-98664786D01*
X143895213Y-98815109D01*
X144067179Y-98940048D01*
X144067181Y-98940049D01*
X144067184Y-98940051D01*
X144256588Y-99036557D01*
X144458757Y-99102246D01*
X144668713Y-99135500D01*
X144668714Y-99135500D01*
X144881286Y-99135500D01*
X144881287Y-99135500D01*
X145091243Y-99102246D01*
X145293412Y-99036557D01*
X145482816Y-98940051D01*
X145504789Y-98924086D01*
X145654786Y-98815109D01*
X145654788Y-98815106D01*
X145654792Y-98815104D01*
X145805104Y-98664792D01*
X145805106Y-98664788D01*
X145805109Y-98664786D01*
X145930048Y-98492820D01*
X145930047Y-98492820D01*
X145930051Y-98492816D01*
X145934514Y-98484054D01*
X145982488Y-98433259D01*
X146050308Y-98416463D01*
X146116444Y-98438999D01*
X146155486Y-98484056D01*
X146159951Y-98492820D01*
X146284890Y-98664786D01*
X146435213Y-98815109D01*
X146607179Y-98940048D01*
X146607181Y-98940049D01*
X146607184Y-98940051D01*
X146796588Y-99036557D01*
X146998757Y-99102246D01*
X147208713Y-99135500D01*
X147208714Y-99135500D01*
X147421286Y-99135500D01*
X147421287Y-99135500D01*
X147631243Y-99102246D01*
X147833412Y-99036557D01*
X148022816Y-98940051D01*
X148044789Y-98924086D01*
X148194786Y-98815109D01*
X148194788Y-98815106D01*
X148194792Y-98815104D01*
X148345104Y-98664792D01*
X148345106Y-98664788D01*
X148345109Y-98664786D01*
X148470048Y-98492820D01*
X148470047Y-98492820D01*
X148470051Y-98492816D01*
X148474514Y-98484054D01*
X148522488Y-98433259D01*
X148590308Y-98416463D01*
X148656444Y-98438999D01*
X148695486Y-98484056D01*
X148699951Y-98492820D01*
X148824890Y-98664786D01*
X148975213Y-98815109D01*
X149147179Y-98940048D01*
X149147181Y-98940049D01*
X149147184Y-98940051D01*
X149336588Y-99036557D01*
X149538757Y-99102246D01*
X149748713Y-99135500D01*
X149748714Y-99135500D01*
X149961286Y-99135500D01*
X149961287Y-99135500D01*
X150171243Y-99102246D01*
X150373412Y-99036557D01*
X150562816Y-98940051D01*
X150584789Y-98924086D01*
X150734786Y-98815109D01*
X150734788Y-98815106D01*
X150734792Y-98815104D01*
X150885104Y-98664792D01*
X150885106Y-98664788D01*
X150885109Y-98664786D01*
X151010048Y-98492820D01*
X151010047Y-98492820D01*
X151010051Y-98492816D01*
X151014514Y-98484054D01*
X151062488Y-98433259D01*
X151130308Y-98416463D01*
X151196444Y-98438999D01*
X151235486Y-98484056D01*
X151239951Y-98492820D01*
X151364890Y-98664786D01*
X151515213Y-98815109D01*
X151687179Y-98940048D01*
X151687181Y-98940049D01*
X151687184Y-98940051D01*
X151876588Y-99036557D01*
X152078757Y-99102246D01*
X152288713Y-99135500D01*
X152288714Y-99135500D01*
X152501286Y-99135500D01*
X152501287Y-99135500D01*
X152711243Y-99102246D01*
X152913412Y-99036557D01*
X153102816Y-98940051D01*
X153124789Y-98924086D01*
X153274786Y-98815109D01*
X153274788Y-98815106D01*
X153274792Y-98815104D01*
X153425104Y-98664792D01*
X153425106Y-98664788D01*
X153425109Y-98664786D01*
X153550048Y-98492820D01*
X153550047Y-98492820D01*
X153550051Y-98492816D01*
X153554514Y-98484054D01*
X153602488Y-98433259D01*
X153670308Y-98416463D01*
X153736444Y-98438999D01*
X153775486Y-98484056D01*
X153779951Y-98492820D01*
X153904890Y-98664786D01*
X154055213Y-98815109D01*
X154227179Y-98940048D01*
X154227181Y-98940049D01*
X154227184Y-98940051D01*
X154416588Y-99036557D01*
X154618757Y-99102246D01*
X154828713Y-99135500D01*
X154828714Y-99135500D01*
X155041286Y-99135500D01*
X155041287Y-99135500D01*
X155251243Y-99102246D01*
X155453412Y-99036557D01*
X155642816Y-98940051D01*
X155664789Y-98924086D01*
X155814786Y-98815109D01*
X155814788Y-98815106D01*
X155814792Y-98815104D01*
X155965104Y-98664792D01*
X155965106Y-98664788D01*
X155965109Y-98664786D01*
X156090048Y-98492820D01*
X156090047Y-98492820D01*
X156090051Y-98492816D01*
X156094514Y-98484054D01*
X156142488Y-98433259D01*
X156210308Y-98416463D01*
X156276444Y-98438999D01*
X156315486Y-98484056D01*
X156319951Y-98492820D01*
X156444890Y-98664786D01*
X156595213Y-98815109D01*
X156767179Y-98940048D01*
X156767181Y-98940049D01*
X156767184Y-98940051D01*
X156956588Y-99036557D01*
X157158757Y-99102246D01*
X157368713Y-99135500D01*
X157368714Y-99135500D01*
X157581286Y-99135500D01*
X157581287Y-99135500D01*
X157791243Y-99102246D01*
X157993412Y-99036557D01*
X158182816Y-98940051D01*
X158204789Y-98924086D01*
X158354786Y-98815109D01*
X158354788Y-98815106D01*
X158354792Y-98815104D01*
X158505104Y-98664792D01*
X158505106Y-98664788D01*
X158505109Y-98664786D01*
X158630048Y-98492820D01*
X158630051Y-98492816D01*
X158634793Y-98483508D01*
X158682763Y-98432711D01*
X158750583Y-98415911D01*
X158816719Y-98438445D01*
X158855763Y-98483500D01*
X158860377Y-98492555D01*
X158985272Y-98664459D01*
X158985276Y-98664464D01*
X159135535Y-98814723D01*
X159135540Y-98814727D01*
X159307442Y-98939620D01*
X159496782Y-99036095D01*
X159698871Y-99101757D01*
X159765000Y-99112231D01*
X159765000Y-98218012D01*
X159822007Y-98250925D01*
X159949174Y-98285000D01*
X160080826Y-98285000D01*
X160207993Y-98250925D01*
X160265000Y-98218012D01*
X160265000Y-99112230D01*
X160331126Y-99101757D01*
X160331129Y-99101757D01*
X160533217Y-99036095D01*
X160722557Y-98939620D01*
X160894459Y-98814727D01*
X160894464Y-98814723D01*
X161044723Y-98664464D01*
X161044727Y-98664459D01*
X161169620Y-98492557D01*
X161266095Y-98303217D01*
X161331757Y-98101129D01*
X161331757Y-98101126D01*
X161342231Y-98035000D01*
X160448012Y-98035000D01*
X160480925Y-97977993D01*
X160515000Y-97850826D01*
X160515000Y-97719174D01*
X160480925Y-97592007D01*
X160448012Y-97535000D01*
X161342231Y-97535000D01*
X161331757Y-97468873D01*
X161331757Y-97468870D01*
X161266095Y-97266782D01*
X161169620Y-97077442D01*
X161044727Y-96905540D01*
X161044723Y-96905535D01*
X160894464Y-96755276D01*
X160894459Y-96755272D01*
X160722555Y-96630377D01*
X160713500Y-96625763D01*
X160662706Y-96577788D01*
X160645912Y-96509966D01*
X160668451Y-96443832D01*
X160713508Y-96404793D01*
X160722816Y-96400051D01*
X160809471Y-96337093D01*
X160894786Y-96275109D01*
X160894788Y-96275106D01*
X160894792Y-96275104D01*
X161045104Y-96124792D01*
X161045106Y-96124788D01*
X161045109Y-96124786D01*
X161170048Y-95952820D01*
X161170047Y-95952820D01*
X161170051Y-95952816D01*
X161266557Y-95763412D01*
X161332246Y-95561243D01*
X161365500Y-95351287D01*
X161365500Y-95138713D01*
X161332246Y-94928757D01*
X161266557Y-94726588D01*
X161170051Y-94537184D01*
X161170049Y-94537181D01*
X161170048Y-94537179D01*
X161045109Y-94365213D01*
X160894786Y-94214890D01*
X160722820Y-94089951D01*
X160533414Y-93993444D01*
X160533413Y-93993443D01*
X160533412Y-93993443D01*
X160331243Y-93927754D01*
X160331241Y-93927753D01*
X160331240Y-93927753D01*
X160169957Y-93902208D01*
X160121287Y-93894500D01*
X159908713Y-93894500D01*
X159860042Y-93902208D01*
X159698760Y-93927753D01*
X159496585Y-93993444D01*
X159307179Y-94089951D01*
X159135213Y-94214890D01*
X158984890Y-94365213D01*
X158859949Y-94537182D01*
X158855484Y-94545946D01*
X158807509Y-94596742D01*
X158739688Y-94613536D01*
X158673553Y-94590998D01*
X158634516Y-94545946D01*
X158630050Y-94537182D01*
X158505109Y-94365213D01*
X158354786Y-94214890D01*
X158182820Y-94089951D01*
X157993414Y-93993444D01*
X157993413Y-93993443D01*
X157993412Y-93993443D01*
X157791243Y-93927754D01*
X157791241Y-93927753D01*
X157791240Y-93927753D01*
X157629957Y-93902208D01*
X157581287Y-93894500D01*
X157368713Y-93894500D01*
X157320042Y-93902208D01*
X157158760Y-93927753D01*
X156956585Y-93993444D01*
X156767179Y-94089951D01*
X156595213Y-94214890D01*
X156444890Y-94365213D01*
X156319949Y-94537182D01*
X156315484Y-94545946D01*
X156267509Y-94596742D01*
X156199688Y-94613536D01*
X156133553Y-94590998D01*
X156094516Y-94545946D01*
X156090050Y-94537182D01*
X155965109Y-94365213D01*
X155814786Y-94214890D01*
X155642820Y-94089951D01*
X155453414Y-93993444D01*
X155453413Y-93993443D01*
X155453412Y-93993443D01*
X155251243Y-93927754D01*
X155251241Y-93927753D01*
X155251240Y-93927753D01*
X155089957Y-93902208D01*
X155041287Y-93894500D01*
X154828713Y-93894500D01*
X154780042Y-93902208D01*
X154618760Y-93927753D01*
X154416585Y-93993444D01*
X154227179Y-94089951D01*
X154055213Y-94214890D01*
X153904890Y-94365213D01*
X153779949Y-94537182D01*
X153775484Y-94545946D01*
X153727509Y-94596742D01*
X153659688Y-94613536D01*
X153593553Y-94590998D01*
X153554516Y-94545946D01*
X153550050Y-94537182D01*
X153425109Y-94365213D01*
X153274786Y-94214890D01*
X153102820Y-94089951D01*
X152913414Y-93993444D01*
X152913413Y-93993443D01*
X152913412Y-93993443D01*
X152711243Y-93927754D01*
X152711241Y-93927753D01*
X152711240Y-93927753D01*
X152549957Y-93902208D01*
X152501287Y-93894500D01*
X152288713Y-93894500D01*
X152240042Y-93902208D01*
X152078760Y-93927753D01*
X151876585Y-93993444D01*
X151687179Y-94089951D01*
X151515213Y-94214890D01*
X151364890Y-94365213D01*
X151239949Y-94537182D01*
X151235484Y-94545946D01*
X151187509Y-94596742D01*
X151119688Y-94613536D01*
X151053553Y-94590998D01*
X151014516Y-94545946D01*
X151010050Y-94537182D01*
X150885109Y-94365213D01*
X150734786Y-94214890D01*
X150562820Y-94089951D01*
X150373414Y-93993444D01*
X150373413Y-93993443D01*
X150373412Y-93993443D01*
X150171243Y-93927754D01*
X150171241Y-93927753D01*
X150171240Y-93927753D01*
X150009957Y-93902208D01*
X149961287Y-93894500D01*
X149748713Y-93894500D01*
X149700042Y-93902208D01*
X149538760Y-93927753D01*
X149336585Y-93993444D01*
X149147179Y-94089951D01*
X148975213Y-94214890D01*
X148824890Y-94365213D01*
X148699949Y-94537182D01*
X148695484Y-94545946D01*
X148647509Y-94596742D01*
X148579688Y-94613536D01*
X148513553Y-94590998D01*
X148474516Y-94545946D01*
X148470050Y-94537182D01*
X148345109Y-94365213D01*
X148194786Y-94214890D01*
X148022820Y-94089951D01*
X147833414Y-93993444D01*
X147833413Y-93993443D01*
X147833412Y-93993443D01*
X147631243Y-93927754D01*
X147631241Y-93927753D01*
X147631240Y-93927753D01*
X147469957Y-93902208D01*
X147421287Y-93894500D01*
X147208713Y-93894500D01*
X147169202Y-93900757D01*
X146998759Y-93927753D01*
X146792818Y-93994668D01*
X146722977Y-93996663D01*
X146663144Y-93960583D01*
X146632316Y-93897882D01*
X146630500Y-93876737D01*
X146630500Y-93310097D01*
X146650185Y-93243058D01*
X146666819Y-93222416D01*
X147237953Y-92651282D01*
X147960520Y-91928716D01*
X148039577Y-91791784D01*
X148080501Y-91639057D01*
X148080501Y-91480942D01*
X148080501Y-91473347D01*
X148080500Y-91473329D01*
X148080500Y-86749507D01*
X148089940Y-86702051D01*
X148091009Y-86699472D01*
X148105500Y-86589401D01*
X148105499Y-86120600D01*
X148105499Y-86120598D01*
X148105499Y-86120596D01*
X148091011Y-86010536D01*
X148091009Y-86010531D01*
X148091009Y-86010528D01*
X148089938Y-86007942D01*
X148080500Y-85960492D01*
X148080500Y-85780945D01*
X148080500Y-85780943D01*
X148061969Y-85711784D01*
X148039577Y-85628215D01*
X147994708Y-85550500D01*
X147964099Y-85497483D01*
X147960522Y-85491287D01*
X147960521Y-85491286D01*
X147960520Y-85491284D01*
X147848716Y-85379480D01*
X147848715Y-85379479D01*
X147844385Y-85375149D01*
X147844374Y-85375139D01*
X147589630Y-85120395D01*
X147580521Y-85111286D01*
X147580520Y-85111284D01*
X147468716Y-84999480D01*
X147436524Y-84980894D01*
X147426618Y-84971868D01*
X147415151Y-84953007D01*
X147399917Y-84937031D01*
X147397354Y-84923734D01*
X147390321Y-84912166D01*
X147390871Y-84890101D01*
X147386693Y-84868424D01*
X147391725Y-84855853D01*
X147392063Y-84842318D01*
X147404456Y-84824051D01*
X147412660Y-84803559D01*
X147423688Y-84795705D01*
X147431291Y-84784500D01*
X147451596Y-84775832D01*
X147469574Y-84763030D01*
X147483096Y-84762385D01*
X147495551Y-84757069D01*
X147517317Y-84760754D01*
X147539364Y-84759704D01*
X147557584Y-84765648D01*
X147570526Y-84771008D01*
X147570528Y-84771009D01*
X147680599Y-84785500D01*
X147879400Y-84785499D01*
X147974989Y-84772915D01*
X148044021Y-84783681D01*
X148066659Y-84797479D01*
X148125021Y-84842263D01*
X148264896Y-84900200D01*
X148264901Y-84900201D01*
X148339998Y-84910087D01*
X148340000Y-84910086D01*
X148340000Y-84517282D01*
X148340739Y-84512967D01*
X148340180Y-84510595D01*
X148344120Y-84493244D01*
X148347080Y-84475982D01*
X148348176Y-84472877D01*
X148391009Y-84369472D01*
X148394756Y-84341010D01*
X148399080Y-84328769D01*
X148412233Y-84310544D01*
X148421327Y-84289987D01*
X148432287Y-84282757D01*
X148439969Y-84272114D01*
X148460887Y-84263893D01*
X148479652Y-84251516D01*
X148492778Y-84251359D01*
X148504997Y-84246558D01*
X148527043Y-84250952D01*
X148549516Y-84250685D01*
X148560641Y-84257649D01*
X148573519Y-84260216D01*
X148589690Y-84275832D01*
X148608740Y-84287757D01*
X148614334Y-84299631D01*
X148623779Y-84308752D01*
X148628939Y-84330630D01*
X148638519Y-84350962D01*
X148640000Y-84370069D01*
X148640000Y-84910086D01*
X148640001Y-84910087D01*
X148715098Y-84900201D01*
X148715103Y-84900200D01*
X148854978Y-84842263D01*
X148975094Y-84750094D01*
X149067263Y-84629978D01*
X149125198Y-84490108D01*
X149125199Y-84490104D01*
X149139999Y-84377697D01*
X149140000Y-84377683D01*
X149140000Y-84140000D01*
X148614000Y-84140000D01*
X148605314Y-84137449D01*
X148596353Y-84138738D01*
X148572312Y-84127759D01*
X148546961Y-84120315D01*
X148541033Y-84113474D01*
X148532797Y-84109713D01*
X148518507Y-84087478D01*
X148501206Y-84067511D01*
X148498918Y-84056996D01*
X148495023Y-84050935D01*
X148490000Y-84016000D01*
X148490000Y-83964000D01*
X148509685Y-83896961D01*
X148562489Y-83851206D01*
X148614000Y-83840000D01*
X149140000Y-83840000D01*
X149140000Y-83602316D01*
X149139999Y-83602302D01*
X149125199Y-83489895D01*
X149125198Y-83489891D01*
X149067263Y-83350020D01*
X149067261Y-83350018D01*
X148990504Y-83249986D01*
X148965310Y-83184817D01*
X148979348Y-83116372D01*
X149028162Y-83066383D01*
X149088880Y-83050500D01*
X159994108Y-83050500D01*
X160055933Y-83050500D01*
X160064043Y-83050765D01*
G37*
%TD.AperFunction*%
%TA.AperFunction,Conductor*%
G36*
X133056863Y-100212954D02*
G01*
X133072930Y-100214821D01*
X133087987Y-100227168D01*
X133105703Y-100235259D01*
X133114448Y-100248867D01*
X133126957Y-100259125D01*
X133142485Y-100290820D01*
X133143453Y-100293814D01*
X133180423Y-100431785D01*
X133191240Y-100450520D01*
X133197800Y-100461882D01*
X133197802Y-100461888D01*
X133259475Y-100568709D01*
X133259481Y-100568717D01*
X133378349Y-100687585D01*
X133378354Y-100687589D01*
X134451284Y-101760520D01*
X134451286Y-101760521D01*
X134451290Y-101760524D01*
X134588209Y-101839573D01*
X134588216Y-101839577D01*
X134740943Y-101880501D01*
X134740945Y-101880501D01*
X134906654Y-101880501D01*
X134906670Y-101880500D01*
X143979903Y-101880500D01*
X144046942Y-101900185D01*
X144067584Y-101916819D01*
X145423181Y-103272416D01*
X145456666Y-103333739D01*
X145459500Y-103360097D01*
X145459500Y-106576737D01*
X145439815Y-106643776D01*
X145387011Y-106689531D01*
X145317853Y-106699475D01*
X145297182Y-106694668D01*
X145091240Y-106627753D01*
X144929957Y-106602208D01*
X144881287Y-106594500D01*
X144668713Y-106594500D01*
X144620042Y-106602208D01*
X144458760Y-106627753D01*
X144256585Y-106693444D01*
X144067179Y-106789951D01*
X143895213Y-106914890D01*
X143744890Y-107065213D01*
X143619949Y-107237182D01*
X143615484Y-107245946D01*
X143567509Y-107296742D01*
X143499688Y-107313536D01*
X143433553Y-107290998D01*
X143394516Y-107245946D01*
X143390050Y-107237182D01*
X143265109Y-107065213D01*
X143114786Y-106914890D01*
X142942820Y-106789951D01*
X142753414Y-106693444D01*
X142753413Y-106693443D01*
X142753412Y-106693443D01*
X142551243Y-106627754D01*
X142551241Y-106627753D01*
X142551240Y-106627753D01*
X142389957Y-106602208D01*
X142341287Y-106594500D01*
X142128713Y-106594500D01*
X142080042Y-106602208D01*
X141918760Y-106627753D01*
X141716585Y-106693444D01*
X141527179Y-106789951D01*
X141355213Y-106914890D01*
X141204890Y-107065213D01*
X141079949Y-107237182D01*
X141075484Y-107245946D01*
X141027509Y-107296742D01*
X140959688Y-107313536D01*
X140893553Y-107290998D01*
X140854516Y-107245946D01*
X140850050Y-107237182D01*
X140725109Y-107065213D01*
X140574786Y-106914890D01*
X140402820Y-106789951D01*
X140213414Y-106693444D01*
X140213413Y-106693443D01*
X140213412Y-106693443D01*
X140011243Y-106627754D01*
X140011241Y-106627753D01*
X140011240Y-106627753D01*
X139849957Y-106602208D01*
X139801287Y-106594500D01*
X139588713Y-106594500D01*
X139540042Y-106602208D01*
X139378760Y-106627753D01*
X139176585Y-106693444D01*
X138987179Y-106789951D01*
X138815215Y-106914889D01*
X138701285Y-107028819D01*
X138639962Y-107062303D01*
X138570270Y-107057319D01*
X138514337Y-107015447D01*
X138497422Y-106984470D01*
X138448354Y-106852913D01*
X138448350Y-106852906D01*
X138362190Y-106737812D01*
X138362187Y-106737809D01*
X138247093Y-106651649D01*
X138247086Y-106651645D01*
X138112379Y-106601403D01*
X138112372Y-106601401D01*
X138052844Y-106595000D01*
X137405000Y-106595000D01*
X137405000Y-107511988D01*
X137347993Y-107479075D01*
X137220826Y-107445000D01*
X137089174Y-107445000D01*
X136962007Y-107479075D01*
X136905000Y-107511988D01*
X136905000Y-106595000D01*
X136257155Y-106595000D01*
X136197627Y-106601401D01*
X136197620Y-106601403D01*
X136062913Y-106651645D01*
X136062906Y-106651649D01*
X135947812Y-106737809D01*
X135947809Y-106737812D01*
X135861649Y-106852906D01*
X135861645Y-106852913D01*
X135811403Y-106987620D01*
X135811401Y-106987627D01*
X135805000Y-107047155D01*
X135805000Y-107695000D01*
X136721988Y-107695000D01*
X136689075Y-107752007D01*
X136655000Y-107879174D01*
X136655000Y-108010826D01*
X136689075Y-108137993D01*
X136721988Y-108195000D01*
X135805000Y-108195000D01*
X135805000Y-108842844D01*
X135811401Y-108902372D01*
X135811403Y-108902379D01*
X135861645Y-109037086D01*
X135861649Y-109037093D01*
X135947809Y-109152187D01*
X135947812Y-109152190D01*
X136062906Y-109238350D01*
X136062913Y-109238354D01*
X136194470Y-109287422D01*
X136250404Y-109329293D01*
X136274821Y-109394758D01*
X136259969Y-109463031D01*
X136238819Y-109491285D01*
X136124889Y-109605215D01*
X135999948Y-109777184D01*
X135999947Y-109777185D01*
X135979765Y-109816795D01*
X135931791Y-109867591D01*
X135869281Y-109884500D01*
X135105097Y-109884500D01*
X135038058Y-109864815D01*
X135017416Y-109848181D01*
X132936819Y-107767584D01*
X132903334Y-107706261D01*
X132900500Y-107679903D01*
X132900500Y-100328972D01*
X132905057Y-100313451D01*
X132904618Y-100297280D01*
X132914699Y-100280615D01*
X132920185Y-100261933D01*
X132932408Y-100251341D01*
X132940783Y-100237498D01*
X132958273Y-100228929D01*
X132972989Y-100216178D01*
X132989000Y-100213875D01*
X133003527Y-100206759D01*
X133022869Y-100209005D01*
X133042147Y-100206234D01*
X133056863Y-100212954D01*
G37*
%TD.AperFunction*%
%TA.AperFunction,Conductor*%
G36*
X128882539Y-107714685D02*
G01*
X128928294Y-107767489D01*
X128939500Y-107819000D01*
X128939500Y-108071000D01*
X128919815Y-108138039D01*
X128867011Y-108183794D01*
X128815500Y-108195000D01*
X128698012Y-108195000D01*
X128730925Y-108137993D01*
X128765000Y-108010826D01*
X128765000Y-107879174D01*
X128730925Y-107752007D01*
X128698012Y-107695000D01*
X128815500Y-107695000D01*
X128882539Y-107714685D01*
G37*
%TD.AperFunction*%
%TA.AperFunction,Conductor*%
G36*
X130339075Y-107752007D02*
G01*
X130305000Y-107879174D01*
X130305000Y-108010826D01*
X130339075Y-108137993D01*
X130371988Y-108195000D01*
X130264500Y-108195000D01*
X130197461Y-108175315D01*
X130151706Y-108122511D01*
X130140500Y-108071000D01*
X130140500Y-107819000D01*
X130160185Y-107751961D01*
X130212989Y-107706206D01*
X130264500Y-107695000D01*
X130371988Y-107695000D01*
X130339075Y-107752007D01*
G37*
%TD.AperFunction*%
%TA.AperFunction,Conductor*%
G36*
X130593039Y-99019685D02*
G01*
X130638794Y-99072489D01*
X130650000Y-99124000D01*
X130650000Y-100224999D01*
X130699972Y-100224999D01*
X130699986Y-100224998D01*
X130802697Y-100214505D01*
X130969119Y-100159358D01*
X130969124Y-100159356D01*
X131118345Y-100067315D01*
X131242318Y-99943342D01*
X131244165Y-99940348D01*
X131245969Y-99938724D01*
X131246798Y-99937677D01*
X131246976Y-99937818D01*
X131296110Y-99893621D01*
X131365073Y-99882396D01*
X131429156Y-99910236D01*
X131455243Y-99940341D01*
X131457288Y-99943656D01*
X131581344Y-100067712D01*
X131640596Y-100104258D01*
X131687321Y-100156204D01*
X131699500Y-100209797D01*
X131699500Y-106683519D01*
X131679815Y-106750558D01*
X131627011Y-106796313D01*
X131557853Y-106806257D01*
X131517371Y-106791654D01*
X131516895Y-106792589D01*
X131323215Y-106693903D01*
X131121124Y-106628241D01*
X131055000Y-106617768D01*
X131055000Y-107511988D01*
X130997993Y-107479075D01*
X130870826Y-107445000D01*
X130739174Y-107445000D01*
X130612007Y-107479075D01*
X130555000Y-107511988D01*
X130555000Y-106617768D01*
X130554999Y-106617768D01*
X130488875Y-106628241D01*
X130302817Y-106688694D01*
X130232976Y-106690689D01*
X130173143Y-106654608D01*
X130142316Y-106591907D01*
X130140500Y-106570763D01*
X130140500Y-105029059D01*
X130140501Y-105029046D01*
X130140501Y-104860945D01*
X130140501Y-104860943D01*
X130099577Y-104708215D01*
X130070639Y-104658095D01*
X130020520Y-104571284D01*
X129908716Y-104459480D01*
X129908715Y-104459479D01*
X129904385Y-104455149D01*
X129904374Y-104455139D01*
X129436819Y-103987584D01*
X129403334Y-103926261D01*
X129400500Y-103899903D01*
X129400500Y-100209797D01*
X129403073Y-100201034D01*
X129401785Y-100191993D01*
X129412761Y-100168038D01*
X129420185Y-100142758D01*
X129427857Y-100135095D01*
X129430891Y-100128475D01*
X129454921Y-100108065D01*
X129457594Y-100105396D01*
X129458478Y-100104829D01*
X129518656Y-100067712D01*
X129522688Y-100063679D01*
X129533500Y-100056751D01*
X129561370Y-100048605D01*
X129588299Y-100037744D01*
X129594503Y-100038923D01*
X129600564Y-100037152D01*
X129628411Y-100045367D01*
X129656940Y-100050789D01*
X129665551Y-100056323D01*
X129667579Y-100056922D01*
X129668949Y-100058508D01*
X129677317Y-100063886D01*
X129681653Y-100067314D01*
X129830875Y-100159356D01*
X129830880Y-100159358D01*
X129997302Y-100214505D01*
X129997309Y-100214506D01*
X130100019Y-100224999D01*
X130149999Y-100224998D01*
X130150000Y-100224998D01*
X130150000Y-99124000D01*
X130169685Y-99056961D01*
X130222489Y-99011206D01*
X130274000Y-99000000D01*
X130526000Y-99000000D01*
X130593039Y-99019685D01*
G37*
%TD.AperFunction*%
%TA.AperFunction,Conductor*%
G36*
X136018025Y-83070185D02*
G01*
X136063780Y-83122989D01*
X136073724Y-83192147D01*
X136056525Y-83239597D01*
X136015643Y-83305875D01*
X136015641Y-83305880D01*
X135960494Y-83472302D01*
X135960493Y-83472309D01*
X135950000Y-83575013D01*
X135950000Y-83850000D01*
X136826000Y-83850000D01*
X136893039Y-83869685D01*
X136938794Y-83922489D01*
X136950000Y-83974000D01*
X136950000Y-84100000D01*
X137076000Y-84100000D01*
X137143039Y-84119685D01*
X137188794Y-84172489D01*
X137200000Y-84224000D01*
X137200000Y-87324999D01*
X137249972Y-87324999D01*
X137249986Y-87324998D01*
X137352697Y-87314505D01*
X137519119Y-87259358D01*
X137519124Y-87259356D01*
X137668345Y-87167315D01*
X137792318Y-87043342D01*
X137794165Y-87040348D01*
X137795969Y-87038724D01*
X137796798Y-87037677D01*
X137796976Y-87037818D01*
X137846110Y-86993621D01*
X137915073Y-86982396D01*
X137979156Y-87010236D01*
X138005243Y-87040341D01*
X138007288Y-87043656D01*
X138131344Y-87167712D01*
X138280666Y-87259814D01*
X138447203Y-87314999D01*
X138549991Y-87325500D01*
X139150008Y-87325499D01*
X139150016Y-87325498D01*
X139150019Y-87325498D01*
X139206302Y-87319748D01*
X139252797Y-87314999D01*
X139419334Y-87259814D01*
X139568656Y-87167712D01*
X139692712Y-87043656D01*
X139784814Y-86894334D01*
X139784814Y-86894331D01*
X139784817Y-86894328D01*
X139787869Y-86887784D01*
X139789306Y-86888454D01*
X139824194Y-86838057D01*
X139888708Y-86811229D01*
X139902135Y-86810500D01*
X139996457Y-86810500D01*
X140102027Y-86789500D01*
X140136620Y-86782619D01*
X140268653Y-86727929D01*
X140387479Y-86648532D01*
X140488532Y-86547479D01*
X140567929Y-86428653D01*
X140622619Y-86296620D01*
X140650500Y-86156455D01*
X140650500Y-86013545D01*
X140650500Y-86013542D01*
X140622620Y-85873385D01*
X140622619Y-85873384D01*
X140622619Y-85873380D01*
X140567929Y-85741347D01*
X140567928Y-85741346D01*
X140567925Y-85741340D01*
X140488532Y-85622521D01*
X140488529Y-85622517D01*
X140387482Y-85521470D01*
X140387478Y-85521467D01*
X140268659Y-85442074D01*
X140268650Y-85442069D01*
X140136620Y-85387381D01*
X140136614Y-85387379D01*
X139996457Y-85359500D01*
X139996455Y-85359500D01*
X139887225Y-85359500D01*
X139877434Y-85356625D01*
X139867308Y-85357890D01*
X139844475Y-85346947D01*
X139820186Y-85339815D01*
X139811827Y-85331299D01*
X139804301Y-85327693D01*
X139781689Y-85300599D01*
X139698109Y-85165095D01*
X139679670Y-85097704D01*
X139698109Y-85034905D01*
X139775519Y-84909402D01*
X139827467Y-84862679D01*
X139881058Y-84850500D01*
X139971457Y-84850500D01*
X140065751Y-84831742D01*
X140111620Y-84822619D01*
X140243653Y-84767929D01*
X140362479Y-84688532D01*
X140362483Y-84688527D01*
X140367189Y-84684667D01*
X140368144Y-84685830D01*
X140422928Y-84655907D01*
X140492621Y-84660881D01*
X140547679Y-84701582D01*
X140584903Y-84750092D01*
X140705021Y-84842263D01*
X140844896Y-84900200D01*
X140844901Y-84900201D01*
X140919998Y-84910087D01*
X140920000Y-84910086D01*
X140920000Y-84370073D01*
X140939685Y-84303034D01*
X140992489Y-84257279D01*
X141061647Y-84247335D01*
X141125203Y-84276360D01*
X141160920Y-84328772D01*
X141165244Y-84341015D01*
X141168991Y-84369472D01*
X141211825Y-84472883D01*
X141212920Y-84475981D01*
X141213343Y-84483815D01*
X141220000Y-84517282D01*
X141220000Y-84910086D01*
X141220001Y-84910087D01*
X141295098Y-84900201D01*
X141295103Y-84900200D01*
X141434979Y-84842262D01*
X141434982Y-84842261D01*
X141493340Y-84797480D01*
X141521962Y-84786413D01*
X141549722Y-84773335D01*
X141555982Y-84773260D01*
X141558508Y-84772284D01*
X141585004Y-84772914D01*
X141621968Y-84777781D01*
X141685863Y-84806046D01*
X141720342Y-84853266D01*
X141737069Y-84893650D01*
X141737074Y-84893659D01*
X141816467Y-85012478D01*
X141816470Y-85012482D01*
X141917517Y-85113529D01*
X141917521Y-85113532D01*
X142036340Y-85192925D01*
X142036346Y-85192928D01*
X142036347Y-85192929D01*
X142168380Y-85247619D01*
X142168384Y-85247619D01*
X142168385Y-85247620D01*
X142308542Y-85275500D01*
X142308545Y-85275500D01*
X142319266Y-85275500D01*
X142332529Y-85279394D01*
X142346325Y-85278488D01*
X142365396Y-85289045D01*
X142386305Y-85295185D01*
X142396623Y-85306331D01*
X142407453Y-85312327D01*
X142415125Y-85320842D01*
X142416473Y-85322485D01*
X142503671Y-85409683D01*
X142537156Y-85471006D01*
X142532172Y-85540698D01*
X142490300Y-85596631D01*
X142463444Y-85611925D01*
X142427454Y-85626833D01*
X142424802Y-85627118D01*
X142422661Y-85628702D01*
X142390272Y-85630830D01*
X142357985Y-85634302D01*
X142354229Y-85633199D01*
X142352941Y-85633284D01*
X142351160Y-85632298D01*
X142332550Y-85626834D01*
X142289472Y-85608991D01*
X142289469Y-85608990D01*
X142289470Y-85608990D01*
X142179401Y-85594500D01*
X141980596Y-85594500D01*
X141870536Y-85608988D01*
X141870527Y-85608991D01*
X141733574Y-85665719D01*
X141733571Y-85665720D01*
X141733571Y-85665721D01*
X141615964Y-85755964D01*
X141525869Y-85873379D01*
X141525719Y-85873574D01*
X141468991Y-86010527D01*
X141468990Y-86010529D01*
X141454500Y-86120598D01*
X141454500Y-86589403D01*
X141468988Y-86699463D01*
X141468991Y-86699472D01*
X141520056Y-86822754D01*
X141525721Y-86836429D01*
X141615964Y-86954036D01*
X141733571Y-87044279D01*
X141870528Y-87101009D01*
X141971686Y-87114326D01*
X142035581Y-87142592D01*
X142074053Y-87200916D01*
X142079500Y-87237265D01*
X142079500Y-89089903D01*
X142059815Y-89156942D01*
X142043181Y-89177584D01*
X140447584Y-90773181D01*
X140386261Y-90806666D01*
X140359903Y-90809500D01*
X135436669Y-90809500D01*
X135436653Y-90809499D01*
X135429057Y-90809499D01*
X135270943Y-90809499D01*
X135163587Y-90838265D01*
X135118210Y-90850424D01*
X135118209Y-90850425D01*
X135068096Y-90879359D01*
X135068095Y-90879360D01*
X135024689Y-90904420D01*
X134981285Y-90929479D01*
X134981282Y-90929481D01*
X133259481Y-92651282D01*
X133259480Y-92651284D01*
X133209360Y-92738095D01*
X133180423Y-92788215D01*
X133165111Y-92845359D01*
X133161786Y-92853235D01*
X133144868Y-92873938D01*
X133130958Y-92896761D01*
X133123103Y-92900576D01*
X133117577Y-92907340D01*
X133092151Y-92915610D01*
X133068110Y-92927289D01*
X133059439Y-92926252D01*
X133051134Y-92928954D01*
X133025279Y-92922167D01*
X132998735Y-92918994D01*
X132983940Y-92911317D01*
X132983554Y-92911216D01*
X132983379Y-92911026D01*
X132982452Y-92910545D01*
X132869124Y-92840643D01*
X132869119Y-92840641D01*
X132702697Y-92785494D01*
X132702690Y-92785493D01*
X132599986Y-92775000D01*
X132550000Y-92775000D01*
X132550000Y-93876000D01*
X132530315Y-93943039D01*
X132477511Y-93988794D01*
X132426000Y-94000000D01*
X132174000Y-94000000D01*
X132106961Y-93980315D01*
X132061206Y-93927511D01*
X132050000Y-93876000D01*
X132050000Y-92775000D01*
X132049999Y-92774999D01*
X132000029Y-92775000D01*
X132000011Y-92775001D01*
X131897302Y-92785494D01*
X131730880Y-92840641D01*
X131730875Y-92840643D01*
X131581654Y-92932684D01*
X131457683Y-93056655D01*
X131457679Y-93056660D01*
X131455826Y-93059665D01*
X131454018Y-93061290D01*
X131453202Y-93062323D01*
X131453025Y-93062183D01*
X131403874Y-93106385D01*
X131334911Y-93117601D01*
X131270831Y-93089752D01*
X131244753Y-93059653D01*
X131244737Y-93059628D01*
X131242712Y-93056344D01*
X131118656Y-92932288D01*
X131118655Y-92932287D01*
X131059402Y-92895739D01*
X131012678Y-92843791D01*
X131000500Y-92790201D01*
X131000500Y-92270096D01*
X131020185Y-92203057D01*
X131036815Y-92182419D01*
X131283713Y-91935521D01*
X131283716Y-91935520D01*
X131395520Y-91823716D01*
X131445639Y-91736904D01*
X131474577Y-91686785D01*
X131515501Y-91534057D01*
X131515501Y-91375943D01*
X131515501Y-91368348D01*
X131515500Y-91368330D01*
X131515500Y-89425718D01*
X131535185Y-89358679D01*
X131583207Y-89315233D01*
X131622815Y-89295052D01*
X131622815Y-89295051D01*
X131622816Y-89295051D01*
X131794792Y-89170104D01*
X131908329Y-89056566D01*
X131969648Y-89023084D01*
X132039340Y-89028068D01*
X132095274Y-89069939D01*
X132112189Y-89100917D01*
X132161202Y-89232328D01*
X132161206Y-89232335D01*
X132247452Y-89347544D01*
X132247455Y-89347547D01*
X132362664Y-89433793D01*
X132362671Y-89433797D01*
X132497517Y-89484091D01*
X132497516Y-89484091D01*
X132504444Y-89484835D01*
X132557127Y-89490500D01*
X134352872Y-89490499D01*
X134412483Y-89484091D01*
X134547331Y-89433796D01*
X134662546Y-89347546D01*
X134748796Y-89232331D01*
X134799091Y-89097483D01*
X134805500Y-89037873D01*
X134805499Y-87242128D01*
X134799091Y-87182517D01*
X134797810Y-87179083D01*
X134748797Y-87047671D01*
X134748793Y-87047664D01*
X134662547Y-86932455D01*
X134662544Y-86932452D01*
X134547335Y-86846206D01*
X134547328Y-86846202D01*
X134412482Y-86795908D01*
X134412483Y-86795908D01*
X134352883Y-86789501D01*
X134352881Y-86789500D01*
X134352873Y-86789500D01*
X134352864Y-86789500D01*
X132557129Y-86789500D01*
X132557123Y-86789501D01*
X132497516Y-86795908D01*
X132362671Y-86846202D01*
X132362664Y-86846206D01*
X132247455Y-86932452D01*
X132247452Y-86932455D01*
X132161206Y-87047664D01*
X132161203Y-87047669D01*
X132112189Y-87179083D01*
X132070317Y-87235016D01*
X132004853Y-87259433D01*
X131936580Y-87244581D01*
X131908326Y-87223430D01*
X131794786Y-87109890D01*
X131622820Y-86984951D01*
X131433414Y-86888444D01*
X131433413Y-86888443D01*
X131433412Y-86888443D01*
X131231243Y-86822754D01*
X131231241Y-86822753D01*
X131231240Y-86822753D01*
X131069957Y-86797208D01*
X131021287Y-86789500D01*
X130808713Y-86789500D01*
X130760042Y-86797208D01*
X130598760Y-86822753D01*
X130396585Y-86888444D01*
X130207179Y-86984951D01*
X130035213Y-87109890D01*
X129884890Y-87260213D01*
X129759951Y-87432179D01*
X129663444Y-87621585D01*
X129597753Y-87823760D01*
X129564500Y-88033713D01*
X129564500Y-88246286D01*
X129597753Y-88456239D01*
X129663444Y-88658414D01*
X129759951Y-88847820D01*
X129884890Y-89019786D01*
X130035213Y-89170109D01*
X130207184Y-89295051D01*
X130207184Y-89295052D01*
X130246793Y-89315233D01*
X130297590Y-89363206D01*
X130314500Y-89425718D01*
X130314500Y-91154902D01*
X130294815Y-91221941D01*
X130278181Y-91242583D01*
X129919481Y-91601282D01*
X129919477Y-91601287D01*
X129897672Y-91639057D01*
X129896098Y-91641784D01*
X129852189Y-91717834D01*
X129841174Y-91736915D01*
X129840423Y-91738215D01*
X129799499Y-91890943D01*
X129799499Y-91890945D01*
X129799499Y-92059046D01*
X129799500Y-92059059D01*
X129799500Y-92790201D01*
X129796926Y-92798963D01*
X129798215Y-92808004D01*
X129787238Y-92831957D01*
X129779815Y-92857240D01*
X129772142Y-92864903D01*
X129769109Y-92871523D01*
X129745080Y-92891931D01*
X129742407Y-92894602D01*
X129741486Y-92895191D01*
X129681344Y-92932288D01*
X129677314Y-92936317D01*
X129666500Y-92943248D01*
X129638622Y-92951394D01*
X129611693Y-92962255D01*
X129605493Y-92961076D01*
X129599435Y-92962847D01*
X129571578Y-92954628D01*
X129543053Y-92949206D01*
X129534446Y-92943674D01*
X129532421Y-92943077D01*
X129531051Y-92941492D01*
X129522683Y-92936114D01*
X129518346Y-92932684D01*
X129369124Y-92840643D01*
X129369119Y-92840641D01*
X129202697Y-92785494D01*
X129202690Y-92785493D01*
X129099986Y-92775000D01*
X129050000Y-92775000D01*
X129050000Y-93876000D01*
X129030315Y-93943039D01*
X128977511Y-93988794D01*
X128926000Y-94000000D01*
X128674000Y-94000000D01*
X128606961Y-93980315D01*
X128561206Y-93927511D01*
X128550000Y-93876000D01*
X128550000Y-92775000D01*
X128549999Y-92774999D01*
X128500029Y-92775000D01*
X128500011Y-92775001D01*
X128397302Y-92785494D01*
X128230880Y-92840641D01*
X128230875Y-92840643D01*
X128081654Y-92932684D01*
X127957683Y-93056655D01*
X127957679Y-93056660D01*
X127955826Y-93059665D01*
X127954018Y-93061290D01*
X127953202Y-93062323D01*
X127953025Y-93062183D01*
X127903874Y-93106385D01*
X127834911Y-93117601D01*
X127770831Y-93089752D01*
X127744753Y-93059653D01*
X127744737Y-93059628D01*
X127742712Y-93056344D01*
X127618656Y-92932288D01*
X127618655Y-92932287D01*
X127559402Y-92895739D01*
X127512678Y-92843791D01*
X127500500Y-92790201D01*
X127500500Y-87140097D01*
X127520185Y-87073058D01*
X127536819Y-87052416D01*
X127964249Y-86624986D01*
X135950001Y-86624986D01*
X135960494Y-86727697D01*
X136015641Y-86894119D01*
X136015643Y-86894124D01*
X136107684Y-87043345D01*
X136231654Y-87167315D01*
X136380875Y-87259356D01*
X136380880Y-87259358D01*
X136547302Y-87314505D01*
X136547309Y-87314506D01*
X136650019Y-87324999D01*
X136699999Y-87324998D01*
X136700000Y-87324998D01*
X136700000Y-86350000D01*
X135950001Y-86350000D01*
X135950001Y-86624986D01*
X127964249Y-86624986D01*
X129412416Y-85176819D01*
X129439343Y-85162115D01*
X129465162Y-85145523D01*
X129471362Y-85144631D01*
X129473739Y-85143334D01*
X129500097Y-85140500D01*
X129629281Y-85140500D01*
X129696320Y-85160185D01*
X129739765Y-85208205D01*
X129759947Y-85247814D01*
X129759948Y-85247815D01*
X129884890Y-85419786D01*
X130035213Y-85570109D01*
X130207179Y-85695048D01*
X130207181Y-85695049D01*
X130207184Y-85695051D01*
X130396588Y-85791557D01*
X130598757Y-85857246D01*
X130808713Y-85890500D01*
X130808714Y-85890500D01*
X131021286Y-85890500D01*
X131021287Y-85890500D01*
X131231243Y-85857246D01*
X131433412Y-85791557D01*
X131622816Y-85695051D01*
X131741270Y-85608990D01*
X131794784Y-85570110D01*
X131794784Y-85570109D01*
X131794792Y-85570104D01*
X131908329Y-85456566D01*
X131969648Y-85423084D01*
X132039340Y-85428068D01*
X132095274Y-85469939D01*
X132112189Y-85500917D01*
X132161202Y-85632328D01*
X132161206Y-85632335D01*
X132247452Y-85747544D01*
X132247455Y-85747547D01*
X132362664Y-85833793D01*
X132362671Y-85833797D01*
X132497517Y-85884091D01*
X132497516Y-85884091D01*
X132504444Y-85884835D01*
X132557127Y-85890500D01*
X134352872Y-85890499D01*
X134412483Y-85884091D01*
X134547331Y-85833796D01*
X134662546Y-85747546D01*
X134748796Y-85632331D01*
X134770174Y-85575013D01*
X135950000Y-85575013D01*
X135950000Y-85850000D01*
X136700000Y-85850000D01*
X136700000Y-84350000D01*
X135950001Y-84350000D01*
X135950001Y-84624986D01*
X135960494Y-84727697D01*
X136015641Y-84894119D01*
X136015643Y-84894124D01*
X136102477Y-85034903D01*
X136120917Y-85102296D01*
X136102477Y-85165097D01*
X136015643Y-85305875D01*
X136015641Y-85305880D01*
X135960494Y-85472302D01*
X135960493Y-85472309D01*
X135950000Y-85575013D01*
X134770174Y-85575013D01*
X134799091Y-85497483D01*
X134805500Y-85437873D01*
X134805499Y-83642128D01*
X134799091Y-83582517D01*
X134797810Y-83579083D01*
X134748797Y-83447671D01*
X134748793Y-83447664D01*
X134662547Y-83332455D01*
X134662544Y-83332452D01*
X134584150Y-83273766D01*
X134542279Y-83217832D01*
X134537295Y-83148141D01*
X134570781Y-83086818D01*
X134632104Y-83053334D01*
X134658461Y-83050500D01*
X135950986Y-83050500D01*
X136018025Y-83070185D01*
G37*
%TD.AperFunction*%
%TA.AperFunction,Conductor*%
G36*
X130414682Y-83070185D02*
G01*
X130460437Y-83122989D01*
X130470381Y-83192147D01*
X130441356Y-83255703D01*
X130400415Y-83285222D01*
X130400929Y-83286231D01*
X130207179Y-83384951D01*
X130035213Y-83509890D01*
X129884890Y-83660213D01*
X129759948Y-83832184D01*
X129759947Y-83832185D01*
X129739765Y-83871795D01*
X129691791Y-83922591D01*
X129629281Y-83939500D01*
X129120942Y-83939500D01*
X128968214Y-83980423D01*
X128950762Y-83990500D01*
X128950759Y-83990501D01*
X128831290Y-84059475D01*
X128831282Y-84059481D01*
X126442181Y-86448583D01*
X126380858Y-86482068D01*
X126311166Y-86477084D01*
X126255233Y-86435212D01*
X126230816Y-86369748D01*
X126230500Y-86360902D01*
X126230500Y-85054066D01*
X126230765Y-85045956D01*
X126230916Y-85043656D01*
X126247075Y-84797102D01*
X126249190Y-84781048D01*
X126297045Y-84540462D01*
X126301243Y-84524797D01*
X126324337Y-84456762D01*
X126380093Y-84292512D01*
X126386291Y-84277547D01*
X126494790Y-84057533D01*
X126502893Y-84043498D01*
X126639182Y-83839527D01*
X126649039Y-83826681D01*
X126810786Y-83642244D01*
X126822244Y-83630786D01*
X127006681Y-83469039D01*
X127019527Y-83459182D01*
X127223498Y-83322893D01*
X127237533Y-83314790D01*
X127457547Y-83206291D01*
X127472512Y-83200093D01*
X127699653Y-83122989D01*
X127704797Y-83121243D01*
X127720464Y-83117045D01*
X127961048Y-83069190D01*
X127977102Y-83067075D01*
X128225957Y-83050765D01*
X128234067Y-83050500D01*
X128295892Y-83050500D01*
X130347643Y-83050500D01*
X130414682Y-83070185D01*
G37*
%TD.AperFunction*%
%TD*%
M02*
