%TF.GenerationSoftware,KiCad,Pcbnew,9.0.0-rc3-b7b28e555e~182~ubuntu24.04.1*%
%TF.CreationDate,2025-02-14T00:47:14-05:00*%
%TF.ProjectId,SharpBreakout,53686172-7042-4726-9561-6b6f75742e6b,rev?*%
%TF.SameCoordinates,Original*%
%TF.FileFunction,Paste,Top*%
%TF.FilePolarity,Positive*%
%FSLAX46Y46*%
G04 Gerber Fmt 4.6, Leading zero omitted, Abs format (unit mm)*
G04 Created by KiCad (PCBNEW 9.0.0-rc3-b7b28e555e~182~ubuntu24.04.1) date 2025-02-14 00:47:14*
%MOMM*%
%LPD*%
G01*
G04 APERTURE LIST*
G04 Aperture macros list*
%AMRoundRect*
0 Rectangle with rounded corners*
0 $1 Rounding radius*
0 $2 $3 $4 $5 $6 $7 $8 $9 X,Y pos of 4 corners*
0 Add a 4 corners polygon primitive as box body*
4,1,4,$2,$3,$4,$5,$6,$7,$8,$9,$2,$3,0*
0 Add four circle primitives for the rounded corners*
1,1,$1+$1,$2,$3*
1,1,$1+$1,$4,$5*
1,1,$1+$1,$6,$7*
1,1,$1+$1,$8,$9*
0 Add four rect primitives between the rounded corners*
20,1,$1+$1,$2,$3,$4,$5,0*
20,1,$1+$1,$4,$5,$6,$7,0*
20,1,$1+$1,$6,$7,$8,$9,0*
20,1,$1+$1,$8,$9,$2,$3,0*%
G04 Aperture macros list end*
%ADD10RoundRect,0.250000X0.250000X0.475000X-0.250000X0.475000X-0.250000X-0.475000X0.250000X-0.475000X0*%
%ADD11RoundRect,0.250000X-0.250000X-0.475000X0.250000X-0.475000X0.250000X0.475000X-0.250000X0.475000X0*%
%ADD12RoundRect,0.062500X0.062500X0.297500X-0.062500X0.297500X-0.062500X-0.297500X0.062500X-0.297500X0*%
%ADD13RoundRect,0.062500X0.062500X0.197500X-0.062500X0.197500X-0.062500X-0.197500X0.062500X-0.197500X0*%
%ADD14RoundRect,0.075000X0.075000X0.350000X-0.075000X0.350000X-0.075000X-0.350000X0.075000X-0.350000X0*%
%ADD15RoundRect,0.100000X-0.225000X-0.100000X0.225000X-0.100000X0.225000X0.100000X-0.225000X0.100000X0*%
G04 APERTURE END LIST*
D10*
%TO.C,C1*%
X138850000Y-84100000D03*
X136950000Y-84100000D03*
%TD*%
%TO.C,C5*%
X132300000Y-99000000D03*
X130400000Y-99000000D03*
%TD*%
%TO.C,C3*%
X128800000Y-99000000D03*
X126900000Y-99000000D03*
%TD*%
D11*
%TO.C,C4*%
X126900000Y-94000000D03*
X128800000Y-94000000D03*
%TD*%
D12*
%TO.C,J1*%
X147780000Y-83925000D03*
D13*
X147480000Y-86355000D03*
D12*
X147180000Y-83925000D03*
D13*
X146880000Y-86355000D03*
D12*
X146580000Y-83925000D03*
D13*
X146280000Y-86355000D03*
D12*
X145980000Y-83925000D03*
D13*
X145680000Y-86355000D03*
D12*
X145380000Y-83925000D03*
D13*
X145080000Y-86355000D03*
D12*
X144780000Y-83925000D03*
D13*
X144480000Y-86355000D03*
D12*
X144180000Y-83925000D03*
D13*
X143880000Y-86355000D03*
D12*
X143580000Y-83925000D03*
D13*
X143280000Y-86355000D03*
D12*
X142980000Y-83925000D03*
D13*
X142680000Y-86355000D03*
D12*
X142380000Y-83925000D03*
D13*
X142080000Y-86355000D03*
D12*
X141780000Y-83925000D03*
D14*
X148490000Y-83990000D03*
X141070000Y-83990000D03*
%TD*%
D11*
%TO.C,C6*%
X130400000Y-94000000D03*
X132300000Y-94000000D03*
%TD*%
D15*
%TO.C,U2*%
X130400000Y-95850000D03*
X130400000Y-96500000D03*
X130400000Y-97150000D03*
X132300000Y-97150000D03*
X132300000Y-96500000D03*
X132300000Y-95850000D03*
%TD*%
%TO.C,U1*%
X126900000Y-95850000D03*
X126900000Y-96500000D03*
X126900000Y-97150000D03*
X128800000Y-97150000D03*
X128800000Y-96500000D03*
X128800000Y-95850000D03*
%TD*%
D10*
%TO.C,C2*%
X138850000Y-86100000D03*
X136950000Y-86100000D03*
%TD*%
M02*
